<?xml version="1.0" encoding="utf-8"?>
<!-- Generator: Adobe Illustrator 18.0.0, SVG Export Plug-In . SVG Version: 6.00 Build 0)  -->
<!DOCTYPE svg PUBLIC "-//W3C//DTD SVG 1.1//EN" "http://www.w3.org/Graphics/SVG/1.1/DTD/svg11.dtd">
<svg version="1.1" id="Layer_1" xmlns="http://www.w3.org/2000/svg" xmlns:xlink="http://www.w3.org/1999/xlink" x="0px" y="0px"
	 viewBox="0 0 266 134" enable-background="new 0 0 266 134" xml:space="preserve">
<linearGradient id="SVGID_1_" gradientUnits="userSpaceOnUse" x1="93" y1="84.9982" x2="93" y2="37.9982">
	<stop  offset="0" style="stop-color:#1B4E3D"/>
	<stop  offset="1" style="stop-color:#CDFFBF"/>
</linearGradient>
<path fill="url(#SVGID_1_)" d="M139,85H47c-1.7,0-3-1.3-3-3V41c0-1.7,1.3-3,3-3h92c1.7,0,3,1.3,3,3v41C142,83.7,140.7,85,139,85z"/>
<linearGradient id="SVGID_2_" gradientUnits="userSpaceOnUse" x1="93" y1="82.9982" x2="93" y2="39.9982">
	<stop  offset="0" style="stop-color:#1B7F3D"/>
	<stop  offset="1" style="stop-color:#39E258"/>
</linearGradient>
<path fill="url(#SVGID_2_)" d="M47,83c-0.6,0-1-0.4-1-1V41c0-0.6,0.4-1,1-1h92c0.6,0,1,0.4,1,1v41c0,0.6-0.4,1-1,1H47z"/>
<g>
	<linearGradient id="SVGID_3_" gradientUnits="userSpaceOnUse" x1="21" y1="84.9982" x2="21" y2="37.9982">
		<stop  offset="0" style="stop-color:#333333"/>
		<stop  offset="1" style="stop-color:#CCCCCC"/>
	</linearGradient>
	<path fill="url(#SVGID_3_)" d="M39,85H3c-1.7,0-3-1.3-3-3V41c0-1.7,1.3-3,3-3h36c1.7,0,3,1.3,3,3v41C42,83.7,40.7,85,39,85z"/>
	<linearGradient id="SVGID_4_" gradientUnits="userSpaceOnUse" x1="23.0038" y1="84.4015" x2="18.9962" y2="38.5948">
		<stop  offset="0" style="stop-color:#666666"/>
		<stop  offset="1" style="stop-color:#B3B3B3"/>
	</linearGradient>
	<path fill="url(#SVGID_4_)" d="M3,83c-0.6,0-1-0.4-1-1V41c0-0.6,0.4-1,1-1h36c0.6,0,1,0.4,1,1v41c0,0.6-0.4,1-1,1H3z"/>
	<g opacity="0.25">
		<path d="M13.9,62.9c0.2-0.6,0.6-1.2,1-1.7c-1.8-0.5-3.6-0.4-5.2,0.2c1.3-3.5,4.8-5.3,8.7-4.6c3.7-3.7,8.9-6.2,14.1-6.4
			c0.4,0,0.6,0.2,0.6,0.6c-0.1,5.2-2.6,10.3-6.2,14.1c0.6,3.7-1.1,7.3-4.6,8.7c0.6-1.6,0.7-3.4,0.2-5.2c-0.6,0.4-1.2,0.7-1.8,1
			c-0.2,0.1-0.5,0.1-0.7-0.1l-6-6C13.8,63.3,13.8,63.1,13.9,62.9z M26.3,60.6c1-1,1-2.4,0-3.4c-1-1-2.4-1-3.4,0c-1,1-1,2.4,0,3.4
			C23.9,61.5,25.3,61.5,26.3,60.6z"/>
		<path d="M9.3,67.8l2.5-2.5c0.5-0.5,1.2-0.5,1.7,0c0.5,0.5,0.5,1.2,0,1.7L11,69.5c-0.5,0.5-1.2,0.5-1.7,0C8.9,69,8.9,68.3,9.3,67.8
			z"/>
		<path d="M16.6,69.9c0.5-0.5,1.2-0.5,1.7,0c0.5,0.5,0.5,1.2,0,1.7l-2.5,2.5c-0.5,0.5-1.2,0.5-1.7,0c-0.5-0.5-0.5-1.2,0-1.7
			L16.6,69.9z"/>
		<path d="M14.3,67.7c0.5-0.5,1.2-0.5,1.7,0c0.5,0.5,0.5,1.2,0,1.7l-3.5,3.5c-0.5,0.5-1.2,0.5-1.7,0c-0.5-0.5-0.5-1.2,0-1.7
			L14.3,67.7z"/>
	</g>
	<g>
		<path fill="#FFFFFF" d="M13.9,61.9c0.2-0.6,0.6-1.2,1-1.7c-1.8-0.5-3.6-0.4-5.2,0.2c1.3-3.5,4.8-5.3,8.7-4.6
			c3.7-3.7,8.9-6.2,14.1-6.4c0.4,0,0.6,0.2,0.6,0.6c-0.1,5.2-2.6,10.3-6.2,14.1c0.6,3.7-1.1,7.3-4.6,8.7c0.6-1.6,0.7-3.4,0.2-5.2
			c-0.6,0.4-1.2,0.7-1.8,1c-0.2,0.1-0.5,0.1-0.7-0.1l-6-6C13.8,62.3,13.8,62.1,13.9,61.9z M26.3,59.6c1-1,1-2.4,0-3.4
			c-1-1-2.4-1-3.4,0c-1,1-1,2.4,0,3.4C23.9,60.5,25.3,60.5,26.3,59.6z"/>
		<path fill="#FFFFFF" d="M9.3,66.8l2.5-2.5c0.5-0.5,1.2-0.5,1.7,0c0.5,0.5,0.5,1.2,0,1.7L11,68.5c-0.5,0.5-1.2,0.5-1.7,0
			C8.9,68,8.9,67.3,9.3,66.8z"/>
		<path fill="#FFFFFF" d="M16.6,68.9c0.5-0.5,1.2-0.5,1.7,0c0.5,0.5,0.5,1.2,0,1.7l-2.5,2.5c-0.5,0.5-1.2,0.5-1.7,0
			c-0.5-0.5-0.5-1.2,0-1.7L16.6,68.9z"/>
		<path fill="#FFFFFF" d="M14.3,66.7c0.5-0.5,1.2-0.5,1.7,0c0.5,0.5,0.5,1.2,0,1.7l-3.5,3.5c-0.5,0.5-1.2,0.5-1.7,0
			c-0.5-0.5-0.5-1.2,0-1.7L14.3,66.7z"/>
	</g>
</g>
<linearGradient id="SVGID_5_" gradientUnits="userSpaceOnUse" x1="174" y1="60.4981" x2="174" y2="37.9982">
	<stop  offset="0" style="stop-color:#004182"/>
	<stop  offset="1" style="stop-color:#8FFFED"/>
</linearGradient>
<path fill="url(#SVGID_5_)" d="M201,60.5h-54c-1.7,0-3-1.3-3-3V41c0-1.7,1.3-3,3-3h54c1.7,0,3,1.3,3,3v16.5
	C204,59.2,202.7,60.5,201,60.5z"/>
<linearGradient id="SVGID_6_" gradientUnits="userSpaceOnUse" x1="174" y1="58.4981" x2="174" y2="39.9982">
	<stop  offset="0" style="stop-color:#0074BE"/>
	<stop  offset="1" style="stop-color:#08DDED"/>
</linearGradient>
<path fill="url(#SVGID_6_)" d="M147,58.5c-0.6,0-1-0.4-1-1V41c0-0.6,0.4-1,1-1h54c0.6,0,1,0.4,1,1v16.5c0,0.6-0.4,1-1,1H147z"/>
<path opacity="0.65" fill="#FFFFFF" d="M201,40h-54c-0.6,0-1,0.4-1,1v1c0-0.6,0.4-1,1-1h54c0.6,0,1,0.4,1,1v-1
	C202,40.4,201.6,40,201,40z"/>
<path opacity="0.65" fill="#FFFFFF" d="M39,40H3c-0.6,0-1,0.4-1,1v1c0-0.6,0.4-1,1-1h36c0.6,0,1,0.4,1,1v-1C40,40.4,39.6,40,39,40z"
	/>
<path opacity="0.65" fill="#FFFFFF" d="M139,40H47c-0.6,0-1,0.4-1,1v1c0-0.6,0.4-1,1-1h92c0.6,0,1,0.4,1,1v-1
	C140,40.4,139.6,40,139,40z"/>
<linearGradient id="SVGID_7_" gradientUnits="userSpaceOnUse" x1="93" y1="134" x2="93" y2="87">
	<stop  offset="0" style="stop-color:#1B923D"/>
	<stop  offset="1" style="stop-color:#CDFFBF"/>
</linearGradient>
<path fill="url(#SVGID_7_)" d="M139,134H47c-1.7,0-3-1.3-3-3V90c0-1.7,1.3-3,3-3h92c1.7,0,3,1.3,3,3v41C142,132.7,140.7,134,139,134
	z"/>
<linearGradient id="SVGID_8_" gradientUnits="userSpaceOnUse" x1="93" y1="132" x2="93" y2="89">
	<stop  offset="0" style="stop-color:#1BBA3D"/>
	<stop  offset="1" style="stop-color:#A0FF58"/>
</linearGradient>
<path fill="url(#SVGID_8_)" d="M47,132c-0.6,0-1-0.4-1-1V90c0-0.6,0.4-1,1-1h92c0.6,0,1,0.4,1,1v41c0,0.6-0.4,1-1,1H47z"/>
<g>
	<linearGradient id="SVGID_9_" gradientUnits="userSpaceOnUse" x1="21" y1="134" x2="21" y2="87">
		<stop  offset="0" style="stop-color:#666666"/>
		<stop  offset="1" style="stop-color:#F2F2F2"/>
	</linearGradient>
	<path fill="url(#SVGID_9_)" d="M39,134H3c-1.7,0-3-1.3-3-3V90c0-1.7,1.3-3,3-3h36c1.7,0,3,1.3,3,3v41C42,132.7,40.7,134,39,134z"/>
	<linearGradient id="SVGID_10_" gradientUnits="userSpaceOnUse" x1="23.0038" y1="133.4034" x2="18.9962" y2="87.5966">
		<stop  offset="0" style="stop-color:#808080"/>
		<stop  offset="1" style="stop-color:#E6E6E6"/>
	</linearGradient>
	<path fill="url(#SVGID_10_)" d="M3,132c-0.6,0-1-0.4-1-1V90c0-0.6,0.4-1,1-1h36c0.6,0,1,0.4,1,1v41c0,0.6-0.4,1-1,1H3z"/>
	<g opacity="0.25">
		<path d="M13.9,111.9c0.2-0.6,0.6-1.2,1-1.7c-1.8-0.5-3.6-0.4-5.2,0.2c1.3-3.5,4.8-5.3,8.7-4.6c3.7-3.7,8.9-6.2,14.1-6.4
			c0.4,0,0.6,0.2,0.6,0.6c-0.1,5.2-2.6,10.3-6.2,14.1c0.6,3.7-1.1,7.3-4.6,8.7c0.6-1.6,0.7-3.4,0.2-5.2c-0.6,0.4-1.2,0.7-1.8,1
			c-0.2,0.1-0.5,0.1-0.7-0.1l-6-6C13.8,112.3,13.8,112.1,13.9,111.9z M26.3,109.6c1-1,1-2.4,0-3.4c-1-1-2.4-1-3.4,0
			c-1,1-1,2.4,0,3.4C23.9,110.5,25.3,110.5,26.3,109.6z"/>
		<path d="M9.3,116.8l2.5-2.5c0.5-0.5,1.2-0.5,1.7,0c0.5,0.5,0.5,1.2,0,1.7l-2.5,2.5c-0.5,0.5-1.2,0.5-1.7,0
			C8.9,118,8.9,117.3,9.3,116.8z"/>
		<path d="M16.6,119c0.5-0.5,1.2-0.5,1.7,0c0.5,0.5,0.5,1.2,0,1.7l-2.5,2.5c-0.5,0.5-1.2,0.5-1.7,0c-0.5-0.5-0.5-1.2,0-1.7L16.6,119
			z"/>
		<path d="M14.3,116.7c0.5-0.5,1.2-0.5,1.7,0c0.5,0.5,0.5,1.2,0,1.7l-3.5,3.5c-0.5,0.5-1.2,0.5-1.7,0c-0.5-0.5-0.5-1.2,0-1.7
			L14.3,116.7z"/>
	</g>
	<g>
		<path fill="#FFFFFF" d="M13.9,110.9c0.2-0.6,0.6-1.2,1-1.7c-1.8-0.5-3.6-0.4-5.2,0.2c1.3-3.5,4.8-5.3,8.7-4.6
			c3.7-3.7,8.9-6.2,14.1-6.4c0.4,0,0.6,0.2,0.6,0.6c-0.1,5.2-2.6,10.3-6.2,14.1c0.6,3.7-1.1,7.3-4.6,8.7c0.6-1.6,0.7-3.4,0.2-5.2
			c-0.6,0.4-1.2,0.7-1.8,1c-0.2,0.1-0.5,0.1-0.7-0.1l-6-6C13.8,111.3,13.8,111.1,13.9,110.9z M26.3,108.6c1-1,1-2.4,0-3.4
			c-1-1-2.4-1-3.4,0c-1,1-1,2.4,0,3.4C23.9,109.5,25.3,109.5,26.3,108.6z"/>
		<path fill="#FFFFFF" d="M9.3,115.8l2.5-2.5c0.5-0.5,1.2-0.5,1.7,0c0.5,0.5,0.5,1.2,0,1.7l-2.5,2.5c-0.5,0.5-1.2,0.5-1.7,0
			C8.9,117,8.9,116.3,9.3,115.8z"/>
		<path fill="#FFFFFF" d="M16.6,118c0.5-0.5,1.2-0.5,1.7,0c0.5,0.5,0.5,1.2,0,1.7l-2.5,2.5c-0.5,0.5-1.2,0.5-1.7,0s-0.5-1.2,0-1.7
			L16.6,118z"/>
		<path fill="#FFFFFF" d="M14.3,115.7c0.5-0.5,1.2-0.5,1.7,0c0.5,0.5,0.5,1.2,0,1.7l-3.5,3.5c-0.5,0.5-1.2,0.5-1.7,0
			c-0.5-0.5-0.5-1.2,0-1.7L14.3,115.7z"/>
	</g>
</g>
<linearGradient id="SVGID_11_" gradientUnits="userSpaceOnUse" x1="174" y1="84.9999" x2="174" y2="62.5">
	<stop  offset="0" style="stop-color:#0083D5"/>
	<stop  offset="1" style="stop-color:#8FFFED"/>
</linearGradient>
<path fill="url(#SVGID_11_)" d="M201,85h-54c-1.7,0-3-1.3-3-3V65.5c0-1.7,1.3-3,3-3h54c1.7,0,3,1.3,3,3V82C204,83.7,202.7,85,201,85
	z"/>
<linearGradient id="SVGID_12_" gradientUnits="userSpaceOnUse" x1="174" y1="82.9999" x2="174" y2="64.5">
	<stop  offset="0" style="stop-color:#00A7D5"/>
	<stop  offset="1" style="stop-color:#08EFED"/>
</linearGradient>
<path fill="url(#SVGID_12_)" d="M147,83c-0.6,0-1-0.4-1-1V65.5c0-0.6,0.4-1,1-1h54c0.6,0,1,0.4,1,1V82c0,0.6-0.4,1-1,1H147z"/>
<path opacity="0.65" fill="#FFFFFF" d="M201,64.5h-54c-0.6,0-1,0.4-1,1v1c0-0.6,0.4-1,1-1h54c0.6,0,1,0.4,1,1v-1
	C202,64.9,201.6,64.5,201,64.5z"/>
<path opacity="0.65" fill="#FFFFFF" d="M39,89H3c-0.6,0-1,0.4-1,1v1c0-0.6,0.4-1,1-1h36c0.6,0,1,0.4,1,1v-1C40,89.4,39.6,89,39,89z"
	/>
<path opacity="0.65" fill="#FFFFFF" d="M139,89H47c-0.6,0-1,0.4-1,1v1c0-0.6,0.4-1,1-1h92c0.6,0,1,0.4,1,1v-1
	C140,89.4,139.6,89,139,89z"/>
<path fill="#FFFFFF" d="M219.6,43.6v-1.1c0-0.2-0.2-0.3-0.4-0.2l-3.9,2.3c-0.2,0.1-0.2,0.4,0,0.5l3.9,2.3c0.2,0.1,0.4,0,0.4-0.2
	v-1.4c2.3,0.5,3.9,2.8,3.3,5.3c-0.4,1.6-1.6,2.9-3.2,3.2c-2.8,0.6-5.3-1.4-5.4-4.1c0-0.1-0.1-0.2-0.2-0.2h-1.6
	c-0.1,0-0.2,0.1-0.2,0.2c0.1,3.5,3,6.2,6.5,6.2c3.4,0,6.2-2.9,6.3-6.3C225,46.8,222.7,44.1,219.6,43.6z"/>
<g>
	<g>
		<linearGradient id="SVGID_13_" gradientUnits="userSpaceOnUse" x1="5.2721" y1="5.2721" x2="30.7279" y2="30.7279">
			<stop  offset="0" style="stop-color:#FFFFFF"/>
			<stop  offset="1" style="stop-color:#CCCCCC"/>
		</linearGradient>
		<circle fill="url(#SVGID_13_)" cx="18" cy="18" r="18"/>
		<path fill="#F0F0F0" d="M7,19c0-6.6,5.4-12,12-12c3.1,0,5.8,1.2,8,3c-2.2-2.5-5.4-4-9-4C11.4,6,6,11.4,6,18c0,3.6,1.6,6.8,4,9
			C8.2,24.8,7,22.1,7,19z"/>
		<linearGradient id="SVGID_14_" gradientUnits="userSpaceOnUse" x1="5.325" y1="5.325" x2="30.675" y2="30.675">
			<stop  offset="0" style="stop-color:#FF00FF"/>
			<stop  offset="1" style="stop-color:#662D91"/>
		</linearGradient>
		<path fill="url(#SVGID_14_)" d="M4.2,6.4l4.6,3.9c-0.9,1.1-1.6,2.3-2.1,3.6l-5.6-2.1C1.8,9.9,2.9,8,4.2,6.4z M8.8,25.7
			c-0.9-1.1-1.6-2.3-2.1-3.6l-5.6,2.1c0.7,2,1.8,3.8,3.1,5.4L8.8,25.7z M14.9,0.3l1,5.9C16.6,6.1,17.3,6,18,6s1.4,0.1,2.1,0.2l1-5.9
			C20.1,0.1,19.1,0,18,0S15.9,0.1,14.9,0.3z M27.2,10.3c0.9,1.1,1.6,2.3,2.1,3.6l5.6-2.1c-0.7-2-1.8-3.8-3.1-5.4L27.2,10.3z
			 M34.9,24.2l-5.6-2.1c-0.5,1.3-1.2,2.5-2.1,3.6l4.6,3.9C33.1,28,34.2,26.1,34.9,24.2z M21.1,35.7l-1-5.9C19.4,29.9,18.7,30,18,30
			s-1.4-0.1-2.1-0.2l-1,5.9c1,0.2,2.1,0.3,3.1,0.3S20.1,35.9,21.1,35.7z"/>
		<linearGradient id="SVGID_15_" gradientUnits="userSpaceOnUse" x1="27.1924" y1="27.1924" x2="8.8076" y2="8.8076">
			<stop  offset="0" style="stop-color:#FFFFFF"/>
			<stop  offset="1" style="stop-color:#E6E6E6"/>
		</linearGradient>
		<path fill="url(#SVGID_15_)" d="M18,5C10.8,5,5,10.8,5,18s5.8,13,13,13s13-5.8,13-13S25.2,5,18,5z M18,30c-6.6,0-12-5.4-12-12
			S11.4,6,18,6s12,5.4,12,12S24.6,30,18,30z"/>
		<linearGradient id="SVGID_16_" gradientUnits="userSpaceOnUse" x1="5.2721" y1="5.2721" x2="30.7279" y2="30.7279">
			<stop  offset="0" style="stop-color:#FFFFFF"/>
			<stop  offset="1" style="stop-color:#969696"/>
		</linearGradient>
		<path fill="url(#SVGID_16_)" d="M18,0C8.1,0,0,8.1,0,18s8.1,18,18,18c9.9,0,18-8.1,18-18S27.9,0,18,0z M18,35C8.6,35,1,27.4,1,18
			S8.6,1,18,1s17,7.6,17,17S27.4,35,18,35z"/>
		<linearGradient id="SVGID_17_" gradientUnits="userSpaceOnUse" x1="5.2721" y1="5.2721" x2="30.7279" y2="30.7279">
			<stop  offset="0" style="stop-color:#FFFFFF"/>
			<stop  offset="1" style="stop-color:#FFFFFF;stop-opacity:0"/>
		</linearGradient>
		<path opacity="0.5" fill="url(#SVGID_17_)" d="M18,0C8.1,0,0,8.1,0,18s8.1,18,18,18c9.9,0,18-8.1,18-18S27.9,0,18,0z M18,35
			C8.6,35,1,27.4,1,18S8.6,1,18,1s17,7.6,17,17S27.4,35,18,35z"/>
	</g>
	<g>
		<linearGradient id="SVGID_18_" gradientUnits="userSpaceOnUse" x1="81.9388" y1="5.2721" x2="107.3946" y2="30.7279">
			<stop  offset="0" style="stop-color:#FFFFFF"/>
			<stop  offset="1" style="stop-color:#CCCCCC"/>
		</linearGradient>
		<circle fill="url(#SVGID_18_)" cx="94.7" cy="18" r="18"/>
		<path fill="#F0F0F0" d="M83.7,19c0-6.6,5.4-12,12-12c3.1,0,5.8,1.2,8,3c-2.2-2.5-5.4-4-9-4c-6.6,0-12,5.4-12,12c0,3.6,1.6,6.8,4,9
			C84.8,24.8,83.7,22.1,83.7,19z"/>
		<linearGradient id="SVGID_19_" gradientUnits="userSpaceOnUse" x1="81.9917" y1="5.325" x2="107.3417" y2="30.675">
			<stop  offset="0" style="stop-color:#8CC63F"/>
			<stop  offset="1" style="stop-color:#009245"/>
		</linearGradient>
		<path fill="url(#SVGID_19_)" d="M80.9,6.4l4.6,3.9c-0.9,1.1-1.6,2.3-2.1,3.6l-5.6-2.1C78.5,9.9,79.5,8,80.9,6.4z M85.5,25.7
			c-0.9-1.1-1.6-2.3-2.1-3.6l-5.6,2.1c0.7,2,1.8,3.8,3.1,5.4L85.5,25.7z M91.5,0.3l1,5.9C93.3,6.1,94,6,94.7,6
			c0.7,0,1.4,0.1,2.1,0.2l1-5.9c-1-0.2-2.1-0.3-3.1-0.3S92.6,0.1,91.5,0.3z M103.9,10.3c0.9,1.1,1.6,2.3,2.1,3.6l5.6-2.1
			c-0.7-2-1.8-3.8-3.1-5.4L103.9,10.3z M111.6,24.2l-5.6-2.1c-0.5,1.3-1.2,2.5-2.1,3.6l4.6,3.9C109.8,28,110.8,26.1,111.6,24.2z
			 M97.8,35.7l-1-5.9c-0.7,0.1-1.4,0.2-2.1,0.2c-0.7,0-1.4-0.1-2.1-0.2l-1,5.9c1,0.2,2.1,0.3,3.1,0.3S96.8,35.9,97.8,35.7z"/>
		<linearGradient id="SVGID_20_" gradientUnits="userSpaceOnUse" x1="103.8591" y1="27.1924" x2="85.4743" y2="8.8076">
			<stop  offset="0" style="stop-color:#FFFFFF"/>
			<stop  offset="1" style="stop-color:#E6E6E6"/>
		</linearGradient>
		<path fill="url(#SVGID_20_)" d="M94.7,5c-7.2,0-13,5.8-13,13s5.8,13,13,13c7.2,0,13-5.8,13-13S101.8,5,94.7,5z M94.7,30
			c-6.6,0-12-5.4-12-12S88,6,94.7,6c6.6,0,12,5.4,12,12S101.3,30,94.7,30z"/>
		<linearGradient id="SVGID_21_" gradientUnits="userSpaceOnUse" x1="81.9387" y1="5.2721" x2="107.3946" y2="30.7279">
			<stop  offset="0" style="stop-color:#FFFFFF"/>
			<stop  offset="1" style="stop-color:#969696"/>
		</linearGradient>
		<path fill="url(#SVGID_21_)" d="M94.7,0c-9.9,0-18,8.1-18,18s8.1,18,18,18c9.9,0,18-8.1,18-18S104.6,0,94.7,0z M94.7,35
			c-9.4,0-17-7.6-17-17s7.6-17,17-17s17,7.6,17,17S104,35,94.7,35z"/>
		<linearGradient id="SVGID_22_" gradientUnits="userSpaceOnUse" x1="81.9387" y1="5.2721" x2="107.3946" y2="30.7279">
			<stop  offset="0" style="stop-color:#FFFFFF"/>
			<stop  offset="1" style="stop-color:#FFFFFF;stop-opacity:0"/>
		</linearGradient>
		<path opacity="0.5" fill="url(#SVGID_22_)" d="M94.7,0c-9.9,0-18,8.1-18,18s8.1,18,18,18c9.9,0,18-8.1,18-18S104.6,0,94.7,0z
			 M94.7,35c-9.4,0-17-7.6-17-17s7.6-17,17-17s17,7.6,17,17S104,35,94.7,35z"/>
	</g>
	<g>
		<linearGradient id="SVGID_23_" gradientUnits="userSpaceOnUse" x1="43.6054" y1="5.2721" x2="69.0612" y2="30.7279">
			<stop  offset="0" style="stop-color:#FFFFFF"/>
			<stop  offset="1" style="stop-color:#CCCCCC"/>
		</linearGradient>
		<circle fill="url(#SVGID_23_)" cx="56.3" cy="18" r="18"/>
		<path fill="#F0F0F0" d="M45.3,19c0-6.6,5.4-12,12-12c3.1,0,5.8,1.2,8,3c-2.2-2.5-5.4-4-9-4c-6.6,0-12,5.4-12,12c0,3.6,1.6,6.8,4,9
			C46.5,24.8,45.3,22.1,45.3,19z"/>
		<linearGradient id="SVGID_24_" gradientUnits="userSpaceOnUse" x1="43.6583" y1="5.325" x2="69.0083" y2="30.675">
			<stop  offset="0" style="stop-color:#00DFC2"/>
			<stop  offset="1" style="stop-color:#00A99D"/>
		</linearGradient>
		<path fill="url(#SVGID_24_)" d="M42.5,6.4l4.6,3.9c-0.9,1.1-1.6,2.3-2.1,3.6l-5.6-2.1C40.2,9.9,41.2,8,42.5,6.4z M47.1,25.7
			c-0.9-1.1-1.6-2.3-2.1-3.6l-5.6,2.1c0.7,2,1.8,3.8,3.1,5.4L47.1,25.7z M53.2,0.3l1,5.9C54.9,6.1,55.6,6,56.3,6
			c0.7,0,1.4,0.1,2.1,0.2l1-5.9c-1-0.2-2.1-0.3-3.1-0.3S54.2,0.1,53.2,0.3z M65.5,10.3c0.9,1.1,1.6,2.3,2.1,3.6l5.6-2.1
			c-0.7-2-1.8-3.8-3.1-5.4L65.5,10.3z M73.2,24.2l-5.6-2.1c-0.5,1.3-1.2,2.5-2.1,3.6l4.6,3.9C71.5,28,72.5,26.1,73.2,24.2z
			 M59.5,35.7l-1-5.9C57.7,29.9,57,30,56.3,30c-0.7,0-1.4-0.1-2.1-0.2l-1,5.9c1,0.2,2.1,0.3,3.1,0.3S58.4,35.9,59.5,35.7z"/>
		<linearGradient id="SVGID_25_" gradientUnits="userSpaceOnUse" x1="65.5257" y1="27.1924" x2="47.1409" y2="8.8076">
			<stop  offset="0" style="stop-color:#FFFFFF"/>
			<stop  offset="1" style="stop-color:#E6E6E6"/>
		</linearGradient>
		<path fill="url(#SVGID_25_)" d="M56.3,5c-7.2,0-13,5.8-13,13s5.8,13,13,13s13-5.8,13-13S63.5,5,56.3,5z M56.3,30
			c-6.6,0-12-5.4-12-12s5.4-12,12-12s12,5.4,12,12S63,30,56.3,30z"/>
		<linearGradient id="SVGID_26_" gradientUnits="userSpaceOnUse" x1="43.6054" y1="5.2721" x2="69.0612" y2="30.7279">
			<stop  offset="0" style="stop-color:#FFFFFF"/>
			<stop  offset="1" style="stop-color:#969696"/>
		</linearGradient>
		<path fill="url(#SVGID_26_)" d="M56.3,0c-9.9,0-18,8.1-18,18s8.1,18,18,18c9.9,0,18-8.1,18-18S66.3,0,56.3,0z M56.3,35
			c-9.4,0-17-7.6-17-17S47,1,56.3,1s17,7.6,17,17S65.7,35,56.3,35z"/>
		<linearGradient id="SVGID_27_" gradientUnits="userSpaceOnUse" x1="43.6054" y1="5.2721" x2="69.0612" y2="30.7279">
			<stop  offset="0" style="stop-color:#FFFFFF"/>
			<stop  offset="1" style="stop-color:#FFFFFF;stop-opacity:0"/>
		</linearGradient>
		<path opacity="0.5" fill="url(#SVGID_27_)" d="M56.3,0c-9.9,0-18,8.1-18,18s8.1,18,18,18c9.9,0,18-8.1,18-18S66.3,0,56.3,0z
			 M56.3,35c-9.4,0-17-7.6-17-17S47,1,56.3,1s17,7.6,17,17S65.7,35,56.3,35z"/>
	</g>
	<g>
		<linearGradient id="SVGID_28_" gradientUnits="userSpaceOnUse" x1="120.2721" y1="5.2721" x2="145.7279" y2="30.7279">
			<stop  offset="0" style="stop-color:#FFFFFF"/>
			<stop  offset="1" style="stop-color:#CCCCCC"/>
		</linearGradient>
		<circle fill="url(#SVGID_28_)" cx="133" cy="18" r="18"/>
		<path fill="#F0F0F0" d="M122,19c0-6.6,5.4-12,12-12c3.1,0,5.8,1.2,8,3c-2.2-2.5-5.4-4-9-4c-6.6,0-12,5.4-12,12c0,3.6,1.6,6.8,4,9
			C123.2,24.8,122,22.1,122,19z"/>
		<linearGradient id="SVGID_29_" gradientUnits="userSpaceOnUse" x1="120.325" y1="5.325" x2="145.675" y2="30.675">
			<stop  offset="0" style="stop-color:#FFC900"/>
			<stop  offset="1" style="stop-color:#FF7D00"/>
		</linearGradient>
		<path fill="url(#SVGID_29_)" d="M119.2,6.4l4.6,3.9c-0.9,1.1-1.6,2.3-2.1,3.6l-5.6-2.1C116.8,9.9,117.9,8,119.2,6.4z M123.8,25.7
			c-0.9-1.1-1.6-2.3-2.1-3.6l-5.6,2.1c0.7,2,1.8,3.8,3.1,5.4L123.8,25.7z M129.9,0.3l1,5.9c0.7-0.1,1.4-0.2,2.1-0.2s1.4,0.1,2.1,0.2
			l1-5.9c-1-0.2-2.1-0.3-3.1-0.3S130.9,0.1,129.9,0.3z M142.2,10.3c0.9,1.1,1.6,2.3,2.1,3.6l5.6-2.1c-0.7-2-1.8-3.8-3.1-5.4
			L142.2,10.3z M149.9,24.2l-5.6-2.1c-0.5,1.3-1.2,2.5-2.1,3.6l4.6,3.9C148.1,28,149.2,26.1,149.9,24.2z M136.1,35.7l-1-5.9
			c-0.7,0.1-1.4,0.2-2.1,0.2s-1.4-0.1-2.1-0.2l-1,5.9c1,0.2,2.1,0.3,3.1,0.3S135.1,35.9,136.1,35.7z"/>
		<linearGradient id="SVGID_30_" gradientUnits="userSpaceOnUse" x1="142.1924" y1="27.1924" x2="123.8076" y2="8.8076">
			<stop  offset="0" style="stop-color:#FFFFFF"/>
			<stop  offset="1" style="stop-color:#E6E6E6"/>
		</linearGradient>
		<path fill="url(#SVGID_30_)" d="M133,5c-7.2,0-13,5.8-13,13s5.8,13,13,13s13-5.8,13-13S140.2,5,133,5z M133,30
			c-6.6,0-12-5.4-12-12s5.4-12,12-12c6.6,0,12,5.4,12,12S139.6,30,133,30z"/>
		<linearGradient id="SVGID_31_" gradientUnits="userSpaceOnUse" x1="120.2721" y1="5.2721" x2="145.7279" y2="30.7279">
			<stop  offset="0" style="stop-color:#FFFFFF"/>
			<stop  offset="1" style="stop-color:#969696"/>
		</linearGradient>
		<path fill="url(#SVGID_31_)" d="M133,0c-9.9,0-18,8.1-18,18s8.1,18,18,18c9.9,0,18-8.1,18-18S142.9,0,133,0z M133,35
			c-9.4,0-17-7.6-17-17s7.6-17,17-17s17,7.6,17,17S142.4,35,133,35z"/>
		<linearGradient id="SVGID_32_" gradientUnits="userSpaceOnUse" x1="120.2721" y1="5.2721" x2="145.7279" y2="30.7279">
			<stop  offset="0" style="stop-color:#FFFFFF"/>
			<stop  offset="1" style="stop-color:#FFFFFF;stop-opacity:0"/>
		</linearGradient>
		<path opacity="0.5" fill="url(#SVGID_32_)" d="M133,0c-9.9,0-18,8.1-18,18s8.1,18,18,18c9.9,0,18-8.1,18-18S142.9,0,133,0z
			 M133,35c-9.4,0-17-7.6-17-17s7.6-17,17-17s17,7.6,17,17S142.4,35,133,35z"/>
	</g>
	<g>
		<linearGradient id="SVGID_33_" gradientUnits="userSpaceOnUse" x1="158.6054" y1="5.2721" x2="184.0613" y2="30.7279">
			<stop  offset="0" style="stop-color:#FFFFFF"/>
			<stop  offset="1" style="stop-color:#CCCCCC"/>
		</linearGradient>
		<circle fill="url(#SVGID_33_)" cx="171.3" cy="18" r="18"/>
		<path fill="#F0F0F0" d="M160.3,19c0-6.6,5.4-12,12-12c3.1,0,5.8,1.2,8,3c-2.2-2.5-5.4-4-9-4c-6.6,0-12,5.4-12,12
			c0,3.6,1.6,6.8,4,9C161.5,24.8,160.3,22.1,160.3,19z"/>
		<linearGradient id="SVGID_34_" gradientUnits="userSpaceOnUse" x1="158.6584" y1="5.325" x2="184.0084" y2="30.675">
			<stop  offset="0" style="stop-color:#0071BC"/>
			<stop  offset="1" style="stop-color:#2E3192"/>
		</linearGradient>
		<path fill="url(#SVGID_34_)" d="M157.5,6.4l4.6,3.9c-0.9,1.1-1.6,2.3-2.1,3.6l-5.6-2.1C155.2,9.9,156.2,8,157.5,6.4z M162.1,25.7
			c-0.9-1.1-1.6-2.3-2.1-3.6l-5.6,2.1c0.7,2,1.8,3.8,3.1,5.4L162.1,25.7z M168.2,0.3l1,5.9c0.7-0.1,1.4-0.2,2.1-0.2
			c0.7,0,1.4,0.1,2.1,0.2l1-5.9c-1-0.2-2.1-0.3-3.1-0.3S169.2,0.1,168.2,0.3z M180.5,10.3c0.9,1.1,1.6,2.3,2.1,3.6l5.6-2.1
			c-0.7-2-1.8-3.8-3.1-5.4L180.5,10.3z M188.2,24.2l-5.6-2.1c-0.5,1.3-1.2,2.5-2.1,3.6l4.6,3.9C186.5,28,187.5,26.1,188.2,24.2z
			 M174.5,35.7l-1-5.9c-0.7,0.1-1.4,0.2-2.1,0.2c-0.7,0-1.4-0.1-2.1-0.2l-1,5.9c1,0.2,2.1,0.3,3.1,0.3S173.4,35.9,174.5,35.7z"/>
		<linearGradient id="SVGID_35_" gradientUnits="userSpaceOnUse" x1="180.5257" y1="27.1924" x2="162.141" y2="8.8076">
			<stop  offset="0" style="stop-color:#FFFFFF"/>
			<stop  offset="1" style="stop-color:#E6E6E6"/>
		</linearGradient>
		<path fill="url(#SVGID_35_)" d="M171.3,5c-7.2,0-13,5.8-13,13s5.8,13,13,13c7.2,0,13-5.8,13-13S178.5,5,171.3,5z M171.3,30
			c-6.6,0-12-5.4-12-12s5.4-12,12-12c6.6,0,12,5.4,12,12S178,30,171.3,30z"/>
		<linearGradient id="SVGID_36_" gradientUnits="userSpaceOnUse" x1="158.6054" y1="5.2721" x2="184.0612" y2="30.7279">
			<stop  offset="0" style="stop-color:#FFFFFF"/>
			<stop  offset="1" style="stop-color:#969696"/>
		</linearGradient>
		<path fill="url(#SVGID_36_)" d="M171.3,0c-9.9,0-18,8.1-18,18s8.1,18,18,18c9.9,0,18-8.1,18-18S181.3,0,171.3,0z M171.3,35
			c-9.4,0-17-7.6-17-17s7.6-17,17-17c9.4,0,17,7.6,17,17S180.7,35,171.3,35z"/>
		<linearGradient id="SVGID_37_" gradientUnits="userSpaceOnUse" x1="158.6054" y1="5.2721" x2="184.0612" y2="30.7279">
			<stop  offset="0" style="stop-color:#FFFFFF"/>
			<stop  offset="1" style="stop-color:#FFFFFF;stop-opacity:0"/>
		</linearGradient>
		<path opacity="0.5" fill="url(#SVGID_37_)" d="M171.3,0c-9.9,0-18,8.1-18,18s8.1,18,18,18c9.9,0,18-8.1,18-18S181.3,0,171.3,0z
			 M171.3,35c-9.4,0-17-7.6-17-17s7.6-17,17-17c9.4,0,17,7.6,17,17S180.7,35,171.3,35z"/>
	</g>
	<g>
		<linearGradient id="SVGID_38_" gradientUnits="userSpaceOnUse" x1="196.9388" y1="5.2721" x2="222.3946" y2="30.7279">
			<stop  offset="0" style="stop-color:#FFFFFF"/>
			<stop  offset="1" style="stop-color:#CCCCCC"/>
		</linearGradient>
		<circle fill="url(#SVGID_38_)" cx="209.7" cy="18" r="18"/>
		<path fill="#F0F0F0" d="M198.7,19c0-6.6,5.4-12,12-12c3.1,0,5.8,1.2,8,3c-2.2-2.5-5.4-4-9-4c-6.6,0-12,5.4-12,12
			c0,3.6,1.6,6.8,4,9C199.8,24.8,198.7,22.1,198.7,19z"/>
		<linearGradient id="SVGID_39_" gradientUnits="userSpaceOnUse" x1="196.9917" y1="5.325" x2="222.3417" y2="30.675">
			<stop  offset="0" style="stop-color:#FF0000"/>
			<stop  offset="1" style="stop-color:#790000"/>
		</linearGradient>
		<path fill="url(#SVGID_39_)" d="M195.9,6.4l4.6,3.9c-0.9,1.1-1.6,2.3-2.1,3.6l-5.6-2.1C193.5,9.9,194.5,8,195.9,6.4z M200.5,25.7
			c-0.9-1.1-1.6-2.3-2.1-3.6l-5.6,2.1c0.7,2,1.8,3.8,3.1,5.4L200.5,25.7z M206.5,0.3l1,5.9c0.7-0.1,1.4-0.2,2.1-0.2s1.4,0.1,2.1,0.2
			l1-5.9c-1-0.2-2.1-0.3-3.1-0.3S207.6,0.1,206.5,0.3z M218.9,10.3c0.9,1.1,1.6,2.3,2.1,3.6l5.6-2.1c-0.7-2-1.8-3.8-3.1-5.4
			L218.9,10.3z M226.6,24.2l-5.6-2.1c-0.5,1.3-1.2,2.5-2.1,3.6l4.6,3.9C224.8,28,225.8,26.1,226.6,24.2z M212.8,35.7l-1-5.9
			c-0.7,0.1-1.4,0.2-2.1,0.2s-1.4-0.1-2.1-0.2l-1,5.9c1,0.2,2.1,0.3,3.1,0.3S211.8,35.9,212.8,35.7z"/>
		<linearGradient id="SVGID_40_" gradientUnits="userSpaceOnUse" x1="218.8591" y1="27.1924" x2="200.4743" y2="8.8076">
			<stop  offset="0" style="stop-color:#FFFFFF"/>
			<stop  offset="1" style="stop-color:#E6E6E6"/>
		</linearGradient>
		<path fill="url(#SVGID_40_)" d="M209.7,5c-7.2,0-13,5.8-13,13s5.8,13,13,13s13-5.8,13-13S216.8,5,209.7,5z M209.7,30
			c-6.6,0-12-5.4-12-12s5.4-12,12-12s12,5.4,12,12S216.3,30,209.7,30z"/>
		<linearGradient id="SVGID_41_" gradientUnits="userSpaceOnUse" x1="196.9388" y1="5.2721" x2="222.3946" y2="30.7279">
			<stop  offset="0" style="stop-color:#FFFFFF"/>
			<stop  offset="1" style="stop-color:#969696"/>
		</linearGradient>
		<path fill="url(#SVGID_41_)" d="M209.7,0c-9.9,0-18,8.1-18,18s8.1,18,18,18c9.9,0,18-8.1,18-18S219.6,0,209.7,0z M209.7,35
			c-9.4,0-17-7.6-17-17s7.6-17,17-17c9.4,0,17,7.6,17,17S219,35,209.7,35z"/>
		<linearGradient id="SVGID_42_" gradientUnits="userSpaceOnUse" x1="196.9388" y1="5.2721" x2="222.3946" y2="30.7279">
			<stop  offset="0" style="stop-color:#FFFFFF"/>
			<stop  offset="1" style="stop-color:#FFFFFF;stop-opacity:0"/>
		</linearGradient>
		<path opacity="0.5" fill="url(#SVGID_42_)" d="M209.7,0c-9.9,0-18,8.1-18,18s8.1,18,18,18c9.9,0,18-8.1,18-18S219.6,0,209.7,0z
			 M209.7,35c-9.4,0-17-7.6-17-17s7.6-17,17-17c9.4,0,17,7.6,17,17S219,35,209.7,35z"/>
	</g>
	<g>
		<linearGradient id="SVGID_43_" gradientUnits="userSpaceOnUse" x1="235.2721" y1="5.2721" x2="260.7279" y2="30.7279">
			<stop  offset="0" style="stop-color:#FFB200"/>
			<stop  offset="0.3396" style="stop-color:#FFFF8E"/>
			<stop  offset="1" style="stop-color:#FBB03B"/>
		</linearGradient>
		<circle fill="url(#SVGID_43_)" cx="248" cy="18" r="18"/>
		<path fill="#FFFFC8" d="M237,19c0-6.6,5.4-12,12-12c3.1,0,5.8,1.2,8,3c-2.2-2.5-5.4-4-9-4c-6.6,0-12,5.4-12,12c0,3.6,1.6,6.8,4,9
			C238.2,24.8,237,22.1,237,19z"/>
		<linearGradient id="SVGID_44_" gradientUnits="userSpaceOnUse" x1="235.325" y1="5.325" x2="260.675" y2="30.675">
			<stop  offset="0" style="stop-color:#FF0000"/>
			<stop  offset="1" style="stop-color:#790000"/>
		</linearGradient>
		<path fill="url(#SVGID_44_)" d="M234.2,6.4l4.6,3.9c-0.9,1.1-1.6,2.3-2.1,3.6l-5.6-2.1C231.8,9.9,232.9,8,234.2,6.4z M238.8,25.7
			c-0.9-1.1-1.6-2.3-2.1-3.6l-5.6,2.1c0.7,2,1.8,3.8,3.1,5.4L238.8,25.7z M244.9,0.3l1,5.9c0.7-0.1,1.4-0.2,2.1-0.2s1.4,0.1,2.1,0.2
			l1-5.9c-1-0.2-2.1-0.3-3.1-0.3S245.9,0.1,244.9,0.3z M257.2,10.3c0.9,1.1,1.6,2.3,2.1,3.6l5.6-2.1c-0.7-2-1.8-3.8-3.1-5.4
			L257.2,10.3z M264.9,24.2l-5.6-2.1c-0.5,1.3-1.2,2.5-2.1,3.6l4.6,3.9C263.1,28,264.2,26.1,264.9,24.2z M251.1,35.7l-1-5.9
			c-0.7,0.1-1.4,0.2-2.1,0.2s-1.4-0.1-2.1-0.2l-1,5.9c1,0.2,2.1,0.3,3.1,0.3S250.1,35.9,251.1,35.7z"/>
		<linearGradient id="SVGID_45_" gradientUnits="userSpaceOnUse" x1="257.1924" y1="27.1924" x2="238.8076" y2="8.8076">
			<stop  offset="0" style="stop-color:#FFFFFF"/>
			<stop  offset="1" style="stop-color:#E6E6E6"/>
		</linearGradient>
		<path fill="url(#SVGID_45_)" d="M248,5c-7.2,0-13,5.8-13,13s5.8,13,13,13s13-5.8,13-13S255.2,5,248,5z M248,30
			c-6.6,0-12-5.4-12-12s5.4-12,12-12s12,5.4,12,12S254.6,30,248,30z"/>
		<linearGradient id="SVGID_46_" gradientUnits="userSpaceOnUse" x1="235.2721" y1="5.2721" x2="260.7279" y2="30.7279">
			<stop  offset="0" style="stop-color:#FFFFFF"/>
			<stop  offset="1" style="stop-color:#969696"/>
		</linearGradient>
		<path fill="url(#SVGID_46_)" d="M248,0c-9.9,0-18,8.1-18,18s8.1,18,18,18c9.9,0,18-8.1,18-18S257.9,0,248,0z M248,35
			c-9.4,0-17-7.6-17-17s7.6-17,17-17c9.4,0,17,7.6,17,17S257.4,35,248,35z"/>
		<linearGradient id="SVGID_47_" gradientUnits="userSpaceOnUse" x1="235.2721" y1="5.2721" x2="260.7279" y2="30.7279">
			<stop  offset="0" style="stop-color:#FFFFFF"/>
			<stop  offset="1" style="stop-color:#FFFFFF;stop-opacity:0"/>
		</linearGradient>
		<path opacity="0.5" fill="url(#SVGID_47_)" d="M248,0c-9.9,0-18,8.1-18,18s8.1,18,18,18c9.9,0,18-8.1,18-18S257.9,0,248,0z
			 M248,35c-9.4,0-17-7.6-17-17s7.6-17,17-17c9.4,0,17,7.6,17,17S257.4,35,248,35z"/>
	</g>
</g>
</svg>
