<?xml version="1.0" encoding="utf-8"?>
<!-- Generator: Adobe Illustrator 22.0.0, SVG Export Plug-In . SVG Version: 6.00 Build 0)  -->
<svg version="1.1" id="Layer_1" xmlns="http://www.w3.org/2000/svg" xmlns:xlink="http://www.w3.org/1999/xlink" x="0px" y="0px"
	 viewBox="0 0 180 90" style="enable-background:new 0 0 180 90;" xml:space="preserve">
<style type="text/css">
	.st0{fill:#CCC;}
	.st1{opacity:0.3;}
</style>
<image style="overflow:visible;opacity:0.2;" width="176" height="86" xlink:href="frame.png"  transform="matrix(1 0 0 1 1 2)">
</image>
<path class="st0" d="M37.9,87.7c-0.6,0.4-2.6,1.6-5.1,1.2c-0.9-0.2-1.7-0.5-2.2-0.8c-0.4-0.2-0.9-0.6-1.4-0.9
	c-1-0.8-1.7-1.7-2.2-2.4C18.7,66.3,10.3,48,2,29.6c0,0-3-8.1,4.8-11.5s7.8-3.4,7.8-3.4c0.8,1.8,1.6,3.6,2.3,5.4c-1.4,0.4-3,1-4.7,2
	c-1.2,0.7-2.3,1.3-3.1,2c-0.4,0.5-0.9,1.3-1,2.3c-0.1,0.6,0,1.3,0.3,2.1c1,2.6,24.6,53.6,24.6,53.6l2.1,1.4
	C36,84.9,37,86.3,37.9,87.7z"/>
<path class="st0" d="M142.5,88c0.8,0.1,1.6,0.1,2.5,0.1c1.5,0,2.8-0.2,4-0.4c0.6-0.2,1.4-0.6,2.2-1.2c1.3-1,1.9-2.1,2.3-2.8
	c8.3-18.3,16.7-36.7,25-55c0,0,3-8.1-4.8-11.5s-7.8-3.4-7.8-3.4l-2.5,5.8l8,3.6c0,0,1.8,1.8,0.8,4.4s-24.6,53.6-24.6,53.6
	c-0.3,0.5-0.8,1-1.3,1.6c-0.4,0.4-0.8,0.7-1.2,1C144.2,85.1,143.3,86.6,142.5,88z"/>
<path class="st0" d="M14.3,14.8C32.1,7.9,62.3-1,100.3,0.6c27.6,1.1,50.1,7.4,65.6,13.2c-0.8,1.9-1.7,3.8-2.5,5.8
	C151,15,135.9,10.9,118.6,8.6C74.7,3,38.4,12.5,16.8,20.2L14.3,14.8z"/>
<path class="st0" d="M34,83.5c9.1-3.8,20.5-7.5,33.9-9.5c34.3-5.1,62.5,3.7,77.3,9.8c-0.9,1.4-1.8,2.8-2.7,4.2
	c-8.6-3.4-19.1-6.5-31.1-8.3C79,74.8,52.2,82.3,37,88L34,83.5z"/>
<path class="st1" d="M32.9,82.1L7.7,27.9c0,0-0.6-2.6,0.6-3.6l3.3-2.2l3.3,4.4L32.9,82.1z"/>
<path d="M11.3,22.7"/>
<path class="st1" d="M11.5,22.1"/>
<path class="st1" d="M7.5,23.7c13.2-5.6,25-9.1,34.5-11.4c5.7-1.4,16-3.6,29.1-5c6.7-0.7,18.4-1.9,33.8-1
	c31.4,1.8,46.7,10.4,58.8,13.1c1.7,0.4,3.4,1.4,7.2,3.3c0.4,0.2,1.1,0.6,1.5,1.3c0.8,1.3,0.5,3.2-0.6,4.7c-13.4-5.6-30.1-11-49.7-14
	C71.6,7,30.3,19.7,8.3,28.5C8.3,28.5,6.5,25.7,7.5,23.7z"/>
<path class="st0" d="M146.3,109.2"/>
<path class="st0" d="M32.2,99.5"/>
</svg>
