<?xml version="1.0" encoding="utf-8"?>
<!-- Generator: Adobe Illustrator 18.0.0, SVG Export Plug-In . SVG Version: 6.00 Build 0)  -->
<!DOCTYPE svg PUBLIC "-//W3C//DTD SVG 1.1//EN" "http://www.w3.org/Graphics/SVG/1.1/DTD/svg11.dtd">
<svg version="1.1" id="Layer_1" xmlns="http://www.w3.org/2000/svg" xmlns:xlink="http://www.w3.org/1999/xlink" x="0px" y="0px" viewBox="0 0 420 420" enable-background="new 0 0 420 420" xml:space="preserve">
<g>
	<g>
		<path fill="#C1272D" d="M227.8,0.7l-2.7,31.5c5,0.4,10,1,15,1.9c5,0.8,10,1.9,14.8,3.2l8-30.6c-5.7-1.4-11.5-2.7-17.4-3.7
			C239.6,2,233.7,1.2,227.8,0.7z"/>
		
			<text transform="matrix(0.9856 0.169 -0.169 0.9856 232.1411 23.1721)" fill="#FFFFFF" font-family="'RobotoCondensed-Bold'" font-size="20.388">32</text>
		
			<linearGradient id="SVGID_1_" gradientUnits="userSpaceOnUse" x1="668.4566" y1="328.1661" x2="697.4738" y2="328.1661" gradientTransform="matrix(-1.0047 -0.1723 0.1723 -1.0047 866.3301 501.8781)">
			<stop  offset="0" style="stop-color:#C1272D"/>
			<stop  offset="0.2941" style="stop-color:#95272D"/>
			<stop  offset="1" style="stop-color:#5A272D"/>
		</linearGradient>
		<path fill="url(#SVGID_1_)" d="M253.9,41.3l-8.3,31.6c-3.9-1-7.7-1.8-11.7-2.5c-4-0.7-8-1.2-11.9-1.5l2.8-32.5
			c4.9,0.4,9.8,1,14.7,1.8C244.4,39,249.1,40.1,253.9,41.3z"/>
		<path opacity="0.5" d="M224.7,69.1c-0.9-0.1-1.8-0.2-2.7-0.3l2.8-32.5c4.9,0.4,9.8,1,14.7,1.8c4.9,0.8,9.7,1.9,14.5,3.2
			c-6.9-1.1-22.4-0.9-24.8,0.6C227.2,43.1,225.8,60.8,224.7,69.1z"/>
	</g>
	<g>
		<path fill="#232333" d="M262.9,6.7l-8,30.6c4.9,1.2,9.7,2.8,14.5,4.4c4.8,1.7,9.5,3.6,14.1,5.6l13-28.7
			c-5.4-2.4-10.9-4.7-16.5-6.6C274.3,10,268.6,8.3,262.9,6.7z"/>
		
			<text transform="matrix(0.9429 0.3331 -0.3331 0.9429 263.3959 29.6379)" fill="#FFFFFF" font-family="'RobotoCondensed-Bold'" font-size="20.3885">15</text>
		
			<linearGradient id="SVGID_2_" gradientUnits="userSpaceOnUse" x1="453.6132" y1="323.8219" x2="482.6143" y2="323.8219" gradientTransform="matrix(-0.9612 -0.3396 0.3396 -0.9612 602.526 531.4658)">
			<stop  offset="0" style="stop-color:#505A78"/>
			<stop  offset="0.4385" style="stop-color:#3C3C4B"/>
			<stop  offset="1" style="stop-color:#232333"/>
		</linearGradient>
		<path fill="url(#SVGID_2_)" d="M281.8,51.2l-13.5,29.8c-3.7-1.6-7.3-3.2-11.1-4.5c-3.8-1.3-7.6-2.5-11.5-3.6l8.3-31.6
			c4.7,1.2,9.5,2.7,14.2,4.3C272.8,47.3,277.4,49.1,281.8,51.2z"/>
		<path opacity="0.5" d="M248.3,73.6c-0.9-0.2-1.7-0.5-2.7-0.7l8.3-31.6c4.7,1.2,9.5,2.7,14.2,4.3c4.7,1.6,9.3,3.5,13.8,5.5
			c-6.7-2.2-22-4.7-24.6-3.6C255.3,48.4,250.8,65.5,248.3,73.6z"/>
		
			<rect x="233.5" y="55.6" transform="matrix(0.252 -0.9677 0.9677 0.252 131.566 284.4702)" fill="#AAA" width="32.6" height="3.1"/>
		
			<rect x="233.5" y="56.6" transform="matrix(0.252 -0.9677 0.9677 0.252 131.566 284.4702)" fill="#AAA" width="32.6" height="1"/>
		
			<rect x="243.2" y="21.6" transform="matrix(0.252 -0.9677 0.9677 0.252 172.3477 267.1214)" fill="#FFF" width="31.6" height="1"/>
	</g>
	<g>
		<path fill="#C1272D" d="M296.4,18.7l-13,28.7c4.6,2,9.1,4.3,13.6,6.8c4.5,2.4,8.8,5.1,12.8,8L327.5,36c-4.9-3.3-10-6.4-15.2-9.4
			C307.2,23.8,301.8,21.1,296.4,18.7z"/>
		
			<text transform="matrix(0.873 0.4877 -0.4877 0.873 293.1105 41.1543)" fill="#FFFFFF" font-family="'RobotoCondensed-Bold'" font-size="20.3881">19</text>
		
			<linearGradient id="SVGID_3_" gradientUnits="userSpaceOnUse" x1="241.0865" y1="355.909" x2="270.0876" y2="355.909" gradientTransform="matrix(-0.89 -0.4972 0.4972 -0.89 337.4835 516.0126)">
			<stop  offset="0" style="stop-color:#C1272D"/>
			<stop  offset="0.2941" style="stop-color:#95272D"/>
			<stop  offset="1" style="stop-color:#5A272D"/>
		</linearGradient>
		<path fill="url(#SVGID_3_)" d="M307.6,65.5l-18.2,27c-3.3-2.2-6.7-4.3-10.2-6.3c-3.6-1.9-7.1-3.8-10.7-5.4l13.5-29.8
			c4.5,2,8.9,4.2,13.3,6.6C299.4,60.2,303.6,62.8,307.6,65.5z"/>
		<path opacity="0.5" d="M270.9,82.1c-0.8-0.4-1.6-0.8-2.4-1.1l13.5-29.8c4.5,2,8.9,4.2,13.3,6.6c4.4,2.4,8.6,5,12.6,7.7
			c-6.2-3.4-20.9-8.4-23.5-7.6C281.9,58.4,274.6,74.5,270.9,82.1z"/>
		
			<rect x="258.8" y="64.4" transform="matrix(0.4119 -0.9112 0.9112 0.4119 101.6612 289.4285)" fill="#AAA" width="32.6" height="3.1"/>
		
			<rect x="258.8" y="65.4" transform="matrix(0.4119 -0.9112 0.9112 0.4119 101.6612 289.4285)" fill="#AAA" width="32.6" height="1"/>
		
			<rect x="274.2" y="32.6" transform="matrix(0.4119 -0.9112 0.9112 0.4119 140.398 283.6782)" fill="#FFF" width="31.6" height="1"/>
	</g>
	<g>
		<path fill="#232333" d="M327.5,36l-17.6,26.2c4.2,2.9,8.3,5.8,12.1,9c4,3.2,7.7,6.5,11.4,10l21.8-22.8c-4.3-4.1-8.7-8.1-13.4-11.8
			C337.2,42.8,332.4,39.3,327.5,36z"/>
		
			<text transform="matrix(0.7781 0.6282 -0.6282 0.7781 324.2691 60.744)" fill="#FFFFFF" font-family="'RobotoCondensed-Bold'" font-size="20.3891">4</text>
		
			<linearGradient id="SVGID_4_" gradientUnits="userSpaceOnUse" x1="37.046" y1="423.3345" x2="66.0621" y2="423.3345" gradientTransform="matrix(-0.7932 -0.6404 0.6404 -0.7932 78.8916 456.0441)">
			<stop  offset="0" style="stop-color:#505A78"/>
			<stop  offset="0.4385" style="stop-color:#3C3C4B"/>
			<stop  offset="1" style="stop-color:#232333"/>
		</linearGradient>
		<path fill="url(#SVGID_4_)" d="M330.6,84.1l-22.5,23.5c-2.9-2.8-5.9-5.4-9.1-8c-3.2-2.5-6.4-4.9-9.7-7.1l18.2-27
			c4.1,2.8,8.1,5.7,11.9,8.8C323.4,77.5,327,80.7,330.6,84.1z"/>
		<path opacity="0.5" d="M291.6,94.1c-0.7-0.5-1.5-1-2.2-1.5l18.2-27c4.1,2.8,8.1,5.7,11.9,8.8c3.9,3.2,7.5,6.4,11.1,9.8
			c-5.6-4.4-19.2-11.7-21.9-11.5C306.4,72.7,296.5,87.4,291.6,94.1z"/>
		
			<rect x="282.1" y="77.5" transform="matrix(0.56 -0.8285 0.8285 0.56 65.804 282.0499)" fill="#AAA" width="32.6" height="3.1"/>
		<rect x="282.1" y="78.6" transform="matrix(0.56 -0.8285 0.8285 0.56 65.804 282.0499)" fill="#AAA" width="32.6" height="1"/>
		
			<rect x="302.9" y="48.6" transform="matrix(0.5599 -0.8285 0.8285 0.5599 99.5715 285.6705)" fill="#FFF" width="31.6" height="1"/>
	</g>
	<g>
		<path fill="#C1272D" d="M355.3,58.4l-21.8,22.8c3.6,3.5,7.1,7.1,10.5,10.9c3.4,3.9,6.5,7.7,9.5,11.8l25.4-18.8
			c-3.5-4.7-7.2-9.4-11.2-13.9C363.6,66.8,359.5,62.5,355.3,58.4z"/>
		
			<text transform="matrix(0.6607 0.7506 -0.7506 0.6607 344.5883 78.4978)" fill="#FFFFFF" font-family="'RobotoCondensed-Bold'" font-size="20.3876">21</text>
		
			<linearGradient id="SVGID_5_" gradientUnits="userSpaceOnUse" x1="-152.6734" y1="524.3197" x2="-123.6723" y2="524.3197" gradientTransform="matrix(-0.6735 -0.7652 0.7652 -0.6735 -165.8291 353.1868)">
			<stop  offset="0" style="stop-color:#C1272D"/>
			<stop  offset="0.2941" style="stop-color:#95272D"/>
			<stop  offset="1" style="stop-color:#5A272D"/>
		</linearGradient>
		<path fill="url(#SVGID_5_)" d="M350.2,106.3L324,125.7c-2.3-3.2-4.9-6.3-7.5-9.4c-2.7-3.1-5.5-5.9-8.4-8.7l22.5-23.5
			c3.6,3.4,6.9,6.9,10.2,10.7C344.2,98.6,347.2,102.5,350.2,106.3z"/>
		<path opacity="0.5" d="M310,109.6c-0.6-0.6-1.3-1.2-1.9-1.9l22.5-23.5c3.6,3.4,6.9,6.9,10.2,10.7s6.4,7.5,9.3,11.5
			c-4.8-5.2-16.9-14.8-19.7-15.1C328.3,91,316,103.8,310,109.6z"/>
		
			<rect x="303" y="94.4" transform="matrix(0.6919 -0.722 0.722 0.6919 29.1612 260.1174)" fill="#AAA" width="32.6" height="3.1"/>
		
			<rect x="303" y="95.4" transform="matrix(0.6919 -0.722 0.722 0.6919 29.1612 260.1174)" fill="#AAA" width="32.6" height="1"/>
		
			<rect x="328.5" y="69.3" transform="matrix(0.6919 -0.722 0.722 0.6919 55.7241 270.1074)" fill="#FFF" width="31.6" height="1"/>
	</g>
	<g>
		<path fill="#232333" d="M378.8,85.1l-25.4,18.8c3,4.1,5.8,8.2,8.5,12.5s5.1,8.8,7.3,13.3l28.2-14.3c-2.7-5.3-5.5-10.5-8.7-15.6
			C385.6,94.8,382.3,89.8,378.8,85.1z"/>
		
			<text transform="matrix(0.5244 0.8515 -0.8515 0.5244 367.4221 107.2992)" fill="#FFFFFF" font-family="'RobotoCondensed-Bold'" font-size="20.3888">2</text>
		
			<linearGradient id="SVGID_6_" gradientUnits="userSpaceOnUse" x1="-322.5697" y1="655.8506" x2="-293.5686" y2="655.8506" gradientTransform="matrix(-0.5346 -0.868 0.868 -0.5346 -389.6911 210.4948)">
			<stop  offset="0" style="stop-color:#505A78"/>
			<stop  offset="0.4385" style="stop-color:#3C3C4B"/>
			<stop  offset="1" style="stop-color:#232333"/>
		</linearGradient>
		<path fill="url(#SVGID_6_)" d="M365.7,131.5l-29.2,14.7c-1.8-3.6-3.8-7-5.9-10.5c-2.1-3.5-4.4-6.7-6.7-10l26.2-19.4
			c2.9,4,5.7,8.1,8.3,12.2C361.1,122.8,363.4,127.1,365.7,131.5z"/>
		<path opacity="0.5" d="M325.5,127.9c-0.5-0.7-1-1.4-1.6-2.2l26.2-19.4c2.9,4,5.7,8.1,8.3,12.2c2.7,4.3,5,8.6,7.2,12.9
			c-3.8-5.9-14.2-17.4-16.8-18.2C346.7,112.7,332.4,123.2,325.5,127.9z"/>
		
			<rect x="320.7" y="114.5" transform="matrix(0.804 -0.5947 0.5947 0.804 -2.9432 223.1825)" fill="#AAA" width="32.6" height="3.1"/>
		
			<rect x="320.7" y="115.5" transform="matrix(0.804 -0.5947 0.5947 0.804 -2.9432 223.1825)" fill="#AAA" width="32.6" height="1"/>
		
			<rect x="350.3" y="94" transform="matrix(0.804 -0.5947 0.5947 0.804 15.5343 236.2343)" fill="#FFF" width="31.6" height="1"/>
	</g>
	<g>
		<path fill="#C1272D" d="M397.5,115.4l-28.2,14.3c2.2,4.5,4.4,9.1,6.2,13.8c1.9,4.7,3.6,9.5,5,14.3l30.2-9.3
			c-1.7-5.6-3.7-11.2-5.9-16.8C402.6,126.1,400.1,120.7,397.5,115.4z"/>
		
			<text transform="matrix(0.3729 0.9279 -0.9279 0.3729 380.6898 130.9102)" fill="#FFFFFF" font-family="'RobotoCondensed-Bold'" font-size="20.3889">25</text>
		
			<linearGradient id="SVGID_7_" gradientUnits="userSpaceOnUse" x1="-467.7935" y1="814.3431" x2="-438.8072" y2="814.3431" gradientTransform="matrix(-0.3801 -0.9459 0.9459 -0.3801 -586.2136 31.9782)">
			<stop  offset="0" style="stop-color:#C1272D"/>
			<stop  offset="0.2941" style="stop-color:#95272D"/>
			<stop  offset="1" style="stop-color:#5A272D"/>
		</linearGradient>
		<path fill="url(#SVGID_7_)" d="M376.7,158.9l-31.2,9.6c-1.1-3.8-2.4-7.5-4-11.3c-1.5-3.8-3.2-7.4-5-11l29.2-14.7
			c2.2,4.4,4.3,8.9,6.1,13.5C373.6,149.7,375.2,154.2,376.7,158.9z"/>
		<path opacity="0.5" d="M337.7,148.6c-0.4-0.8-0.8-1.6-1.2-2.4l29.2-14.7c2.2,4.4,4.3,8.9,6.1,13.5c1.8,4.6,3.5,9.3,4.9,14
			c-2.8-6.5-11-19.6-13.6-20.8C361.2,137.2,345.4,145.2,337.7,148.6z"/>
		
			<rect x="334.8" y="137.3" transform="matrix(0.8929 -0.4503 0.4503 0.8929 -24.929 172.9643)" fill="#AAA" width="32.6" height="3.1"/>
		
			<rect x="334.8" y="138.4" transform="matrix(0.8929 -0.4503 0.4503 0.8929 -24.929 172.9643)" fill="#AAA" width="32.6" height="1"/>
		
			<rect x="367.6" y="122.1" transform="matrix(0.8929 -0.4503 0.4503 0.8929 -14.1333 185.7715)" fill="#FFF" width="31.6" height="1"/>
	</g>
	<g>
		<path fill="#232333" d="M410.8,148.5l-30.2,9.3c1.4,4.8,2.8,9.7,3.8,14.7c1.1,5,1.9,10,2.5,14.9l31.3-4
			c-0.7-5.8-1.7-11.7-3.1-17.5C414,159.8,412.5,154.1,410.8,148.5z"/>
		
			<text transform="matrix(0.2108 0.9775 -0.9775 0.2108 391.6754 160.8346)" fill="#FFFFFF" font-family="'RobotoCondensed-Bold'" font-size="20.3878">17</text>
		
			<linearGradient id="SVGID_8_" gradientUnits="userSpaceOnUse" x1="-584.1624" y1="994.9908" x2="-555.1613" y2="994.9908" gradientTransform="matrix(-0.2149 -0.9965 0.9965 -0.2149 -749.7 -177.1246)">
			<stop  offset="0" style="stop-color:#505A78"/>
			<stop  offset="0.4385" style="stop-color:#3C3C4B"/>
			<stop  offset="1" style="stop-color:#232333"/>
		</linearGradient>
		<path fill="url(#SVGID_8_)" d="M382.9,187.9l-32.3,4.2c-0.5-4-1.2-7.8-2-11.8c-0.8-4-1.8-7.8-3.1-11.6l31.2-9.6
			c1.4,4.7,2.7,9.5,3.8,14.3C381.5,178.1,382.3,183,382.9,187.9z"/>
		<path opacity="0.5" d="M346.3,171.1c-0.2-0.9-0.5-1.7-0.8-2.7l31.2-9.6c1.4,4.7,2.7,9.5,3.8,14.3c1,4.9,1.8,9.7,2.5,14.6
			c-1.6-6.8-7.5-21.2-9.8-22.7C371.3,163.8,354.3,169,346.3,171.1z"/>
		
			<rect x="344.8" y="162.2" transform="matrix(0.9561 -0.2929 0.2929 0.9561 -32.1206 112.9501)" fill="#AAA" width="32.6" height="3.1"/>
		
			<rect x="344.8" y="163.2" transform="matrix(0.9561 -0.2929 0.2929 0.9561 -32.1206 112.9501)" fill="#AAA" width="32.6" height="1"/>
		
			<rect x="379.9" y="152.6" transform="matrix(0.9561 -0.2929 0.2929 0.9561 -27.49 122.6325)" fill="#FFF" width="31.6" height="1"/>
	</g>
	<g>
		<path fill="#C1272D" d="M418.3,183.3l-31.3,4c0.6,5,1.1,10,1.3,15.1c0.2,5.1,0.2,10.1,0,15.2l31.6,1.3c0.2-5.9,0.3-11.8,0-17.8
			C419.6,195.1,419.1,189.1,418.3,183.3z"/>
		
			<text transform="matrix(4.255974e-002 0.9991 -0.9991 4.255974e-002 397.397 192.2583)" fill="#FFFFFF" font-family="'RobotoCondensed-Bold'" font-size="20.3885">34</text>
		
			<linearGradient id="SVGID_9_" gradientUnits="userSpaceOnUse" x1="-668.3255" y1="1192.6489" x2="-639.3244" y2="1192.6489" gradientTransform="matrix(-4.338206e-002 -1.0185 1.0185 -4.338206e-002 -875.5446 -410.8875)">
			<stop  offset="0" style="stop-color:#C1272D"/>
			<stop  offset="0.2941" style="stop-color:#95272D"/>
			<stop  offset="1" style="stop-color:#5A272D"/>
		</linearGradient>
		<path fill="url(#SVGID_9_)" d="M384.1,217.3l-32.6-1.4c0.2-4,0.2-8,0-12c-0.2-4.1-0.5-8.1-1-12l32.3-4.2c0.6,4.9,1,9.8,1.2,14.8
			C384.4,207.6,384.3,212.4,384.1,217.3z"/>
		<path opacity="0.5" d="M350.9,194.7c-0.1-0.9-0.2-1.8-0.3-2.7l32.3-4.2c0.6,4.9,1,9.8,1.2,14.8c0.2,5,0.2,9.9,0,14.8
			c-0.4-7-3.9-22.1-5.8-24.2C376.8,191.8,359.2,194,350.9,194.7z"/>
		
			<rect x="350.5" y="188.4" transform="matrix(0.9919 -0.1271 0.1271 0.9919 -21.1622 48.1554)" fill="#AAA" width="32.6" height="3.1"/>
		
			<rect x="350.5" y="189.4" transform="matrix(0.9919 -0.1271 0.1271 0.9919 -21.1622 48.1554)" fill="#AAA" width="32.6" height="1"/>
		
			<rect x="386.8" y="184.8" transform="matrix(0.9919 -0.1271 0.1271 0.9919 -20.2857 52.669)" fill="#FFF" width="31.6" height="1"/>
	</g>
	<g>
		<path fill="#232333" d="M419.8,218.9l-31.6-1.3c-0.2,5-0.6,10-1.3,15.1c-0.6,5.1-1.5,10-2.5,14.9l30.9,6.6
			c1.2-5.8,2.2-11.6,3.1-17.5C419.1,230.7,419.6,224.8,419.8,218.9z"/>
		
			<text transform="matrix(-0.1269 0.9919 -0.9919 -0.1269 397.0002 229.0472)" fill="#FFFFFF" font-family="'RobotoCondensed-Bold'" font-size="20.388">6</text>
		
			<linearGradient id="SVGID_10_" gradientUnits="userSpaceOnUse" x1="-717.8549" y1="1401.9326" x2="-688.8538" y2="1401.9326" gradientTransform="matrix(0.1294 -1.0112 1.0112 0.1294 -960.0514 -662.5464)">
			<stop  offset="0" style="stop-color:#505A78"/>
			<stop  offset="0.4385" style="stop-color:#3C3C4B"/>
			<stop  offset="1" style="stop-color:#232333"/>
		</linearGradient>
		<path fill="url(#SVGID_10_)" d="M380.4,246.7l-31.9-6.8c0.8-3.9,1.5-7.8,2-11.8c0.5-4,0.8-8.1,1-12l32.6,1.4
			c-0.2,4.9-0.6,9.8-1.2,14.8C382.3,237,381.5,241.9,380.4,246.7z"/>
		<path opacity="0.5" d="M351.4,218.7c0.1-0.9,0.1-1.8,0.1-2.8l32.6,1.4c-0.2,4.9-0.6,9.8-1.2,14.8c-0.6,4.9-1.4,9.8-2.5,14.6
			c0.8-7-0.1-22.5-1.6-24.8C377.5,220.2,359.8,219.4,351.4,218.7z"/>
		
			<rect x="351.5" y="215.1" transform="matrix(0.9991 4.234077e-002 -4.234077e-002 0.9991 9.503 -15.3798)" fill="#AAA" width="32.6" height="3.1"/>
		
			<rect x="351.5" y="216.1" transform="matrix(0.9991 4.234077e-002 -4.234077e-002 0.9991 9.503 -15.3798)" fill="#AAA" width="32.6" height="1"/>
		
			<rect x="388.3" y="217.7" transform="matrix(0.9991 4.231629e-002 -4.231629e-002 0.9991 9.5948 -16.9026)" fill="#FFF" width="31.6" height="1"/>
	</g>
	<g>
		<path fill="#C1272D" d="M415.3,254.2l-30.9-6.6c-1,4.9-2.3,9.8-3.8,14.7c-1.5,4.9-3.2,9.6-5,14.3l29.4,11.8
			c2.1-5.5,4.2-11.1,5.9-16.8C412.6,265.8,414.1,260,415.3,254.2z"/>
		
			<text transform="matrix(-0.2927 0.9562 -0.9562 -0.2927 392.5114 255.6802)" fill="#FFFFFF" font-family="'RobotoCondensed-Bold'" font-size="20.3883">27</text>
		
			<linearGradient id="SVGID_11_" gradientUnits="userSpaceOnUse" x1="-731.3467" y1="1616.355" x2="-702.3717" y2="1616.355" gradientTransform="matrix(0.2984 -0.9748 0.9748 0.2984 -1000.8292 -924.866)">
			<stop  offset="0" style="stop-color:#C1272D"/>
			<stop  offset="0.2941" style="stop-color:#95272D"/>
			<stop  offset="1" style="stop-color:#5A272D"/>
		</linearGradient>
		<path fill="url(#SVGID_11_)" d="M371.8,274.9l-30.3-12.1c1.4-3.7,2.9-7.4,4-11.3c1.2-3.9,2.1-7.7,3.1-11.6l31.9,6.8
			c-1,4.8-2.2,9.6-3.8,14.3C375.2,265.8,373.6,270.5,371.8,274.9z"/>
		<path opacity="0.5" d="M347.9,242.5c0.2-0.9,0.4-1.7,0.6-2.7l31.9,6.8c-1,4.8-2.2,9.6-3.8,14.3c-1.4,4.8-3.2,9.4-4.9,14
			c1.9-6.7,3.8-22.2,2.5-24.7C373.3,248.3,356.1,244.6,347.9,242.5z"/>
		
			<rect x="348.2" y="241.8" transform="matrix(0.9776 0.2106 -0.2106 0.9776 59.4107 -71.3015)" fill="#AAA" width="32.6" height="3.1"/>
		
			<rect x="348.2" y="242.8" transform="matrix(0.9776 0.2106 -0.2106 0.9776 59.4107 -71.3015)" fill="#AAA" width="32.6" height="1"/>
		
			<rect x="384" y="250.4" transform="matrix(0.9776 0.2105 -0.2105 0.9776 61.7778 -78.5458)" fill="#FFF" width="31.6" height="1"/>
	</g>
	<g>
		<path fill="#232333" d="M404.9,288.3l-29.4-11.8c-1.8,4.7-4,9.3-6.2,13.8c-2.3,4.6-4.8,9-7.3,13.3l26.9,16.5
			c3.1-5,6-10.2,8.7-15.6C400.2,299.2,402.7,293.7,404.9,288.3z"/>
		
			<text transform="matrix(-0.4501 0.893 -0.893 -0.4501 382.2131 285.8011)" fill="#FFFFFF" font-family="'RobotoCondensed-Bold'" font-size="20.3887">13</text>
		
			<linearGradient id="SVGID_12_" gradientUnits="userSpaceOnUse" x1="-708.3921" y1="1829.929" x2="-679.391" y2="1829.929" gradientTransform="matrix(0.4588 -0.9103 0.9103 0.4588 -996.6937 -1190.3114)">
			<stop  offset="0" style="stop-color:#505A78"/>
			<stop  offset="0.4385" style="stop-color:#3C3C4B"/>
			<stop  offset="1" style="stop-color:#232333"/>
		</linearGradient>
		<path fill="url(#SVGID_12_)" d="M358.4,301.3l-27.8-17.1c2-3.4,4.1-6.9,5.9-10.5c1.8-3.6,3.5-7.2,5-11l30.3,12.1
			c-1.8,4.6-3.9,9.1-6.1,13.5C363.4,292.9,361,297.2,358.4,301.3z"/>
		<path opacity="0.5" d="M340.5,265.4c0.3-0.8,0.7-1.6,1-2.5l30.3,12.1c-1.8,4.6-3.9,9.1-6.1,13.5c-2.2,4.5-4.7,8.8-7.2,12.9
			c3.1-6.3,7.4-21.2,6.6-23.9C364.5,275.3,348.1,268.8,340.5,265.4z"/>
		
			<rect x="340.4" y="267.4" transform="matrix(0.9279 0.3727 -0.3727 0.9279 125.925 -113.5584)" fill="#AAA" width="32.6" height="3.1"/>
		
			<rect x="340.4" y="268.4" transform="matrix(0.9279 0.3727 -0.3727 0.9279 125.925 -113.5584)" fill="#AAA" width="32.6" height="1"/>
		
			<rect x="374.4" y="281.9" transform="matrix(0.9279 0.3727 -0.3727 0.9279 133.3693 -125.0812)" fill="#FFF" width="31.6" height="1"/>
	</g>
	<g>
		<path fill="#C1272D" d="M388.8,320.1l-26.9-16.6c-2.7,4.3-5.4,8.5-8.5,12.5c-3.1,4.1-6.2,8.1-9.5,11.8l23.8,20.9
			c3.9-4.4,7.6-9.1,11.2-13.9C382.4,330,385.7,325.1,388.8,320.1z"/>
		
			<text transform="matrix(-0.5945 0.8041 -0.8041 -0.5945 366.8648 313.9064)" fill="#FFFFFF" font-family="'RobotoCondensed-Bold'" font-size="20.3884">36</text>
		
			<linearGradient id="SVGID_13_" gradientUnits="userSpaceOnUse" x1="-649.6583" y1="2036.8115" x2="-620.6381" y2="2036.8115" gradientTransform="matrix(0.606 -0.8197 0.8197 0.606 -947.7562 -1451.2161)">
			<stop  offset="0" style="stop-color:#C1272D"/>
			<stop  offset="0.2941" style="stop-color:#95272D"/>
			<stop  offset="1" style="stop-color:#5A272D"/>
		</linearGradient>
		<path fill="url(#SVGID_13_)" d="M340.9,325.2l-24.5-21.5c2.7-3,5.1-6.1,7.5-9.4s4.7-6.6,6.7-10l27.8,17.1
			c-2.5,4.2-5.3,8.3-8.3,12.2C347.2,317.7,344.1,321.4,340.9,325.2z"/>
		<path opacity="0.5" d="M329.3,286.6c0.5-0.7,1-1.5,1.4-2.2l27.8,17.1c-2.5,4.2-5.3,8.3-8.3,12.2c-3,4-6.1,7.8-9.3,11.5
			c4.1-5.7,10.9-19.7,10.6-22.4C351.3,300.5,336.2,291.2,329.3,286.6z"/>
		
			<rect x="328.2" y="291.3" transform="matrix(0.8516 0.5242 -0.5242 0.8516 204.6486 -137.144)" fill="#AAA" width="32.6" height="3.1"/>
		
			<rect x="328.2" y="292.4" transform="matrix(0.8516 0.5242 -0.5242 0.8516 204.6486 -137.144)" fill="#AAA" width="32.6" height="1"/>
		
			<rect x="359.6" y="311.3" transform="matrix(0.8516 0.5242 -0.5242 0.8516 219.1439 -150.5399)" fill="#FFF" width="31.6" height="1"/>
	</g>
	<g>
		<path fill="#232333" d="M367.7,348.7L344,327.8c-3.3,3.8-6.8,7.4-10.5,10.9c-3.7,3.6-7.4,6.8-11.4,10l19.9,24.6
			c4.6-3.7,9.1-7.6,13.4-11.8C359.7,357.4,363.7,353.1,367.7,348.7z"/>
		
			<text transform="matrix(-0.7218 0.6921 -0.6921 -0.7218 347.0981 338.9326)" fill="#FFFFFF" font-family="'RobotoCondensed-Bold'" font-size="20.3883">11</text>
		
			<linearGradient id="SVGID_14_" gradientUnits="userSpaceOnUse" x1="-556.8347" y1="2230.6006" x2="-527.8336" y2="2230.6006" gradientTransform="matrix(0.7358 -0.7055 0.7055 0.7358 -855.4427 -1700.0986)">
			<stop  offset="0" style="stop-color:#505A78"/>
			<stop  offset="0.4385" style="stop-color:#3C3C4B"/>
			<stop  offset="1" style="stop-color:#232333"/>
		</linearGradient>
		<path fill="url(#SVGID_14_)" d="M319.6,345.6l-20.5-25.4c3.1-2.5,6.1-5.1,9.1-8c3-2.8,5.7-5.7,8.4-8.7l24.5,21.5
			c-3.3,3.7-6.6,7.2-10.2,10.7C327,339.3,323.4,342.5,319.6,345.6z"/>
		<path opacity="0.5" d="M314.6,305.6c0.6-0.7,1.2-1.3,1.8-2l24.5,21.5c-3.3,3.7-6.6,7.2-10.2,10.7s-7.3,6.7-11.1,9.8
			c5-5,14.1-17.5,14.3-20.3C334,323.2,320.6,311.4,314.6,305.6z"/>
		
			<rect x="312.3" y="312.8" transform="matrix(0.7508 0.6606 -0.6606 0.7508 289.5339 -138.7362)" fill="#AAA" width="32.6" height="3.1"/>
		
			<rect x="312.3" y="313.8" transform="matrix(0.7508 0.6606 -0.6606 0.7508 289.5339 -138.7362)" fill="#AAA" width="32.6" height="1"/>
		
			<rect x="340" y="337.8" transform="matrix(0.7508 0.6605 -0.6605 0.7508 312.1256 -150.6862)" fill="#FFF" width="31.6" height="1"/>
	</g>
	<g>
		<path fill="#C1272D" d="M341.9,373.4l-19.8-24.7c-3.9,3.2-8,6.1-12.1,9c-4.2,2.9-8.6,5.5-12.8,8l15.4,27.6
			c5.1-2.9,10.2-6,15.2-9.4C332.6,380.7,337.3,377.1,341.9,373.4z"/>
		
			<text transform="matrix(-0.8284 0.5601 -0.5601 -0.8284 323.3863 360.2002)" fill="#FFFFFF" font-family="'RobotoCondensed-Bold'" font-size="20.3879">30</text>
		
			<linearGradient id="SVGID_15_" gradientUnits="userSpaceOnUse" x1="-432.5879" y1="2405.9958" x2="-403.5868" y2="2405.9958" gradientTransform="matrix(0.8445 -0.571 0.571 0.8445 -722.3563 -1929.8265)">
			<stop  offset="0" style="stop-color:#C1272D"/>
			<stop  offset="0.2941" style="stop-color:#95272D"/>
			<stop  offset="1" style="stop-color:#5A272D"/>
		</linearGradient>
		<path fill="url(#SVGID_15_)" d="M295,362.2l-15.9-28.4c3.5-1.9,6.9-4.1,10.2-6.3c3.4-2.2,6.5-4.7,9.7-7.1l20.5,25.4
			c-3.8,3.1-7.7,6-11.9,8.8C303.5,357.2,299.3,359.8,295,362.2z"/>
		<path opacity="0.5" d="M297,321.9c0.7-0.5,1.4-1.1,2.1-1.6l20.5,25.4c-3.8,3.1-7.7,6-11.9,8.8c-4.1,2.8-8.4,5.4-12.6,7.7
			c5.8-4.1,16.8-14.9,17.4-17.6C313.1,342.4,301.8,328.7,297,321.9z"/>
		
			<rect x="293" y="331.4" transform="matrix(0.6283 0.7779 -0.7779 0.6283 373.9555 -116.883)" fill="#AAA" width="32.6" height="3.1"/>
		
			<rect x="293" y="332.4" transform="matrix(0.6283 0.7779 -0.7779 0.6283 373.9555 -116.883)" fill="#AAA" width="32.6" height="1"/>
		
			<rect x="316.2" y="360.6" transform="matrix(0.6284 0.7779 -0.7779 0.6284 404.2455 -124.0984)" fill="#FFF" width="31.6" height="1"/>
	</g>
	<g>
		<path fill="#232333" d="M312.5,393.3l-15.4-27.6c-4.4,2.4-8.9,4.7-13.6,6.8c-4.7,2.1-9.4,4-14.1,5.6l10.5,29.8
			c5.5-1.9,11.1-4.2,16.5-6.6C302.1,398.9,307.3,396.1,312.5,393.3z"/>
		
			<text transform="matrix(-0.9111 0.4121 -0.4121 -0.9111 291.8969 379.2691)" fill="#FFFFFF" font-family="'RobotoCondensed-Bold'" font-size="20.3876">8</text>
		
			<linearGradient id="SVGID_16_" gradientUnits="userSpaceOnUse" x1="-280.5018" y1="2557.7322" x2="-251.5007" y2="2557.7322" gradientTransform="matrix(0.9288 -0.4201 0.4201 0.9288 -552.4124 -2133.7344)">
			<stop  offset="0" style="stop-color:#505A78"/>
			<stop  offset="0.4385" style="stop-color:#3C3C4B"/>
			<stop  offset="1" style="stop-color:#232333"/>
		</linearGradient>
		<path fill="url(#SVGID_16_)" d="M268.1,374.3l-10.9-30.8c3.8-1.3,7.4-2.9,11.1-4.5c3.7-1.6,7.2-3.5,10.7-5.4l15.9,28.4
			c-4.3,2.3-8.7,4.6-13.3,6.6C277.3,370.9,272.7,372.7,268.1,374.3z"/>
		<path opacity="0.5" d="M276.8,335c0.8-0.4,1.6-0.8,2.3-1.3l15.9,28.4c-4.3,2.3-8.7,4.6-13.3,6.6c-4.6,2-9.1,3.9-13.8,5.5
			c6.4-3.1,19.1-11.8,20.2-14.4C289.2,357.9,280.5,342.5,276.8,335z"/>
		
			<rect x="270.8" y="346.4" transform="matrix(0.4878 0.8729 -0.8729 0.4878 450.8035 -72.3962)" fill="#AAA" width="32.6" height="3.1"/>
		
			<rect x="270.8" y="347.5" transform="matrix(0.4878 0.8729 -0.8729 0.4878 450.8035 -72.3962)" fill="#AAA" width="32.6" height="1"/>
		
			<rect x="289" y="379" transform="matrix(0.4879 0.8729 -0.8729 0.4879 487.3649 -71.6549)" fill="#FFF" width="31.6" height="1"/>
	</g>
	<g>
		<path fill="#C1272D" d="M280,408l-10.6-29.8c-4.7,1.6-9.6,3.2-14.5,4.5c-4.9,1.3-9.9,2.3-14.8,3.2l5.3,31.2
			c5.8-1,11.6-2.2,17.4-3.8C268.7,411.7,274.4,409.9,280,408z"/>
		
			<text transform="matrix(-0.9677 0.2522 -0.2522 -0.9677 266.7998 389.3856)" fill="#FFFFFF" font-family="'RobotoCondensed-Bold'" font-size="20.3888">23</text>
		
			<linearGradient id="SVGID_17_" gradientUnits="userSpaceOnUse" x1="-104.9409" y1="2681.6438" x2="-75.9398" y2="2681.6438" gradientTransform="matrix(0.9865 -0.2571 0.2571 0.9865 -350.4316 -2306.0339)">
			<stop  offset="0" style="stop-color:#C1272D"/>
			<stop  offset="0.2941" style="stop-color:#95272D"/>
			<stop  offset="1" style="stop-color:#5A272D"/>
		</linearGradient>
		<path fill="url(#SVGID_17_)" d="M239.5,381.8l-5.5-32.1c3.9-0.7,7.8-1.5,11.7-2.5c3.9-1,7.7-2.2,11.5-3.6l10.9,30.8
			c-4.6,1.6-9.3,3.1-14.2,4.4C249.1,379.9,244.4,381,239.5,381.8z"/>
		<path opacity="0.5" d="M254.7,344.5c0.8-0.3,1.7-0.6,2.5-0.9l10.9,30.8c-4.6,1.6-9.3,3.1-14.2,4.4c-4.8,1.2-9.7,2.2-14.5,3.2
			c6.8-1.9,20.8-8.5,22.3-10.8C263,369.2,257.1,352.5,254.7,344.5z"/>
		
			<rect x="246.3" y="357.4" transform="matrix(0.3333 0.9428 -0.9428 0.3333 513.5253 -8.2886)" fill="#AAA" width="32.6" height="3.1"/>
		
			<rect x="246.3" y="358.5" transform="matrix(0.3333 0.9428 -0.9428 0.3333 513.5253 -8.2886)" fill="#AAA" width="32.6" height="1"/>
		
			<rect x="258.9" y="392.6" transform="matrix(0.3333 0.9428 -0.9428 0.3333 553.7959 3.0577)" fill="#FFF" width="31.6" height="1"/>
	</g>
	<g>
		<path fill="#232333" d="M245.6,416.9l-5.3-31.2c-4.9,0.8-9.9,1.5-15,1.9c-5.1,0.4-10.1,0.6-15.1,0.6v31.6c5.9,0,11.8-0.2,17.8-0.7
			C233.9,418.8,239.8,418,245.6,416.9z"/>
		
			<text transform="matrix(-0.9964 8.502816e-002 -8.502816e-002 -0.9964 235.7217 396.3515)" fill="#FFFFFF" font-family="'RobotoCondensed-Bold'" font-size="20.3888">10</text>
		
			<linearGradient id="SVGID_18_" gradientUnits="userSpaceOnUse" x1="89.0415" y1="2774.1343" x2="118.0488" y2="2774.1343" gradientTransform="matrix(1.0157 -8.668550e-002 8.668550e-002 1.0157 -122.2389 -2441.6953)">
			<stop  offset="0" style="stop-color:#505A78"/>
			<stop  offset="0.4385" style="stop-color:#3C3C4B"/>
			<stop  offset="1" style="stop-color:#232333"/>
		</linearGradient>
		<path fill="url(#SVGID_18_)" d="M210,384.3v-32.6c4,0,8-0.2,12-0.5s8.1-0.8,11.9-1.5l5.5,32.1c-4.8,0.8-9.7,1.4-14.7,1.8
			C219.9,384.1,214.9,384.3,210,384.3z"/>
		<path opacity="0.5" d="M231.3,350.1c0.9-0.1,1.8-0.3,2.7-0.4l5.5,32.1c-4.8,0.8-9.7,1.4-14.7,1.8c-5,0.4-9.9,0.6-14.8,0.6
			c7-0.7,22-4.8,23.9-6.8C235.4,375.9,232.3,358.4,231.3,350.1z"/>
		
			<rect x="220.5" y="364.2" transform="matrix(0.1692 0.9856 -0.9856 0.1692 557.196 70.494)" fill="#AAA" width="32.6" height="3.1"/>
		
			<rect x="220.5" y="365.2" transform="matrix(0.1692 0.9856 -0.9856 0.1692 557.196 70.494)" fill="#AAA" width="32.6" height="1"/>
		
			<rect x="227.1" y="400.9" transform="matrix(0.1692 0.9856 -0.9856 0.1692 597.467 94.0805)" fill="#FFF" width="31.6" height="1"/>
	</g>
	<g>
		<path fill="#C1272D" d="M210,420v-31.6c-5,0-10.1-0.2-15.1-0.6c-5.1-0.4-10.1-1.1-15-1.9l-5.3,31.2c5.8,1,11.7,1.7,17.6,2.2
			C198.2,419.8,204.2,420,210,420z"/>
		
			<text transform="matrix(-0.9964 -8.456154e-002 8.456154e-002 -0.9964 198.9154 397.6722)" fill="#FFFFFF" font-family="'RobotoCondensed-Bold'" font-size="20.388">5</text>
		
			<linearGradient id="SVGID_19_" gradientUnits="userSpaceOnUse" x1="295.8659" y1="2832.6597" x2="324.8743" y2="2832.6597" gradientTransform="matrix(1.0157 8.620685e-002 -8.620685e-002 1.0157 125.5918 -2536.8274)">
			<stop  offset="0" style="stop-color:#C1272D"/>
			<stop  offset="0.2941" style="stop-color:#95272D"/>
			<stop  offset="1" style="stop-color:#5A272D"/>
		</linearGradient>
		<path fill="url(#SVGID_19_)" d="M180.5,381.8l5.5-32.1c3.9,0.7,7.8,1.2,11.9,1.5c4.1,0.3,8.1,0.5,12,0.5v32.6
			c-4.9,0-9.8-0.2-14.8-0.6C190.3,383.3,185.4,382.7,180.5,381.8z"/>
		<path opacity="0.5" d="M207.3,351.7c0.9,0,1.8,0,2.8,0v32.6c-4.9,0-9.8-0.2-14.8-0.6c-5-0.4-9.9-1-14.7-1.8c7,0.5,22.4-1,24.7-2.8
			C206.9,377.8,206.9,360.1,207.3,351.7z"/>
		
			<rect x="193.7" y="366.5" transform="matrix(2.152483e-004 1 -1 2.152483e-004 578.0366 157.9292)" fill="#AAA" width="32.6" height="3.1"/>
		
			<rect x="193.7" y="367.5" transform="matrix(2.152483e-004 1 -1 2.152483e-004 578.0366 157.9292)" fill="#AAA" width="32.6" height="1"/>
		
			<rect x="194.2" y="403.7" transform="matrix(2.399246e-004 1 -1 2.399246e-004 614.2366 194.0996)" fill="#FFF" width="31.6" height="1"/>
	</g>
	<g>
		<path fill="#232333" d="M174.5,416.9l5.3-31.2c-4.9-0.8-9.9-1.9-14.8-3.2c-4.9-1.3-9.8-2.8-14.5-4.4L140.1,408
			c5.6,1.9,11.2,3.7,17,5.2C162.9,414.7,168.7,416,174.5,416.9z"/>
		
			<text transform="matrix(-0.9678 -0.2517 0.2517 -0.9678 172.1021 394.3036)" fill="#FFFFFF" font-family="'RobotoCondensed-Bold'" font-size="20.3882">24</text>
		
			<linearGradient id="SVGID_20_" gradientUnits="userSpaceOnUse" x1="509.5831" y1="2855.1626" x2="538.5842" y2="2855.1626" gradientTransform="matrix(0.9866 0.2566 -0.2566 0.9866 385.924 -2588.7366)">
			<stop  offset="0" style="stop-color:#505A78"/>
			<stop  offset="0.4385" style="stop-color:#3C3C4B"/>
			<stop  offset="1" style="stop-color:#232333"/>
		</linearGradient>
		<path fill="url(#SVGID_20_)" d="M152,374.3l10.9-30.8c3.8,1.3,7.5,2.5,11.5,3.6c3.9,1,7.8,1.8,11.7,2.5l-5.5,32.1
			c-4.8-0.8-9.7-1.8-14.5-3.2C161.3,377.5,156.6,376,152,374.3z"/>
		<path opacity="0.5" d="M183.4,349.2c0.9,0.2,1.7,0.3,2.7,0.5l-5.5,32.1c-4.8-0.8-9.7-1.8-14.5-3.2c-4.8-1.2-9.6-2.8-14.2-4.3
			c6.8,1.6,22.3,2.8,24.8,1.5C178.7,374.8,181.7,357.4,183.4,349.2z"/>
		
			<rect x="167.1" y="364.3" transform="matrix(-0.1688 0.9857 -0.9857 -0.1688 574.8643 246.7908)" fill="#AAA" width="32.6" height="3.1"/>
		
			<rect x="167.1" y="365.3" transform="matrix(-0.1688 0.9857 -0.9857 -0.1688 574.8643 246.7908)" fill="#AAA" width="32.6" height="1"/>
		
			<rect x="161.5" y="400.9" transform="matrix(-0.1688 0.9857 -0.9857 -0.1688 602.8409 294.3802)" fill="#FFF" width="31.6" height="1"/>
	</g>
	<g>
		<path fill="#C1272D" d="M140.1,408l10.5-29.8c-4.7-1.6-9.4-3.6-14.1-5.6c-4.7-2.1-9.2-4.4-13.6-6.8l-15.4,27.6
			c5.2,2.9,10.5,5.5,15.9,8.1C129.1,403.9,134.6,406,140.1,408z"/>
		
			<text transform="matrix(-0.9113 -0.4117 0.4117 -0.9113 141.5457 385.2368)" fill="#FFFFFF" font-family="'RobotoCondensed-Bold'" font-size="20.388">16</text>
		
			<linearGradient id="SVGID_21_" gradientUnits="userSpaceOnUse" x1="724.0458" y1="2841.4668" x2="753.0469" y2="2841.4668" gradientTransform="matrix(0.929 0.4197 -0.4197 0.929 651.3275 -2595.8772)">
			<stop  offset="0" style="stop-color:#C1272D"/>
			<stop  offset="0.2941" style="stop-color:#95272D"/>
			<stop  offset="1" style="stop-color:#5A272D"/>
		</linearGradient>
		<path fill="url(#SVGID_21_)" d="M125,362.2l15.9-28.4c3.5,1.9,7,3.8,10.7,5.4c3.7,1.6,7.4,3.2,11.1,4.5l-10.9,30.8
			c-4.6-1.6-9.2-3.5-13.8-5.5C133.7,366.8,129.3,364.5,125,362.2z"/>
		<path opacity="0.5" d="M160.3,342.7c0.8,0.3,1.7,0.6,2.5,0.9l-10.9,30.8c-4.6-1.6-9.2-3.5-13.8-5.5c-4.6-2-9-4.3-13.3-6.6
			c6.5,2.8,21.5,6.5,24.2,5.6C151.3,367.2,157.2,350.5,160.3,342.7z"/>
		
			<rect x="141.1" y="357.5" transform="matrix(-0.3329 0.943 -0.943 -0.3329 548.3907 330.0355)" fill="#AAA" width="32.6" height="3.1"/>
		
			<rect x="141.1" y="358.5" transform="matrix(-0.3329 0.943 -0.943 -0.3329 548.3907 330.0355)" fill="#AAA" width="32.6" height="1"/>
		
			<rect x="129.5" y="392.6" transform="matrix(-0.3329 0.943 -0.943 -0.3329 564.3956 386.8972)" fill="#FFF" width="31.6" height="1"/>
	</g>
	<g>
		<path fill="#232333" d="M107.7,393.4l15.4-27.6c-4.4-2.4-8.7-5.1-12.8-8c-4.2-2.9-8.3-5.9-12.1-9l-19.9,24.6
			c4.6,3.7,9.4,7.2,14.4,10.6C97.5,387.4,102.5,390.4,107.7,393.4z"/>
		
			<text transform="matrix(-0.8287 -0.5597 0.5597 -0.8287 112.8547 371.1718)" fill="#FFFFFF" font-family="'RobotoCondensed-Bold'" font-size="20.3884">33</text>
		
			<linearGradient id="SVGID_22_" gradientUnits="userSpaceOnUse" x1="933.0851" y1="2791.5652" x2="962.0862" y2="2791.5652" gradientTransform="matrix(0.8448 0.5706 -0.5706 0.8448 914.056 -2558.1191)">
			<stop  offset="0" style="stop-color:#505A78"/>
			<stop  offset="0.4385" style="stop-color:#3C3C4B"/>
			<stop  offset="1" style="stop-color:#232333"/>
		</linearGradient>
		<path fill="url(#SVGID_22_)" d="M100.5,345.7l20.5-25.4c3.1,2.4,6.3,4.9,9.7,7.1c3.4,2.2,6.7,4.4,10.2,6.3L125,362.2
			c-4.3-2.3-8.5-5-12.6-7.7C108.3,351.7,104.4,348.7,100.5,345.7z"/>
		<path opacity="0.5" d="M138.5,332.3c0.8,0.4,1.5,0.9,2.3,1.3L125,362.1c-4.3-2.3-8.5-5-12.6-7.7c-4.1-2.8-8.1-5.7-11.9-8.8
			c5.9,3.9,20.1,10.1,22.8,9.7C125.6,355,134.2,339.6,138.5,332.3z"/>
		
			<rect x="116.6" y="346.5" transform="matrix(-0.4875 0.8731 -0.8731 -0.4875 501.5536 401.6049)" fill="#AAA" width="32.6" height="3.1"/>
		
			<rect x="116.6" y="347.5" transform="matrix(-0.4875 0.8731 -0.8731 -0.4875 501.5536 401.6049)" fill="#AAA" width="32.6" height="1"/>
		
			<rect x="99.5" y="379.1" transform="matrix(-0.4875 0.8731 -0.8731 -0.4875 502.911 464.0186)" fill="#FFF" width="31.6" height="1"/>
	</g>
	<g>
		<path fill="#C1272D" d="M78.1,373.4L98,348.8c-3.9-3.2-7.6-6.4-11.4-10c-3.7-3.6-7.1-7.1-10.5-10.9l-23.8,20.9
			c3.9,4.4,8.1,8.8,12.3,12.8C69.1,365.8,73.5,369.7,78.1,373.4z"/>
		
			<text transform="matrix(-0.7222 -0.6917 0.6917 -0.7222 83.5492 349.0447)" fill="#FFFFFF" font-family="'RobotoCondensed-Bold'" font-size="20.3886">1</text>
		
			<linearGradient id="SVGID_23_" gradientUnits="userSpaceOnUse" x1="1130.6885" y1="2706.9814" x2="1159.6896" y2="2706.9814" gradientTransform="matrix(0.7362 0.7051 -0.7051 0.7362 1166.6625 -2476.4724)">
			<stop  offset="0" style="stop-color:#C1272D"/>
			<stop  offset="0.2941" style="stop-color:#95272D"/>
			<stop  offset="1" style="stop-color:#5A272D"/>
		</linearGradient>
		<path fill="url(#SVGID_23_)" d="M79.2,325.2l24.5-21.5c2.7,3,5.4,5.9,8.4,8.7c3,2.8,5.9,5.4,9.1,8l-20.5,25.4
			c-3.8-3.1-7.5-6.3-11.1-9.8C85.8,332.4,82.4,328.9,79.2,325.2z"/>
		<path opacity="0.5" d="M119,318.6c0.7,0.6,1.4,1.1,2.1,1.7l-20.5,25.4c-3.8-3.1-7.5-6.3-11.1-9.8c-3.6-3.5-7-7-10.2-10.7
			c5.2,4.8,18.1,13.4,20.9,13.4C102.2,338.7,113.4,324.9,119,318.6z"/>
		
			<rect x="94.5" y="331.4" transform="matrix(-0.628 0.7782 -0.7782 -0.628 439.4204 455.7814)" fill="#AAA" width="32.6" height="3.1"/>
		
			<rect x="94.5" y="332.4" transform="matrix(-0.628 0.7782 -0.7782 -0.628 439.4204 455.7814)" fill="#AAA" width="32.6" height="1"/>
		
			<rect x="72.2" y="360.6" transform="matrix(-0.628 0.7782 -0.7782 -0.628 424.2884 519.3315)" fill="#FFF" width="31.6" height="1"/>
	</g>
	<g>
		<path fill="#232333" d="M52.4,348.7l23.8-20.9c-3.3-3.8-6.5-7.6-9.5-11.8c-3.1-4.1-5.8-8.3-8.5-12.5l-26.9,16.6
			c3.1,5,6.4,10,10,14.8C44.8,339.8,48.5,344.4,52.4,348.7z"/>
		
			<text transform="matrix(-0.5949 -0.8038 0.8038 -0.5949 64.7859 329.5793)" fill="#FFFFFF" font-family="'RobotoCondensed-Bold'" font-size="20.3884">20</text>
		
			<linearGradient id="SVGID_24_" gradientUnits="userSpaceOnUse" x1="1311.172" y1="2590.3933" x2="1340.1731" y2="2590.3933" gradientTransform="matrix(0.6065 0.8194 -0.8194 0.6065 1401.8369 -2353.3018)">
			<stop  offset="0" style="stop-color:#505A78"/>
			<stop  offset="0.4385" style="stop-color:#3C3C4B"/>
			<stop  offset="1" style="stop-color:#232333"/>
		</linearGradient>
		<path fill="url(#SVGID_24_)" d="M61.6,301.4l27.7-17.1c2,3.4,4.3,6.7,6.7,10c2.4,3.3,4.9,6.3,7.5,9.4l-24.5,21.5
			c-3.3-3.7-6.3-7.5-9.3-11.5C66.9,309.7,64.1,305.6,61.6,301.4z"/>
		<path opacity="0.5" d="M101.9,301.6c0.6,0.7,1.2,1.4,1.7,2l-24.5,21.5c-3.3-3.7-6.3-7.5-9.3-11.5c-3-4-5.7-8.1-8.3-12.2
			C66,307,77.3,317.7,80,318.2C82.1,318.6,95.3,306.8,101.9,301.6z"/>
		
			<rect x="75.1" y="312.9" transform="matrix(-0.7505 0.6609 -0.6609 -0.7505 367.7954 489.9104)" fill="#AAA" width="32.6" height="3.1"/>
		
			<rect x="75.1" y="313.9" transform="matrix(-0.7505 0.6609 -0.6609 -0.7505 367.7954 489.9104)" fill="#AAA" width="32.6" height="1"/>
		
			<rect x="48.4" y="337.9" transform="matrix(-0.7505 0.6609 -0.6609 -0.7505 336.0694 549.8745)" fill="#FFF" width="31.6" height="1"/>
	</g>
	<g>
		<path fill="#C1272D" d="M31.2,320.2l26.9-16.6c-2.7-4.3-5.1-8.7-7.3-13.3c-2.3-4.6-4.4-9.2-6.2-13.8l-29.4,11.8
			c2.2,5.5,4.7,10.9,7.3,16.2C25.2,310,28.1,315.1,31.2,320.2z"/>
		
			<text transform="matrix(-0.4505 -0.8928 0.8928 -0.4505 46.5923 303.3654)" fill="#FFFFFF" font-family="'RobotoCondensed-Bold'" font-size="20.3888">14</text>
		
			<linearGradient id="SVGID_25_" gradientUnits="userSpaceOnUse" x1="1469.3177" y1="2444.7571" x2="1498.3416" y2="2444.7571" gradientTransform="matrix(0.4592 0.9101 -0.9101 0.4592 1612.8251 -2192.1663)">
			<stop  offset="0" style="stop-color:#C1272D"/>
			<stop  offset="0.2941" style="stop-color:#95272D"/>
			<stop  offset="1" style="stop-color:#5A272D"/>
		</linearGradient>
		<path fill="url(#SVGID_25_)" d="M48.3,275l30.2-12.1c1.5,3.7,3.2,7.3,5,10.9s3.8,7.1,5.9,10.5l-27.7,17.1c-2.5-4.2-5-8.5-7.2-12.9
			C52.1,284.1,50.1,279.6,48.3,275z"/>
		<path opacity="0.5" d="M88,282c0.5,0.8,0.9,1.5,1.4,2.3l-27.7,17.1c-2.5-4.2-5-8.5-7.2-12.9c-2.2-4.5-4.3-9-6.1-13.5
			c3.3,6.2,12.6,18.6,15.3,19.6C65.5,295.4,80.6,286,88,282z"/>
		
			<rect x="59.1" y="291.4" transform="matrix(-0.8514 0.5246 -0.5246 -0.8514 293.3425 502.6911)" fill="#AAA" width="32.6" height="3.1"/>
		
			<rect x="59.1" y="292.4" transform="matrix(-0.8514 0.5246 -0.5246 -0.8514 293.3425 502.6911)" fill="#AAA" width="32.6" height="1"/>
		
			<rect x="28.8" y="311.4" transform="matrix(-0.8514 0.5246 -0.5246 -0.8514 246.2523 553.9515)" fill="#FFF" width="31.6" height="1"/>
	</g>
	<g>
		<path fill="#232333" d="M15.2,288.4l29.4-11.8c-1.8-4.7-3.6-9.4-5.1-14.3c-1.5-4.9-2.8-9.8-3.8-14.7l-30.9,6.6
			c1.2,5.7,2.8,11.5,4.5,17.2C11,277.3,12.9,282.9,15.2,288.4z"/>
		
			<text transform="matrix(-0.2931 -0.9561 0.9561 -0.2931 33.1991 274.4024)" fill="#FFFFFF" font-family="'RobotoCondensed-Bold'" font-size="20.3887">31</text>
		
			<linearGradient id="SVGID_26_" gradientUnits="userSpaceOnUse" x1="1600.6553" y1="2274.5186" x2="1629.6564" y2="2274.5186" gradientTransform="matrix(0.2988 0.9747 -0.9747 0.2988 1793.541 -1997.6779)">
			<stop  offset="0" style="stop-color:#505A78"/>
			<stop  offset="0.4385" style="stop-color:#3C3C4B"/>
			<stop  offset="1" style="stop-color:#232333"/>
		</linearGradient>
		<path fill="url(#SVGID_26_)" d="M39.7,246.8l31.9-6.9c0.8,3.9,1.8,7.7,3.1,11.6c1.2,3.9,2.5,7.6,4,11.3l-30.3,12.1
			c-1.8-4.6-3.5-9.2-4.9-14C41.9,256.4,40.7,251.6,39.7,246.8z"/>
		<path opacity="0.5" d="M77.6,260.4c0.3,0.8,0.6,1.7,1,2.5L48.3,275c-1.8-4.6-3.5-9.2-4.9-14c-1.4-4.8-2.7-9.6-3.8-14.3
			c2.1,6.7,9.4,20.5,11.7,21.8C53.2,269.7,69.6,263.1,77.6,260.4z"/>
		
			<rect x="47.1" y="267.4" transform="matrix(-0.9278 0.3731 -0.3731 -0.9278 222.5292 494.7989)" fill="#AAA" width="32.6" height="3.1"/>
		
			<rect x="47.1" y="268.4" transform="matrix(-0.9278 0.3731 -0.3731 -0.9278 222.5292 494.7989)" fill="#AAA" width="32.6" height="1"/>
		
			<rect x="14.1" y="282" transform="matrix(-0.9278 0.3732 -0.3732 -0.9278 163.0225 533.388)" fill="#FFF" width="31.6" height="1"/>
	</g>
	<g>
		<path fill="#C1272D" d="M4.7,254.3l30.9-6.6c-1-4.9-1.9-9.9-2.5-14.9c-0.6-5.1-1-10.1-1.3-15.1l-31.6,1.3
			c0.3,5.9,0.7,11.8,1.5,17.7C2.4,242.7,3.5,248.5,4.7,254.3z"/>
		
			<text transform="matrix(-0.1274 -0.9919 0.9919 -0.1274 24.2563 238.7338)" fill="#FFFFFF" font-family="'RobotoCondensed-Bold'" font-size="20.3893">9</text>
		
			<linearGradient id="SVGID_27_" gradientUnits="userSpaceOnUse" x1="1701.3285" y1="2084.7793" x2="1730.3296" y2="2084.7793" gradientTransform="matrix(0.1299 1.0112 -1.0112 0.1299 1938.7958 -1775.5049)">
			<stop  offset="0" style="stop-color:#C1272D"/>
			<stop  offset="0.2941" style="stop-color:#95272D"/>
			<stop  offset="1" style="stop-color:#5A272D"/>
		</linearGradient>
		<path fill="url(#SVGID_27_)" d="M35.9,217.4l32.6-1.4c0.2,4,0.5,8,1,12c0.5,4,1.2,8,2,11.8l-31.9,6.9c-1-4.8-1.8-9.7-2.5-14.6
			C36.5,227.2,36.1,222.3,35.9,217.4z"/>
		<path opacity="0.5" d="M71,237.2c0.2,0.9,0.3,1.7,0.5,2.7l-31.9,6.9c-1-4.8-1.8-9.7-2.5-14.6c-0.6-4.9-1-9.9-1.2-14.8
			c1,6.9,5.7,21.7,7.8,23.5C45.4,242.4,62.7,238.6,71,237.2z"/>
		
			<rect x="39.2" y="241.8" transform="matrix(-0.9775 0.211 -0.211 -0.9775 161.2123 469.4695)" fill="#AAA" width="32.6" height="3.1"/>
		
			<rect x="39.2" y="242.8" transform="matrix(-0.9775 0.211 -0.211 -0.9775 161.2123 469.4695)" fill="#AAA" width="32.6" height="1"/>
		
			<rect x="4.4" y="250.5" transform="matrix(-0.9775 0.211 -0.211 -0.9775 92.8665 492.0573)" fill="#FFF" width="31.6" height="1"/>
	</g>
	<g>
		<path fill="#232333" d="M0.2,219l31.6-1.3c-0.2-5-0.2-10.1,0-15.2s0.6-10.1,1.3-15.1l-31.3-4c-0.7,5.8-1.2,11.7-1.5,17.7
			C-0.1,207.1,0,213.1,0.2,219z"/>
		
			<text transform="matrix(4.208060e-002 -0.9991 0.9991 4.208060e-002 21.7696 211.8328)" fill="#FFFFFF" font-family="'RobotoCondensed-Bold'" font-size="20.3881">22</text>
		
			<linearGradient id="SVGID_28_" gradientUnits="userSpaceOnUse" x1="1768.4486" y1="1880.7415" x2="1797.4497" y2="1880.7415" gradientTransform="matrix(-4.290209e-002 1.0185 -1.0185 -4.290209e-002 2044.3807 -1531.9302)">
			<stop  offset="0" style="stop-color:#505A78"/>
			<stop  offset="0.4385" style="stop-color:#3C3C4B"/>
			<stop  offset="1" style="stop-color:#232333"/>
		</linearGradient>
		<path fill="url(#SVGID_28_)" d="M37.1,187.9l32.3,4.2c-0.5,4-0.8,8-1,12s-0.2,8.1,0,12l-32.6,1.4c-0.2-4.9-0.2-9.8,0-14.8
			C36.1,197.7,36.5,192.8,37.1,187.9z"/>
		<path opacity="0.5" d="M68.3,213.4c0,0.9,0,1.8,0.1,2.8l-32.6,1.4c-0.2-4.9-0.2-9.8,0-14.8c0.2-5,0.6-9.9,1.2-14.8
			c-0.2,7,1.9,22.4,3.8,24.6C42.3,214.1,59.9,213.4,68.3,213.4z"/>
		
			<rect x="35.8" y="215.2" transform="matrix(-0.9991 4.277012e-002 -4.277012e-002 -0.9991 113.4054 431.0404)" fill="#AAA" width="32.6" height="3.1"/>
		
			<rect x="35.8" y="216.2" transform="matrix(-0.9991 4.277012e-002 -4.277012e-002 -0.9991 113.4054 431.0404)" fill="#AAA" width="32.6" height="1"/>
		
			<rect x="0.2" y="217.9" transform="matrix(-0.9991 4.279466e-002 -4.279466e-002 -0.9991 41.3445 435.8383)" fill="#FFF" width="31.6" height="1"/>
	</g>
	<g>
		<path fill="#C1272D" d="M1.7,183.4l31.3,4c0.6-5,1.5-10,2.5-14.9c1.1-5,2.3-9.9,3.8-14.7l-30.2-9.2c-1.7,5.6-3.3,11.4-4.5,17.2
			C3.5,171.7,2.4,177.6,1.7,183.4z"/>
		
			<text transform="matrix(0.2103 -0.9776 0.9776 0.2103 24.2285 180.0567)" fill="#FFFFFF" font-family="'RobotoCondensed-Bold'" font-size="20.3876">18</text>
		
			<linearGradient id="SVGID_29_" gradientUnits="userSpaceOnUse" x1="1800.1426" y1="1668.1912" x2="1829.1437" y2="1668.1912" gradientTransform="matrix(-0.2144 0.9966 -0.9966 -0.2144 2107.3052 -1274.0369)">
			<stop  offset="0" style="stop-color:#C1272D"/>
			<stop  offset="0.2941" style="stop-color:#95272D"/>
			<stop  offset="1" style="stop-color:#5A272D"/>
		</linearGradient>
		<path fill="url(#SVGID_29_)" d="M43.3,159l31.2,9.6c-1.1,3.8-2.1,7.6-3.1,11.6c-0.8,4-1.5,8-2,11.8l-32.3-4.2
			c0.6-4.9,1.4-9.7,2.4-14.6C40.7,168.5,41.9,163.7,43.3,159z"/>
		<path opacity="0.5" d="M69.8,189.4c-0.1,0.9-0.3,1.8-0.4,2.7l-32.3-4.2c0.6-4.9,1.4-9.7,2.4-14.6s2.3-9.7,3.8-14.3
			c-1.3,6.9-1.8,22.4-0.4,24.8C43.9,185.7,61.6,188,69.8,189.4z"/>
		
			<rect x="37" y="188.5" transform="matrix(-0.9919 -0.1267 0.1267 -0.9919 82.1031 385.2594)" fill="#AAA" width="32.6" height="3.1"/>
		
			<rect x="37" y="189.5" transform="matrix(-0.9919 -0.1267 0.1267 -0.9919 82.1031 385.2594)" fill="#AAA" width="32.6" height="1"/>
		
			<rect x="1.5" y="184.9" transform="matrix(-0.9919 -0.1267 0.1267 -0.9919 11.0013 371.5381)" fill="#FFF" width="31.6" height="1"/>
	</g>
	<g>
		<path fill="#232333" d="M9.2,148.6l30.2,9.3c1.4-4.8,3.2-9.6,5-14.3c1.9-4.7,4-9.3,6.2-13.8l-28.1-14.4
			c-2.7,5.3-5.1,10.7-7.3,16.2C12.8,137.3,10.9,142.9,9.2,148.6z"/>
		
			<text transform="matrix(0.3725 -0.928 0.928 0.3725 31.9481 149.0531)" fill="#FFFFFF" font-family="'RobotoCondensed-Bold'" font-size="20.3877">29</text>
		
			<linearGradient id="SVGID_30_" gradientUnits="userSpaceOnUse" x1="1795.4412" y1="1453.2617" x2="1824.4291" y2="1453.2617" gradientTransform="matrix(-0.3797 0.946 -0.946 -0.3797 2125.7507 -1009.203)">
			<stop  offset="0" style="stop-color:#505A78"/>
			<stop  offset="0.4385" style="stop-color:#3C3C4B"/>
			<stop  offset="1" style="stop-color:#232333"/>
		</linearGradient>
		<path fill="url(#SVGID_30_)" d="M54.3,131.6l29.2,14.7c-1.8,3.6-3.5,7.2-5,11c-1.5,3.8-2.9,7.5-4,11.3L43.3,159
			c1.4-4.7,3.1-9.4,4.9-14C50.1,140.5,52.1,136,54.3,131.6z"/>
		<path opacity="0.5" d="M75.3,166c-0.3,0.8-0.5,1.7-0.8,2.5L43.3,159c1.4-4.7,3.1-9.4,4.9-14c1.8-4.6,3.9-9.1,6.1-13.5
			c-2.5,6.6-5.6,21.8-4.6,24.4C50.5,158,67.4,163.2,75.3,166z"/>
		
			<rect x="42.6" y="162.3" transform="matrix(-0.9563 -0.2925 0.2925 -0.9563 67.3267 337.7283)" fill="#AAA" width="32.6" height="3.1"/>
		
			<rect x="42.6" y="163.3" transform="matrix(-0.9563 -0.2925 0.2925 -0.9563 67.3267 337.7283)" fill="#AAA" width="32.6" height="1"/>
		
			<rect x="8.5" y="152.7" transform="matrix(-0.9563 -0.2925 0.2925 -0.9563 2.6332 306.8189)" fill="#FFF" width="31.6" height="1"/>
	</g>
	<g>
		<path fill="#C1272D" d="M22.4,115.5l28.2,14.2c2.2-4.5,4.7-8.9,7.3-13.3c2.7-4.4,5.5-8.6,8.5-12.5L41.1,85.2
			c-3.5,4.8-6.8,9.7-10,14.8C28,105.1,25.1,110.3,22.4,115.5z"/>
		
			<text transform="matrix(0.524 -0.8517 0.8517 0.524 47.4147 115.6533)" fill="#FFFFFF" font-family="'RobotoCondensed-Bold'" font-size="20.388">7</text>
		
			<linearGradient id="SVGID_31_" gradientUnits="userSpaceOnUse" x1="1754.499" y1="1242.1946" x2="1783.5017" y2="1242.1946" gradientTransform="matrix(-0.5342 0.8682 -0.8682 -0.5342 2099.176 -745.0547)">
			<stop  offset="0" style="stop-color:#C1272D"/>
			<stop  offset="0.2941" style="stop-color:#95272D"/>
			<stop  offset="1" style="stop-color:#5A272D"/>
		</linearGradient>
		<path fill="url(#SVGID_31_)" d="M69.8,106.4L96,125.8c-2.3,3.2-4.6,6.5-6.7,10c-2.1,3.5-4.1,6.9-5.8,10.5l-29.2-14.7
			c2.2-4.4,4.6-8.7,7.2-12.9C64.1,114.4,66.9,110.3,69.8,106.4z"/>
		<path opacity="0.5" d="M84.7,143.8c-0.4,0.8-0.8,1.6-1.2,2.4l-29.2-14.7c2.2-4.4,4.6-8.7,7.2-12.9c2.7-4.3,5.4-8.4,8.3-12.2
			c-3.6,6.1-9.2,20.5-8.7,23.2C61.6,131.8,77.4,139.8,84.7,143.8z"/>
		
			<rect x="52.6" y="137.4" transform="matrix(-0.8931 -0.4499 0.4499 -0.8931 67.9056 294.057)" fill="#AAA" width="32.6" height="3.1"/>
		
			<rect x="52.6" y="138.4" transform="matrix(-0.8931 -0.4499 0.4499 -0.8931 67.9056 294.057)" fill="#AAA" width="32.6" height="1"/>
		
			<rect x="20.8" y="122.1" transform="matrix(-0.8931 -0.4499 0.4499 -0.8931 14.0855 248.6528)" fill="#FFF" width="31.6" height="1"/>
	</g>
	<g>
		<path fill="#232333" d="M41.1,85.2L66.6,104c3-4,6.1-8,9.5-11.8s6.8-7.4,10.5-10.9L64.6,58.4c-4.3,4.1-8.4,8.4-12.3,12.8
			C48.3,75.8,44.7,80.4,41.1,85.2z"/>
		
			<text transform="matrix(0.6604 -0.7509 0.7509 0.6604 62.4446 93.2574)" fill="#FFFFFF" font-family="'RobotoCondensed-Bold'" font-size="20.3881">28</text>
		
			<linearGradient id="SVGID_32_" gradientUnits="userSpaceOnUse" x1="1678.4938" y1="1041.1768" x2="1707.4777" y2="1041.1768" gradientTransform="matrix(-0.6732 0.7655 -0.7655 -0.6732 2028.3474 -489.208)">
			<stop  offset="0" style="stop-color:#505A78"/>
			<stop  offset="0.4385" style="stop-color:#3C3C4B"/>
			<stop  offset="1" style="stop-color:#232333"/>
		</linearGradient>
		<path fill="url(#SVGID_32_)" d="M89.3,84.2l22.6,23.5c-2.9,2.8-5.6,5.6-8.4,8.7c-2.7,3.1-5.2,6.1-7.5,9.4l-26.2-19.4
			c3-4,6-7.7,9.3-11.5C82.4,91.1,85.8,87.6,89.3,84.2z"/>
		<path opacity="0.5" d="M97.7,123.7c-0.5,0.7-1.1,1.4-1.6,2.1l-26.2-19.4c3-4,6-7.7,9.3-11.5c3.3-3.8,6.7-7.3,10.2-10.7
			c-4.6,5.4-12.5,18.7-12.4,21.4C76.9,107.9,91.1,118.4,97.7,123.7z"/>
		
			<rect x="66.6" y="114.5" transform="matrix(-0.8042 -0.5943 0.5943 -0.8042 80.5456 258.6833)" fill="#AAA" width="32.6" height="3.1"/>
		
			<rect x="66.6" y="115.6" transform="matrix(-0.8042 -0.5943 0.5943 -0.8042 80.5456 258.6833)" fill="#AAA" width="32.6" height="1"/>
		
			<rect x="38" y="94.1" transform="matrix(-0.8042 -0.5943 0.5943 -0.8042 40.8713 202.6579)" fill="#FFF" width="31.6" height="1"/>
	</g>
	<g>
		<path fill="#C1272D" d="M64.6,58.4l21.9,22.8c3.6-3.5,7.4-6.8,11.3-10c4-3.2,8.1-6.2,12.1-9L92.4,36.1c-4.9,3.3-9.7,6.8-14.4,10.6
			C73.3,50.5,68.9,54.3,64.6,58.4z"/>
		
			<text transform="matrix(0.7778 -0.6286 0.6286 0.7778 84.3118 69.94)" fill="#FFFFFF" font-family="'RobotoCondensed-Bold'" font-size="20.3895">12</text>
		
			<linearGradient id="SVGID_33_" gradientUnits="userSpaceOnUse" x1="1569.6116" y1="855.9101" x2="1598.629" y2="855.9101" gradientTransform="matrix(-0.7929 0.6407 -0.6407 -0.7929 1915.3024 -249.0117)">
			<stop  offset="0" style="stop-color:#C1272D"/>
			<stop  offset="0.2941" style="stop-color:#95272D"/>
			<stop  offset="1" style="stop-color:#5A272D"/>
		</linearGradient>
		<path fill="url(#SVGID_33_)" d="M112.3,65.7l18.2,27c-3.3,2.2-6.5,4.6-9.7,7.1c-3.2,2.5-6.1,5.2-9.1,8L89.3,84.2
			c3.6-3.4,7.2-6.6,11.1-9.8C104.3,71.3,108.3,68.4,112.3,65.7z"/>
		<path opacity="0.5" d="M113.9,105.9c-0.7,0.6-1.3,1.2-1.9,1.8L89.3,84.2c3.6-3.4,7.2-6.6,11.1-9.8c3.9-3.2,7.8-6,11.9-8.8
			c-5.4,4.5-15.5,16.3-15.9,19.1C96.1,86.9,108.4,99.6,113.9,105.9z"/>
		
			<rect x="84.3" y="94.4" transform="matrix(-0.6922 -0.7217 0.7217 -0.6922 101.0754 234.9797)" fill="#AAA" width="32.6" height="3.1"/>
		
			<rect x="84.3" y="95.4" transform="matrix(-0.6922 -0.7217 0.7217 -0.6922 101.0754 234.9797)" fill="#AAA" width="32.6" height="1"/>
		
			<rect x="59.8" y="69.3" transform="matrix(-0.6922 -0.7217 0.7217 -0.6922 77.4789 172.6714)" fill="#FFF" width="31.6" height="1"/>
	</g>
	<g>
		<path fill="#232333" d="M92.4,36.1l17.7,26.2c4.2-2.8,8.5-5.5,12.8-8c4.5-2.4,9-4.8,13.6-6.8l-13-28.7c-5.4,2.4-10.7,5.1-15.9,8.1
			C102.2,29.7,97.3,32.7,92.4,36.1z"/>
		
			<text transform="matrix(0.8728 -0.4881 0.4881 0.8728 109.724 50.7527)" fill="#FFFFFF" font-family="'RobotoCondensed-Bold'" font-size="20.3886">35</text>
		
			<linearGradient id="SVGID_34_" gradientUnits="userSpaceOnUse" x1="1430.9844" y1="691.7235" x2="1459.9855" y2="691.7235" gradientTransform="matrix(-0.8897 0.4976 -0.4976 -0.8897 1763.3265 -31.3851)">
			<stop  offset="0" style="stop-color:#505A78"/>
			<stop  offset="0.4385" style="stop-color:#3C3C4B"/>
			<stop  offset="1" style="stop-color:#232333"/>
		</linearGradient>
		<path fill="url(#SVGID_34_)" d="M138.1,51.2l13.5,29.8c-3.7,1.6-7.2,3.5-10.7,5.4c-3.6,1.9-6.9,4.1-10.2,6.3l-18.2-27
			c4.1-2.8,8.3-5.3,12.6-7.7C129.3,55.5,133.6,53.2,138.1,51.2z"/>
		<path opacity="0.5" d="M132.8,91.1c-0.7,0.5-1.5,1-2.2,1.5l-18.2-27c4.1-2.8,8.3-5.3,12.6-7.7c4.4-2.4,8.8-4.7,13.3-6.6
			c-6.1,3.6-18,13.5-18.9,16.1C118.6,69.3,128.4,84,132.8,91.1z"/>
		
			<rect x="105.2" y="77.6" transform="matrix(-0.5603 -0.8283 0.8283 -0.5603 124.0198 224.1531)" fill="#AAA" width="32.6" height="3.1"/>
		
			<rect x="105.2" y="78.6" transform="matrix(-0.5603 -0.8283 0.8283 -0.5603 124.0198 224.1531)" fill="#AAA" width="32.6" height="1"/>
		
			<rect x="85.4" y="48.7" transform="matrix(-0.5603 -0.8283 0.8283 -0.5603 117.1978 160.5722)" fill="#FFF" width="31.6" height="1"/>
	</g>
	<g>
		<path fill="#C1272D" d="M123.5,18.7l13,28.7c4.6-2,9.3-4,14.1-5.6c4.8-1.7,9.7-3.2,14.5-4.5l-8-30.6c-5.7,1.5-11.4,3.3-17,5.2
			C134.3,14.1,128.8,16.2,123.5,18.7z"/>
		
			<text transform="matrix(0.9427 -0.3336 0.3336 0.9427 142.7284 34.4861)" fill="#FFFFFF" font-family="'RobotoCondensed-Bold'" font-size="20.3881">3</text>
		
			<linearGradient id="SVGID_35_" gradientUnits="userSpaceOnUse" x1="1266.5996" y1="553.3763" x2="1295.572" y2="553.3763" gradientTransform="matrix(-0.961 0.3401 -0.3401 -0.961 1576.7322 157.4263)">
			<stop  offset="0" style="stop-color:#C1272D"/>
			<stop  offset="0.2941" style="stop-color:#95272D"/>
			<stop  offset="1" style="stop-color:#5A272D"/>
		</linearGradient>
		<path fill="url(#SVGID_35_)" d="M166,41.3l8.3,31.6c-3.9,1-7.6,2.1-11.5,3.6c-3.8,1.3-7.5,2.9-11.1,4.5l-13.5-29.8
			c4.5-2,9.1-3.9,13.8-5.5C156.6,44,161.3,42.6,166,41.3z"/>
		<path opacity="0.5" d="M154,79.8c-0.8,0.4-1.6,0.7-2.4,1.1l-13.5-29.8c4.5-2,9.1-3.9,13.8-5.5c4.7-1.6,9.4-3.1,14.2-4.4
			c-6.6,2.4-20.1,10.2-21.3,12.6C143.6,55.9,151,72.1,154,79.8z"/>
		
			<rect x="128.5" y="64.5" transform="matrix(-0.4123 -0.9111 0.9111 -0.4123 144.3752 225.2643)" fill="#AAA" width="32.6" height="3.1"/>
		
			<rect x="128.5" y="65.6" transform="matrix(-0.4123 -0.9111 0.9111 -0.4123 144.3752 225.2643)" fill="#AAA" width="32.6" height="1"/>
		
			<rect x="114.2" y="32.6" transform="matrix(-0.4123 -0.911 0.911 -0.4123 153.4504 165.165)" fill="#FFF" width="31.6" height="1"/>
	</g>
	<g>
		<path fill="#232333" d="M157,6.8l8,30.6c4.9-1.2,9.8-2.3,14.8-3.2s10-1.5,15-1.9l-2.7-31.5c-5.8,0.5-11.7,1.2-17.6,2.2
			C168.5,4.1,162.7,5.3,157,6.8z"/>
		
			<text transform="matrix(0.9855 -0.1694 0.1694 0.9855 168.5341 26.4932)" fill="#FFFFFF" font-family="'RobotoCondensed-Bold'" font-size="20.3874">26</text>
		
			<linearGradient id="SVGID_36_" gradientUnits="userSpaceOnUse" x1="1081.1855" y1="444.7773" x2="1110.2031" y2="444.7773" gradientTransform="matrix(-1.0046 0.1728 -0.1728 -1.0046 1360.9103 311.9959)">
			<stop  offset="0" style="stop-color:#505A78"/>
			<stop  offset="0.4385" style="stop-color:#3C3C4B"/>
			<stop  offset="1" style="stop-color:#232333"/>
		</linearGradient>
		<path fill="url(#SVGID_36_)" d="M195.1,36.3l2.8,32.5c-4,0.3-8,0.8-11.9,1.5c-4,0.7-8,1.5-11.7,2.5L166,41.3
			c4.7-1.2,9.6-2.2,14.5-3.2C185.3,37.3,190.2,36.7,195.1,36.3z"/>
		<path opacity="0.5" d="M176.9,72.3c-0.9,0.2-1.7,0.4-2.7,0.6L166,41.3c4.7-1.2,9.6-2.2,14.5-3.2c4.9-0.8,9.8-1.4,14.7-1.8
			c-6.9,1.3-21.5,6.6-23.1,8.9C170.7,46.9,175.1,64,176.9,72.3z"/>
		
			<rect x="153.8" y="55.6" transform="matrix(-0.2524 -0.9676 0.9676 -0.2524 157.8198 236.1777)" fill="#AAA" width="32.6" height="3.1"/>
		
			<rect x="153.8" y="56.6" transform="matrix(-0.2524 -0.9676 0.9676 -0.2524 157.8198 236.1777)" fill="#AAA" width="32.6" height="1"/>
		
			<rect x="145.1" y="21.6" transform="matrix(-0.2524 -0.9676 0.9676 -0.2524 180.2078 183.3889)" fill="#FFF" width="31.6" height="1"/>
	</g>
	
		<linearGradient id="SVGID_37_" gradientUnits="userSpaceOnUse" x1="771.6874" y1="336.3125" x2="1016.3126" y2="91.6875" gradientTransform="matrix(-1.0194 0 0 -1.0194 1121.3593 428.1553)">
		<stop  offset="0" style="stop-color:#AAA"/>
		<stop  offset="0.2513" style="stop-color:#AAA"/>
		<stop  offset="0.9037" style="stop-color:#AAA"/>
	</linearGradient>
	<path fill="url(#SVGID_37_)" d="M210,33.6c-97.4,0-176.4,79-176.4,176.4s79,176.4,176.4,176.4s176.4-79,176.4-176.4
		S307.4,33.6,210,33.6z M210,384.3c-96.2,0-174.3-78.1-174.3-174.3S113.8,35.7,210,35.7S384.3,113.8,384.3,210
		S306.2,384.3,210,384.3z"/>
	
		<linearGradient id="SVGID_38_" gradientUnits="userSpaceOnUse" x1="770.275" y1="337.725" x2="1017.725" y2="90.275" gradientTransform="matrix(-1.0194 0 0 -1.0194 1121.3593 428.1553)">
		<stop  offset="0" style="stop-color:#CCC"/>
		<stop  offset="9.090909e-002" style="stop-color:#CCC"/>
		<stop  offset="0.1711" style="stop-color:#CCC"/>
		<stop  offset="0.2781" style="stop-color:#CCC"/>
		<stop  offset="0.4011" style="stop-color:#CCC"/>
		<stop  offset="0.7914" style="stop-color:#CCC"/>
	</linearGradient>
	<path fill="url(#SVGID_38_)" d="M210,31.6c-98.5,0-178.4,79.9-178.4,178.4S111.5,388.4,210,388.4S388.4,308.5,388.4,210
		S308.5,31.6,210,31.6z M210,386.4c-97.4,0-176.4-79-176.4-176.4S112.6,33.6,210,33.6s176.4,79,176.4,176.4S307.4,386.4,210,386.4z"
		/>
	<g>
		<g>
			<path fill="#00912E" d="M192.2,0.7l2.7,31.5c5-0.4,10-0.6,15.1-0.6c5.1,0,10.1,0.2,15.1,0.6l2.7-31.5C221.9,0.3,216,0,210,0
				S198.1,0.3,192.2,0.7z"/>
			<text transform="matrix(1 0 0 1 205.1221 22.0898)" fill="#FFFFFF" font-family="'RobotoCondensed-Bold'" font-size="20.3884">0</text>
			
				<linearGradient id="SVGID_39_" gradientUnits="userSpaceOnUse" x1="879.5" y1="368.75" x2="908.5" y2="368.75" gradientTransform="matrix(-1.0194 0 0 -1.0194 1121.3593 428.1553)">
				<stop  offset="0" style="stop-color:#00B53D"/>
				<stop  offset="0.2941" style="stop-color:#00912E"/>
				<stop  offset="1" style="stop-color:#006A18"/>
			</linearGradient>
			<path fill="url(#SVGID_39_)" d="M224.8,36.3L222,68.8c-4-0.3-8-0.5-12-0.5c-4.1,0-8.1,0.2-12,0.5l-2.8-32.5
				c4.9-0.4,9.8-0.6,14.8-0.6C215,35.7,219.9,35.9,224.8,36.3z"/>
			<path opacity="0.5" d="M200.7,68.6c-0.9,0.1-1.8,0.1-2.8,0.2l-2.8-32.5c4.9-0.4,9.8-0.6,14.8-0.6c5,0,9.9,0.2,14.8,0.6
				c-7,0.1-22.3,3-24.4,4.8C198.8,42.6,200.3,60.2,200.7,68.6z"/>
			
				<rect x="180.3" y="51.1" transform="matrix(-8.477923e-002 -0.9964 0.9964 -8.477923e-002 160.8116 252.9274)" fill="#AAA" width="32.6" height="3.1"/>
			
				<rect x="180.3" y="52.1" transform="matrix(-8.477923e-002 -0.9964 0.9964 -8.477923e-002 160.8116 252.9274)" fill="#AAA" width="32.6" height="1"/>
			
				<rect x="177.7" y="15.9" transform="matrix(-8.480369e-002 -0.9964 0.9964 -8.480369e-002 193.5327 210.674)" fill="#FFF" width="31.6" height="1"/>
		</g>
		
			<rect x="207.1" y="51" transform="matrix(8.481964e-002 -0.9964 0.9964 8.481964e-002 152.094 270.6193)" fill="#AAA" width="32.6" height="3.1"/>
		
			<rect x="207.1" y="52" transform="matrix(8.481964e-002 -0.9964 0.9964 8.481964e-002 152.094 270.6193)" fill="#AAA" width="32.6" height="1"/>
		
			<rect x="210.7" y="16" transform="matrix(8.479529e-002 -0.9964 0.9964 8.479529e-002 190.7643 240.7846)" fill="#FFF" width="31.6" height="1"/>
	</g>
</g>
</svg>