<?xml version="1.0" encoding="utf-8"?>
<!-- Generator: Adobe Illustrator 24.1.2, SVG Export Plug-In . SVG Version: 6.00 Build 0)  -->
<svg version="1.1" id="Layer_1" xmlns="http://www.w3.org/2000/svg" xmlns:xlink="http://www.w3.org/1999/xlink" x="0px" y="0px"
	 viewBox="0 0 572 572" style="enable-background:new 0 0 572 572;" xml:space="preserve">
<style type="text/css">
	.st0{fill:#FCDC18;}
	.st1{fill:#2D2226;}
	.st2{fill:#221E1F;}
	.st3{fill:#FF9100;}
	.st4{opacity:0.5;fill:#FFFAA4;enable-background:new    ;}
	.st5{fill:url(#SVGID_1_);}
	.st6{fill:url(#SVGID_2_);}
	.st7{fill:url(#SVGID_3_);}
	.st8{fill:url(#SVGID_4_);}
	.st9{fill:url(#SVGID_5_);}
	.st10{fill:url(#SVGID_6_);}
	.st11{fill:url(#SVGID_7_);}
	.st12{fill:url(#SVGID_8_);}
	.st13{fill:url(#SVGID_9_);}
	.st14{fill:url(#SVGID_10_);}
	.st15{fill:url(#SVGID_11_);}
	.st16{fill:url(#SVGID_12_);}
</style>
<g>
	<path class="st0" d="M377.3,20.1C286.8-11.1,190.9,6.7,119,59.6c0,0-0.1,0.1-0.2,0.1c-2.4,1.7-4.7,3.5-7,5.3
		c-12.9,10.1-25,21.4-36,33.8c-1.8,2-3.6,4-5.3,6.1c0,0.1-0.1,0.1-0.1,0.1c-8.6,10.2-16.5,21.1-23.6,32.6
		c-10.7,17.3-19.7,36.1-26.6,56.2c-6.9,19.9-11.4,40-13.7,60C-8,381.6,67.3,507.2,193.8,550.9c146.3,50.6,306.5-27.3,357.1-173.7
		C601.5,231,523.6,70.7,377.3,20.1z M474.2,151.9c0.3,0.4,0.6,0.9,0.9,1.3c0.3,0.4,0.6,0.9,0.9,1.3c13.1,19.1,23.3,40.1,30.3,62.2
		c0.2,0.5,0.3,1,0.5,1.5s0.3,1,0.5,1.5c6.5,22,9.9,45.1,9.6,68.5c0,0.5,0,1.1,0,1.6s0,1.1,0,1.6c-0.6,22.6-4.5,45.6-12.2,68.1
		c-0.2,0.5-0.3,1-0.5,1.5s-0.3,1-0.5,1.5c-7.9,22.4-19,42.9-32.5,61.1c-0.3,0.4-0.6,0.8-1,1.3l0,0c-0.3,0.4-0.6,0.8-1,1.3
		c-14.2,18.6-31.1,34.7-49.9,47.9c-0.4,0.3-0.8,0.6-1.3,0.9s-0.9,0.6-1.3,0.9c-19.1,13.1-40.1,23.3-62.2,30.2
		c-0.5,0.2-1,0.3-1.5,0.5s-1,0.3-1.6,0.5c-22,6.6-45.1,9.9-68.5,9.6c-0.5,0-1,0-1.6,0s-1.1,0-1.6,0c-22.6-0.6-45.6-4.5-68.1-12.2
		c-0.5-0.1-1-0.3-1.5-0.5s-1-0.3-1.5-0.5c-22.4-7.9-42.9-19-61-32.5c-0.4-0.3-0.9-0.6-1.3-0.9c-0.4-0.3-0.9-0.7-1.3-1
		c-18.6-14.2-34.7-31.1-48-49.9c-0.3-0.4-0.6-0.9-0.9-1.3s-0.6-0.9-0.9-1.3c-13.1-19.1-23.3-40.1-30.2-62.2c-0.2-0.5-0.3-1-0.5-1.5
		s-0.3-1-0.5-1.5c-6.6-22-9.9-45.1-9.6-68.5c0-0.5,0-1.1,0-1.6s0-1.1,0-1.6c0.6-22.6,4.5-45.5,12.2-68.1c0.2-0.5,0.4-1,0.5-1.5
		c0.2-0.5,0.4-1,0.5-1.5c6.2-17.6,14.3-33.9,24-48.9c0.6-0.9,1.2-1.9,1.8-2.8c1.9-2.8,3.9-5.6,5.9-8.4c0.3-0.3,0.5-0.7,0.8-1
		c0.3-0.4,0.7-0.9,1-1.3c0.3-0.4,0.6-0.8,1-1.3c0.2-0.3,0.4-0.5,0.6-0.7c0.7-1,1.5-1.9,2.3-2.9c13.6-17.1,29.5-31.9,47-44.3
		c0.4-0.3,0.9-0.6,1.3-0.9c0,0,0.1-0.1,0.2-0.1c0.4-0.3,0.8-0.5,1.2-0.8c0.8-0.6,1.7-1.1,2.5-1.7c1-0.7,1.9-1.3,2.9-1.9
		c2.9-1.9,5.8-3.7,8.8-5.4c0.9-0.6,1.9-1.1,2.8-1.6c14.3-8.2,29.5-14.7,45.2-19.7c0.5-0.2,1-0.3,1.5-0.5s1-0.3,1.6-0.4
		c22-6.6,45.1-9.9,68.5-9.6c0.5,0,1,0,1.6,0c0.5,0,1,0,1.6,0c22.6,0.6,45.6,4.5,68.1,12.2c0.5,0.1,1,0.3,1.5,0.5s1,0.4,1.5,0.5
		c22.4,7.9,42.9,19,61.1,32.5c0.4,0.3,0.8,0.6,1.3,1c0.4,0.3,0.8,0.6,1.3,1C444.8,116.3,460.9,133.1,474.2,151.9z"/>
	<g>
		<g>
			<g>
				<path class="st1" d="M542.2,161.6c33.3,68.5,38,145.8,13.2,217.7c-14.9,43.1-40.2,82.4-73.2,113.6
					c-77.7,73.5-188.5,97.5-289.3,62.7C131.4,534.2,78.6,492,44.2,436.7C10.4,382.2-4.4,317.3,2.8,254c2.3-20.6,7-41.2,13.8-60.9
					c6.9-20,16-39.2,27.1-57c7.3-11.7,15.4-22.9,24.3-33.5l0.1-0.1c1.7-2,3.5-4.1,5.3-6.1c5.2-5.8,10.7-11.5,16.4-16.8
					c6.3-6,12.8-11.6,19.6-16.9c2.3-1.8,4.6-3.6,7-5.3l0.1-0.1C191.7,1.6,289.4-14,379.1,17C451,41.6,508.9,93,542.2,161.6z"/>
				<path class="st2" d="M376.3,24.8C278.5-9,170.9,14.3,95.5,85.7c-17.2,16.3-32.3,34.8-44.7,54.9c-10.7,17.3-19.5,35.9-26.3,55.3
					C17.8,215.1,13.3,235,11,255C-3.5,382.6,74.2,505.7,195.6,547.7c97.8,33.8,205.4,10.5,280.8-60.9c32-30.3,56.6-68.4,71-110.2
					c24.1-69.7,19.5-144.7-12.8-211.3C502.2,98.8,446,48.9,376.3,24.8z M446,140.2c6,6.6,11.5,13.5,16.7,20.8c0.3,0.4,0.5,0.7,0.7,1
					l0.9,1.3c3.6,5.3,7,10.7,10.2,16.3l0,0c1.3,2.3,2.6,4.6,3.8,7c5.8,11.2,10.6,23,14.4,35.1c0.1,0.4,0.3,0.8,0.4,1.2l0.1,0.3
					c0.2,0.4,0.3,0.8,0.4,1.3c0.8,2.5,1.5,5,2.1,7.6s1.3,5.1,1.8,7.7c3.5,15.9,5.2,32.1,5,48.4c0,0.2,0,0.4,0,0.6v2.9
					c-0.1,1.5-0.1,2.9-0.2,4.4c-0.7,16.2-3.3,32.3-7.7,48.1c-0.7,2.5-1.4,5.1-2.3,7.6c-0.4,1.3-0.8,2.6-1.3,3.9
					c-0.1,0.4-0.3,0.8-0.4,1.2c-0.1,0.4-0.3,0.9-0.5,1.4c-4.7,13.2-10.6,25.9-17.6,37.9c-1.3,2.3-2.7,4.5-4.1,6.7
					c-2.7,4.3-5.6,8.5-8.7,12.6l-0.9,1.3c-0.3,0.4-0.6,0.8-0.9,1.1c-6.2,8-12.9,15.7-20.3,22.8c-1.9,1.8-3.8,3.6-5.7,5.4
					c-6.6,6-13.5,11.5-20.7,16.6l-0.3,0.2c-0.3,0.2-0.6,0.4-1,0.8c-0.4,0.2-0.7,0.5-1.2,0.8c-5.3,3.6-10.7,7-16.3,10.1
					c-2.3,1.3-4.6,2.6-7,3.8c-11.2,5.8-23,10.6-35.2,14.5c-0.4,0.1-0.8,0.3-1.4,0.4c-0.4,0.1-0.8,0.3-1.4,0.4
					c-2.5,0.7-5,1.4-7.6,2.1c-2.5,0.7-5.1,1.3-7.7,1.8c-15.9,3.5-32.1,5.2-48.5,5.1c-0.2,0-0.4,0-0.7,0h-1.3h-1.5
					c-1.5-0.1-3-0.1-4.4-0.2c-16.2-0.7-32.3-3.3-48.1-7.7c-2.5-0.7-5-1.5-7.6-2.3c-1.3-0.4-2.6-0.8-3.8-1.3
					c-0.4-0.2-0.9-0.3-1.3-0.4l-1.4-0.5c-13.2-4.7-25.9-10.6-37.9-17.6c-2.2-1.4-4.5-2.7-6.7-4.2c-4.3-2.7-8.5-5.6-12.6-8.7
					l-2.4-1.8c-8.1-6.2-15.7-13-22.8-20.2c-1.9-1.9-3.7-3.8-5.5-5.7c-5.9-6.5-11.5-13.4-16.6-20.6l-1-1.5c-0.2-0.3-0.5-0.7-0.8-1.1
					c-3.6-5.3-7-10.7-10.2-16.2c-1.3-2.3-2.6-4.6-3.8-7c-5.8-11.2-10.7-23-14.5-35.3c-0.1-0.3-0.2-0.7-0.3-1.1l-0.1-0.3
					c-0.1-0.4-0.2-0.8-0.4-1.3c-0.7-2.5-1.4-5-2.1-7.5s-1.3-5.1-1.9-7.7c-3.5-15.9-5.2-32.2-5-48.4c0-0.1,0-0.2,0-0.4v-1.6
					c0-0.6,0.1-1.2,0-1.6c0-1.4,0.1-2.9,0.2-4.4c0.7-16.2,3.3-32.3,7.8-48.1c0.7-2.5,1.4-5.1,2.3-7.6c0.4-1.3,0.8-2.6,1.3-3.9
					c0.1-0.4,0.3-0.8,0.4-1.3c0.1-0.4,0.3-0.8,0.5-1.4c4.7-13.2,10.5-25.9,17.6-37.9c1.3-2.3,2.7-4.5,4.1-6.7
					c2.7-4.3,5.7-8.5,8.7-12.6l1.8-2.3c6.2-8,12.9-15.7,20.2-22.8c1.9-1.9,3.8-3.7,5.7-5.4c6.6-6,13.5-11.5,20.7-16.6l1.5-1
					c0.2-0.2,0.5-0.3,0.7-0.5l0.4-0.2c5.3-3.6,10.7-7,16.3-10.1c2.3-1.3,4.6-2.6,6.9-3.8c11.2-5.8,23-10.7,35.2-14.5l1.3-0.4
					c0.4-0.1,0.7-0.2,1.1-0.3l0.3-0.1c2.5-0.8,5-1.5,7.6-2.1c2.5-0.7,5.1-1.3,7.7-1.9c15.9-3.5,32-5.2,48.4-5c0.2,0,0.4,0,0.6,0h2.8
					c1.5,0,2.9,0.1,4.4,0.2c16.2,0.8,32.3,3.3,48.1,7.8c2.5,0.7,5.1,1.5,7.6,2.2c1.3,0.4,2.6,0.8,3.8,1.3c0.4,0.1,0.9,0.3,1.4,0.5
					c0.4,0.1,0.7,0.3,1.3,0.5c13.2,4.7,25.9,10.6,37.9,17.6c2.3,1.3,4.5,2.7,6.8,4.2c4.3,2.8,8.5,5.6,12.6,8.7l2.3,1.7
					c8.1,6.2,15.7,13,22.8,20.2C442.4,136.4,444.2,138.3,446,140.2z"/>
			</g>
			<g>
				<g>
					<path class="st3" d="M119.5,95.8c5.7,6.5,5.2,16.3-1.3,22.1c-6.4,5.7-16.3,5.2-22.1-1.3c-5.7-6.4-5.2-16.3,1.3-22
						C103.9,88.8,113.7,89.4,119.5,95.8z"/>
					<path class="st4" d="M113.9,100.7c3,3.4,2.7,8.6-0.7,11.6c-3.4,3-8.6,2.7-11.6-0.7c-3-3.4-2.7-8.6,0.7-11.6
						C105.7,97.1,110.9,97.4,113.9,100.7z"/>
				</g>
				<g>
					<path class="st3" d="M46.7,204.6c8.2,2.7,12.6,11.6,9.9,19.7c-2.7,8.2-11.6,12.6-19.7,9.9c-8.2-2.7-12.6-11.5-9.9-19.7
						C29.6,206.3,38.5,201.9,46.7,204.6z"/>
					<path class="st4" d="M44.3,211.6c4.3,1.4,6.6,6.1,5.2,10.4c-1.4,4.3-6.1,6.6-10.3,5.2c-4.3-1.4-6.6-6.1-5.2-10.4
						C35.4,212.6,40,210.2,44.3,211.6z"/>
				</g>
				<g>
					<path class="st3" d="M38,335.2c8.5-1.7,16.7,3.7,18.5,12.1c1.7,8.4-3.7,16.7-12.1,18.5c-8.4,1.7-16.7-3.7-18.5-12.1
						C24.1,345.2,29.6,337,38,335.2z"/>
					<path class="st4" d="M39.5,342.5c4.4-0.9,8.8,1.9,9.7,6.4c0.9,4.4-1.9,8.8-6.4,9.7c-4.4,0.9-8.8-1.9-9.7-6.4
						C32.2,347.7,35.1,343.4,39.5,342.5z"/>
				</g>
				<g>
					<path class="st3" d="M95.8,452.7c6.5-5.7,16.3-5.2,22.1,1.3c5.7,6.4,5.2,16.3-1.3,22.1c-6.4,5.7-16.3,5.2-22-1.3
						C88.8,468.3,89.4,458.4,95.8,452.7z"/>
					<path class="st4" d="M100.8,458.2c3.4-3,8.6-2.7,11.6,0.7c3,3.4,2.7,8.6-0.7,11.6c-3.4,3-8.6,2.7-11.6-0.7
						C97.1,466.4,97.4,461.2,100.8,458.2z"/>
				</g>
				<g>
					<path class="st3" d="M204.6,525.5c2.7-8.2,11.6-12.6,19.7-9.9c8.2,2.7,12.6,11.6,9.9,19.7s-11.5,12.6-19.7,9.9
						C206.3,542.5,201.9,533.7,204.6,525.5z"/>
					<path class="st4" d="M211.7,527.8c1.4-4.3,6.1-6.6,10.4-5.2c4.3,1.4,6.6,6.1,5.2,10.3c-1.4,4.3-6.1,6.6-10.4,5.2
						S210.2,532.1,211.7,527.8z"/>
				</g>
				<g>
					<path class="st3" d="M335.2,534.1c-1.7-8.5,3.7-16.7,12.1-18.5c8.4-1.7,16.7,3.7,18.5,12.1c1.7,8.4-3.7,16.7-12.1,18.5
						C345.2,548,337,542.6,335.2,534.1z"/>
					<path class="st4" d="M342.5,532.6c-0.9-4.4,1.9-8.8,6.4-9.7c4.4-0.9,8.8,1.9,9.7,6.4c0.9,4.4-1.9,8.8-6.4,9.7
						C347.8,539.9,343.4,537.1,342.5,532.6z"/>
				</g>
				<g>
					<path class="st3" d="M452.7,476.3c-5.7-6.5-5.2-16.3,1.3-22.1c6.4-5.7,16.3-5.2,22,1.3c5.7,6.4,5.2,16.3-1.3,22
						C468.3,483.3,458.4,482.8,452.7,476.3z"/>
					<path class="st4" d="M458.2,471.4c-3-3.4-2.7-8.6,0.7-11.6c3.4-3,8.6-2.7,11.6,0.7c3,3.4,2.7,8.6-0.7,11.6
						S461.2,474.8,458.2,471.4z"/>
				</g>
				<g>
					<path class="st3" d="M525.5,367.5c-8.2-2.7-12.6-11.6-9.9-19.7c2.7-8.2,11.6-12.6,19.7-9.9c8.2,2.7,12.6,11.5,9.9,19.7
						C542.5,365.8,533.7,370.2,525.5,367.5z"/>
					<path class="st4" d="M527.8,360.5c-4.3-1.4-6.6-6.1-5.2-10.4c1.4-4.3,6.1-6.6,10.3-5.2c4.3,1.4,6.6,6.1,5.2,10.4
						C536.8,359.6,532.1,361.9,527.8,360.5z"/>
				</g>
				<g>
					<path class="st3" d="M534.2,236.9c-8.5,1.7-16.7-3.7-18.5-12.1c-1.7-8.4,3.7-16.7,12.1-18.5c8.4-1.7,16.7,3.7,18.5,12.1
						C548,226.9,542.6,235.2,534.2,236.9z"/>
					<path class="st4" d="M532.7,229.6c-4.4,0.9-8.8-1.9-9.7-6.4c-0.9-4.4,1.9-8.8,6.4-9.7c4.4-0.9,8.8,1.9,9.7,6.4
						C539.9,224.4,537.1,228.7,532.7,229.6z"/>
				</g>
				<g>
					<path class="st3" d="M476.3,119.5c-6.5,5.7-16.3,5.2-22.1-1.3c-5.7-6.4-5.2-16.3,1.3-22.1c6.4-5.7,16.3-5.2,22,1.3
						C483.4,103.8,482.8,113.7,476.3,119.5z"/>
					<path class="st4" d="M471.4,113.9c-3.4,3-8.6,2.7-11.6-0.7c-3-3.4-2.7-8.6,0.7-11.6c3.4-3,8.6-2.7,11.6,0.7
						S474.8,110.9,471.4,113.9z"/>
				</g>
				<g>
					<path class="st3" d="M367.5,46.6c-2.7,8.2-11.6,12.6-19.7,9.9c-8.2-2.7-12.6-11.6-9.9-19.7c2.7-8.2,11.5-12.6,19.7-9.9
						C365.8,29.6,370.3,38.5,367.5,46.6z"/>
					<path class="st4" d="M360.5,44.3c-1.4,4.3-6.1,6.6-10.4,5.2c-4.3-1.4-6.6-6.1-5.2-10.3c1.4-4.3,6.1-6.6,10.4-5.2
						C359.6,35.4,361.9,40,360.5,44.3z"/>
				</g>
				<g>
					<path class="st3" d="M236.9,38c1.7,8.5-3.7,16.7-12.1,18.5c-8.4,1.7-16.7-3.7-18.5-12.1c-1.7-8.4,3.7-16.7,12.1-18.5
						C226.9,24.1,235.2,29.5,236.9,38z"/>
					<path class="st4" d="M229.7,39.5c0.9,4.4-1.9,8.8-6.4,9.7c-4.4,0.9-8.8-1.9-9.7-6.4c-0.9-4.4,1.9-8.8,6.4-9.7
						C224.4,32.2,228.7,35.1,229.7,39.5z"/>
				</g>
			</g>
		</g>
	</g>
</g>
<radialGradient id="SVGID_1_" cx="272.3902" cy="105.481" r="15.3774" gradientTransform="matrix(0.9537 -0.3009 0.3009 0.9537 -185.2674 445.7151)" gradientUnits="userSpaceOnUse">
	<stop  offset="5.376340e-03" style="stop-color:#FFFFBB"/>
	<stop  offset="1" style="stop-color:#E1B141"/>
</radialGradient>
<path class="st5" d="M101.6,449.7c-3.9,1.2-7.1,3.9-9,7.6c-3.9,7.5-1,16.8,6.5,20.7c3.6,1.9,7.8,2.3,11.7,1c3.9-1.2,7.1-3.9,9-7.6
	c3.9-7.5,1-16.8-6.5-20.7C109.7,448.8,105.5,448.4,101.6,449.7z"/>
<radialGradient id="SVGID_2_" cx="360.3411" cy="203.0285" r="15.3774" gradientTransform="matrix(0.9537 -0.3009 0.3009 0.9537 -185.2674 445.7151)" gradientUnits="userSpaceOnUse">
	<stop  offset="5.376340e-03" style="stop-color:#FFFFBB"/>
	<stop  offset="1" style="stop-color:#E1B141"/>
</radialGradient>
<path class="st6" d="M214.9,516.2c-3.9,1.2-7.1,3.9-9,7.6c-3.9,7.5-1,16.8,6.5,20.7c3.6,1.9,7.8,2.3,11.7,1c3.9-1.2,7.1-3.9,9-7.6
	c3.9-7.5,1-16.8-6.5-20.7C222.9,515.4,218.8,515,214.9,516.2z"/>
<radialGradient id="SVGID_3_" cx="485.3212" cy="242.4957" r="15.3774" gradientTransform="matrix(0.9537 -0.3009 0.3009 0.9537 -185.2674 445.7151)" gradientUnits="userSpaceOnUse">
	<stop  offset="5.376340e-03" style="stop-color:#FFFFBB"/>
	<stop  offset="1" style="stop-color:#E1B141"/>
</radialGradient>
<path class="st7" d="M345.9,516.3c-3.9,1.2-7.1,3.9-9,7.6c-3.9,7.5-1,16.8,6.5,20.7c5.1,2.6,11.1,2.3,16.1-1.1
	c0.6-0.4,1.1-0.9,1.7-1.4c7.8-7.8,5.4-20.1-3.6-24.8C354,515.4,349.8,515,345.9,516.3z"/>
<radialGradient id="SVGID_4_" cx="613.3999" cy="214.75" r="15.3774" gradientTransform="matrix(0.9537 -0.3009 0.3009 0.9537 -185.2674 445.7151)" gradientUnits="userSpaceOnUse">
	<stop  offset="5.376340e-03" style="stop-color:#FFFFBB"/>
	<stop  offset="1" style="stop-color:#E1B141"/>
</radialGradient>
<path class="st8" d="M459.7,451.3c-3.9,1.2-7.1,3.9-9,7.6c-3.9,7.5-1,16.8,6.5,20.7c3.6,1.9,7.8,2.3,11.7,1c3.9-1.2,7.1-3.9,9-7.6
	c3.9-7.5,1-16.8-6.5-20.7C467.8,450.4,463.6,450,459.7,451.3z"/>
<radialGradient id="SVGID_5_" cx="710.4128" cy="126.6103" r="15.3774" gradientTransform="matrix(0.9537 -0.3009 0.3009 0.9537 -185.2674 445.7151)" gradientUnits="userSpaceOnUse">
	<stop  offset="5.376340e-03" style="stop-color:#FFFFBB"/>
	<stop  offset="1" style="stop-color:#E1B141"/>
</radialGradient>
<path class="st9" d="M525.7,338c-3.9,1.2-7.1,3.9-9,7.6c-3.9,7.5-1,16.8,6.5,20.7c3.6,1.9,7.8,2.3,11.7,1c3.9-1.2,7.1-3.9,9-7.6
	c3.9-7.5,1-16.8-6.5-20.7C533.8,337.2,529.6,336.8,525.7,338z"/>
<radialGradient id="SVGID_6_" cx="749.8575" cy="1.5908" r="15.3774" gradientTransform="matrix(0.9537 -0.3009 0.3009 0.9537 -185.2674 445.7151)" gradientUnits="userSpaceOnUse">
	<stop  offset="5.376340e-03" style="stop-color:#FFFFBB"/>
	<stop  offset="1" style="stop-color:#E1B141"/>
</radialGradient>
<path class="st10" d="M525.7,206.9c-3.9,1.2-7.1,3.9-9,7.6c-3.9,7.5-1,16.8,6.5,20.7c3.6,1.9,7.8,2.3,11.7,1c3.9-1.2,7.1-3.9,9-7.6
	c3.9-7.5,1-16.8-6.5-20.7C533.8,206.1,529.6,205.7,525.7,206.9z"/>
<radialGradient id="SVGID_7_" cx="722.6839" cy="-126.3074" r="15.3774" gradientTransform="matrix(0.9537 -0.3009 0.3009 0.9537 -185.2674 445.7151)" gradientUnits="userSpaceOnUse">
	<stop  offset="5.376340e-03" style="stop-color:#FFFFBB"/>
	<stop  offset="1" style="stop-color:#E1B141"/>
</radialGradient>
<path class="st11" d="M461.3,93.1c-3.9,1.2-7.1,3.9-9,7.6c-3.9,7.5-1,16.8,6.5,20.7c3.6,1.9,7.8,2.3,11.7,1c3.9-1.2,7.1-3.9,9-7.6
	c3.9-7.5,1-16.8-6.5-20.7C469.4,92.3,465.2,91.9,461.3,93.1z"/>
<radialGradient id="SVGID_8_" cx="634.5593" cy="-223.368" r="15.3774" gradientTransform="matrix(0.9537 -0.3009 0.3009 0.9537 -185.2674 445.7151)" gradientUnits="userSpaceOnUse">
	<stop  offset="5.376340e-03" style="stop-color:#FFFFBB"/>
	<stop  offset="1" style="stop-color:#E1B141"/>
</radialGradient>
<path class="st12" d="M348.1,27.1c-3.9,1.2-7.1,3.9-9,7.6c-3.9,7.5-1,16.8,6.5,20.7c3.6,1.9,7.8,2.3,11.7,1c3.9-1.2,7.1-3.9,9-7.6
	c3.9-7.5,1-16.8-6.5-20.7C356.2,26.2,352,25.8,348.1,27.1z"/>
<radialGradient id="SVGID_9_" cx="509.7197" cy="-263.3829" r="15.3774" gradientTransform="matrix(0.9537 -0.3009 0.3009 0.9537 -185.2674 445.7151)" gradientUnits="userSpaceOnUse">
	<stop  offset="5.376340e-03" style="stop-color:#FFFFBB"/>
	<stop  offset="1" style="stop-color:#E1B141"/>
</radialGradient>
<path class="st13" d="M217,26.5c-3.9,1.2-7.1,3.9-9,7.6c-3.9,7.5-1,16.8,6.5,20.7c3.6,1.9,7.8,2.3,11.7,1c3.9-1.2,7.1-3.9,9-7.6
	c3.9-7.5,1-16.8-6.5-20.7C225.1,25.6,220.9,25.2,217,26.5z"/>
<radialGradient id="SVGID_10_" cx="381.1059" cy="-235.7691" r="15.3774" gradientTransform="matrix(0.9537 -0.3009 0.3009 0.9537 -185.2674 445.7151)" gradientUnits="userSpaceOnUse">
	<stop  offset="5.376340e-03" style="stop-color:#FFFFBB"/>
	<stop  offset="1" style="stop-color:#E1B141"/>
</radialGradient>
<path class="st14" d="M102.6,91.5c-3.9,1.2-7.1,3.9-9,7.6c-3.9,7.5-1,16.8,6.5,20.7c5.1,2.6,11.1,2.3,16.1-1.1
	c0.6-0.4,1.1-0.9,1.7-1.4c7.8-7.8,5.4-20.1-3.6-24.8C110.7,90.6,106.5,90.3,102.6,91.5z"/>
<radialGradient id="SVGID_11_" cx="284.581" cy="-147.5145" r="15.3774" gradientTransform="matrix(0.9537 -0.3009 0.3009 0.9537 -185.2674 445.7151)" gradientUnits="userSpaceOnUse">
	<stop  offset="5.376340e-03" style="stop-color:#FFFFBB"/>
	<stop  offset="1" style="stop-color:#E1B141"/>
</radialGradient>
<path class="st15" d="M37.1,204.7c-3.9,1.2-7.1,3.9-9,7.6c-3.9,7.5-1,16.8,6.5,20.7c3.6,1.9,7.8,2.3,11.7,1c3.9-1.2,7.1-3.9,9-7.6
	c3.9-7.5,1-16.8-6.5-20.7C45.2,203.9,41,203.5,37.1,204.7z"/>
<radialGradient id="SVGID_12_" cx="244.5661" cy="-22.6749" r="15.3774" gradientTransform="matrix(0.9537 -0.3009 0.3009 0.9537 -185.2674 445.7151)" gradientUnits="userSpaceOnUse">
	<stop  offset="5.376340e-03" style="stop-color:#FFFFBB"/>
	<stop  offset="1" style="stop-color:#E1B141"/>
</radialGradient>
<path class="st16" d="M36.5,335.8c-3.9,1.2-7.1,3.9-9,7.6c-3.9,7.5-1,16.8,6.5,20.7c3.6,1.9,7.8,2.3,11.7,1c3.9-1.2,7.1-3.9,9-7.6
	c3.9-7.5,1-16.8-6.5-20.7C44.6,335,40.4,334.6,36.5,335.8z"/>
</svg>
