<?xml version="1.0" encoding="utf-8"?>
<!-- Generator: Adobe Illustrator 24.1.2, SVG Export Plug-In . SVG Version: 6.00 Build 0)  -->
<svg version="1.1" id="Layer_1" xmlns="http://www.w3.org/2000/svg" xmlns:xlink="http://www.w3.org/1999/xlink" x="0px" y="0px"
	 viewBox="0 0 161 188" style="enable-background:new 0 0 161 188;" xml:space="preserve">
<style type="text/css">
	.st0{fill:#FF9100;}
	.st1{fill:#FFB864;}
	.st2{fill:#221E1F;}
</style>
<g>
	<g>
		<g>
			<g>
				<g>
					<path class="st0" d="M77.5,180.6c40.9,1.2,100.3-105.3,68.5-150.9C135.4,14.6,99,8.2,82.6,7.8C66.1,7.3,29.4,11.5,18,25.9
						C-16.5,69.5,36.6,179.4,77.5,180.6z"/>
					<path class="st1" d="M82.8,0.1c13.4,0.4,54.7,5.7,67.7,24.5c13.7,19.6,14,50.6,1,85.1c-14.8,39.2-46.6,79.3-74.3,78.5
						c-27.6-0.8-57.1-42.7-69.5-82.7c-11-35.2-8.8-66.2,6-84.9C27.9,2.6,69.4-0.3,82.8,0.1z M77.7,172.9c20,0.6,48.2-30.6,62.9-69.6
						c5.1-13.6,15.5-47.5,0.8-68.6c-8.1-11.6-40.1-18.8-59-19.4c-19-0.6-51.3,4.8-60.1,15.9C6.4,51.4,14.7,85.9,19,99.8
						C31.4,139.5,57.7,172.3,77.7,172.9z"/>
				</g>
				<g>
					<path class="st2" d="M78.3,151.7c10.8,0.3,49-92.8,47-96.7c-12-23.1-74.9-25-88.2-2.6C34.8,56.2,67.2,151.4,78.3,151.7z"/>
					<path class="st0" d="M77.3,130c6,0.2,27.1-51.3,26-53.5c-6.6-12.8-41.4-13.8-48.8-1.4C53.3,77.2,71.2,129.8,77.3,130z"/>
				</g>
			</g>
		</g>
	</g>
</g>
</svg>
