<?xml version="1.0" encoding="utf-8"?>
<!-- Generator: Adobe Illustrator 24.1.2, SVG Export Plug-In . SVG Version: 6.00 Build 0)  -->
<svg version="1.1" xmlns="http://www.w3.org/2000/svg" xmlns:xlink="http://www.w3.org/1999/xlink" x="0px" y="0px"
	 viewBox="0 0 41.38 41.38" style="enable-background:new 0 0 41.38 41.38;" xml:space="preserve">
<style type="text/css">
	.st0{fill:#263238;}
	.st1{opacity:0.2;fill:url(#SVGID_1_);}
	.st2{opacity:0.1;}
	.st3{fill:#FBC02D;}
	.st4{opacity:0.2;fill:url(#SVGID_2_);}
</style>
<g id="Ñëîé_1">
</g>
<g id="Ñëîé_2">
	<g>
		<g>
			<g>
				<path class="st0" d="M41.17,20.75c0,11.28-9.14,20.42-20.42,20.42c-11.28,0-20.42-9.14-20.42-20.42
					c0-11.28,9.14-20.42,20.42-20.42C32.03,0.34,41.17,9.48,41.17,20.75z"/>
				<linearGradient id="SVGID_1_" gradientUnits="userSpaceOnUse" x1="20.7504" y1="0.3374" x2="20.7504" y2="41.1729">
					<stop  offset="0" style="stop-color:#FFFFFF"/>
					<stop  offset="1" style="stop-color:#000000"/>
				</linearGradient>
				<path class="st1" d="M20.75,0.34C9.47,0.34,0.33,9.48,0.33,20.75c0,11.28,9.14,20.42,20.42,20.42
					c11.28,0,20.42-9.14,20.42-20.42C41.17,9.48,32.03,0.34,20.75,0.34z M20.75,39.71c-10.45,0-18.96-8.51-18.96-18.96
					S10.3,1.8,20.75,1.8c10.45,0,18.96,8.51,18.96,18.96S31.2,39.71,20.75,39.71z"/>
			</g>
			<g>
				<path class="st2" d="M32.42,22.21c0,5.64-4.57,10.21-10.21,10.21C16.57,32.42,12,27.85,12,22.21C12,16.57,16.57,12,22.21,12
					C27.85,12,32.42,16.57,32.42,22.21z"/>
				<path class="st3" d="M29.5,20.75c0,4.83-3.92,8.75-8.75,8.75S12,25.59,12,20.75c0-4.83,3.92-8.75,8.75-8.75
					S29.5,15.92,29.5,20.75z"/>
				<linearGradient id="SVGID_2_" gradientUnits="userSpaceOnUse" x1="20.75" y1="12.0044" x2="20.75" y2="29.5049">
					<stop  offset="0" style="stop-color:#FFFFFF"/>
					<stop  offset="1" style="stop-color:#000000"/>
				</linearGradient>
				<path class="st4" d="M20.75,12C15.92,12,12,15.92,12,20.75c0,4.83,3.92,8.75,8.75,8.75s8.75-3.92,8.75-8.75
					C29.5,15.92,25.58,12,20.75,12z M20.75,28.05c-4.02,0-7.29-3.27-7.29-7.29c0-4.02,3.27-7.29,7.29-7.29
					c4.02,0,7.29,3.27,7.29,7.29C28.04,24.78,24.77,28.05,20.75,28.05z"/>
			</g>
		</g>
	</g>
</g>
</svg>
