<?xml version="1.0" encoding="utf-8"?>
<!-- Generator: Adobe Illustrator 24.1.1, SVG Export Plug-In . SVG Version: 6.00 Build 0)  -->
<svg version="1.1" id="Layer_1" xmlns="http://www.w3.org/2000/svg" xmlns:xlink="http://www.w3.org/1999/xlink" x="0px" y="0px"
	 viewBox="0 0 105.13 98.21" style="enable-background:new 0 0 105.13 98.21;" xml:space="preserve">
<style type="text/css">
	.st0{opacity:0.42;}
	.st1{fill:#FFFFFF;}
	.st2{fill:#DD9136;}
	.st3{fill:#E8A638;}
	.st4{fill:#DFA036;}
	.st5{fill:#E3B637;}
	.st6{fill:#BE9173;}
	.st7{fill:#EDD2C1;}
	.st8{fill:#E9AC39;}
	.st9{fill:#EAB339;}
	.st10{fill:#ECBE39;}
	.st11{fill:#D08732;}
	.st12{fill:#BA662A;}
	.st13{fill:#EECE39;}
</style>
<g>
	<g class="st0">
		<path class="st1" d="M30.22,62.12c3.87,1.1,7.65-2.96,10.19-5.63c2.86-3.01,6.95-7.07,7.36-11.61c0.23-2.52-2.07-4.78-4.36-3.68
			c-3.33,1.61-5.36,5.53-7.6,8.49c-1.1,1.45-2.19,2.91-3.24,4.41c-1.02,1.46-1.89,3.44-3.2,4.58C28.09,59.8,28.79,61.71,30.22,62.12
			L30.22,62.12z"/>
	</g>
	<g>
	</g>
</g>
<g>
	<g>
		<g>
			<g>
				<path class="st2" d="M78.18,5.82c-1.99,3.29-0.96,7.58,2.3,9.59c3.26,2.01,7.52,0.97,9.51-2.32c1.99-3.29,0.96-7.58-2.31-9.59
					C84.43,1.49,80.17,2.53,78.18,5.82z M80.66,7.35c1.16-1.91,3.63-2.52,5.53-1.35c1.9,1.16,2.5,3.66,1.34,5.57
					c-1.16,1.91-3.63,2.52-5.53,1.35C80.1,11.76,79.5,9.26,80.66,7.35z"/>
				<path class="st3" d="M66.77,13.44c-2.15,2.54-4.15,5.86-4.15,5.86l21.4,13.16c0,0,3.03-5.76,3.34-6.53
					c1.54-3.83-0.86-8.45-6.77-12.08C74.69,10.22,69.71,9.96,66.77,13.44z"/>
				<path class="st4" d="M28.41,41.46l50.43,31.27c0,0-1.73-3.85-0.77-7.31c1.2-4.35,3.09-10,4.85-15.05l0-0.01
					c0.55-1.6,1.1-3.14,1.6-4.56l0-0.01c0.42-1.17,0.81-2.26,1.16-3.24c0.9-2.48,1.53-4.17,1.65-4.5c0.01-0.01,0-0.02,0.01-0.02
					c2.58-7.34,0.29-14.82-9.72-20.98c-10.02-6.16-16.98-4.91-21.44,0.12c-0.23,0.26-0.56,0.62-0.97,1.06
					c-0.81,0.88-1.94,2.1-3.27,3.52c-0.73,0.78-1.52,1.62-2.36,2.51c-1.05,1.12-2.18,2.3-3.33,3.51c-3.75,3.92-7.8,8.08-10.82,11.01
					C32.75,41.41,28.41,41.46,28.41,41.46z"/>
				<path class="st5" d="M46.25,27.79c13.33,5.52,25.71,13.14,36.66,22.58c0.55-1.6,1.1-3.14,1.6-4.56l0-0.01
					c-10.54-8.86-22.31-16.11-34.94-21.53C48.53,25.4,47.4,26.58,46.25,27.79z"/>
				<path class="st5" d="M51.95,21.77c12.19,5.23,23.56,12.24,33.74,20.8c0.9-2.48,1.53-4.17,1.65-4.5
					c-9.77-8.03-20.58-14.7-32.13-19.81C54.41,19.14,53.28,20.35,51.95,21.77z"/>
				<path class="st6" d="M61.06,18.43c-5.79,3.05-9.9,8-14.69,12.33c-2.91,2.63-6.02,5.19-9.62,6.76c2.83-2.8,6.28-6.35,9.51-9.73
					c1.15-1.2,2.28-2.39,3.33-3.51c0.84-0.89,1.63-1.73,2.36-2.51c1.33-1.42,2.46-2.63,3.27-3.52c0.41-0.45,0.73-0.8,0.97-1.06
					c3.97-4.48,9.95-5.95,18.29-1.86C69.84,15.03,65.19,16.25,61.06,18.43z"/>
				<path class="st7" d="M47.72,49.08c2.63-0.15,18.88,10.6,23.22,7.78c3.4-2.21,4.17-5.29,5.31-8.58c0.19-0.56-7.04-8.29-7.04-8.29
					l8.03,5.75c0,0,0.89-1.77,1.5-2.65c0.58-0.83,1.18-1.71,1.77-2.63c0.16-0.25-4.96-5.62-4.96-5.62l5.93,4.27
					c2.43-4.44,4.45-10.8,2.28-17.16c4.71,5.04,5.51,10.6,3.58,16.09c0,0,0,0.01-0.01,0.02c-0.12,0.32-0.75,2.02-1.65,4.5
					c-0.35,0.97-0.74,2.06-1.16,3.24l0,0.01c-0.51,1.42-1.05,2.96-1.6,4.56l0,0.01c-1.76,5.05-3.65,10.7-4.85,15.05
					c-0.96,3.45,0.77,7.31,0.77,7.31L51.78,55.96C52.81,56.08,46.67,49.14,47.72,49.08z"/>
				<path class="st3" d="M23.32,42.32c-3.02,2.2-5.11,5.69-5.11,5.69l59.34,36.5c0,0,2.62-6.39,2.75-7.32
					c0.63-4.62-8.4-13.48-24.78-23.56C39.13,43.55,27.46,39.32,23.32,42.32z"/>
				<path class="st7" d="M44.38,56.63C55.65,58.95,71.09,72.96,75.86,76c1.66,1.06,3.29,0.41,4.2-0.81
					c0.24,0.73,0.32,1.41,0.24,2.01c-0.13,0.93-2.75,7.32-2.75,7.32S40.38,55.8,44.38,56.63z"/>
				<path class="st8" d="M23.32,42.32c-3.02,2.2-5.11,5.69-5.11,5.69l2.05,1.26c0,0,3.98-6.93,10.72-4.96
					c20.34,5.96,44.19,23.61,39.36,19.66c-3.9-3.19-8.88-6.69-14.82-10.35C39.13,43.55,27.46,39.32,23.32,42.32z"/>
				<path class="st9" d="M16.95,48.08c-3.12,2.13-5.21,5.63-5.21,5.63l64.28,39.54c0,0,2.55-6.44,2.65-7.38
					c0.5-4.71-9.4-14.1-27.16-25.02C33.76,49.92,21.23,45.16,16.95,48.08z"/>
				<path class="st10" d="M16.95,48.08c-3.12,2.13-5.21,5.63-5.21,5.63l2.22,1.36c0,0-0.11-4.05,5.63-5.55
					c5.75-1.5,49.68,22.24,31.93,11.32C33.76,49.92,21.23,45.16,16.95,48.08z"/>
				<path class="st11" d="M11.74,53.71c-1.96,3.25,10.83,14.73,28.58,25.65c17.75,10.92,33.73,17.14,35.7,13.89
					c0.51-0.85,0.02-2.25-1.3-4.05c-3.75-5.14-14.16-13.52-27.29-21.6C34.31,59.52,22.14,54.02,15.9,53.01
					C13.71,52.66,12.25,52.86,11.74,53.71z"/>
				<path class="st12" d="M15.9,53.01c3.75,5.14,14.16,13.52,27.29,21.6c13.13,8.07,25.29,13.57,31.53,14.58
					c-3.75-5.14-14.16-13.52-27.29-21.6C34.31,59.52,22.14,54.02,15.9,53.01z"/>
				<g>
					<path class="st9" d="M31.97,68.74c-2.22,3.66-1.07,8.45,2.57,10.68c3.63,2.24,8.38,1.08,10.59-2.59
						c2.22-3.67,1.07-8.45-2.57-10.69C38.93,63.92,34.19,65.08,31.97,68.74z"/>
					<polygon class="st9" points="38.25,68.81 42.19,71.23 46.49,64.12 42.55,61.7 					"/>
				</g>
				<path class="st13" d="M32.15,73.7c0.18,1.81,1.23,3.18,2.35,3.07c1.12-0.11,1.88-1.67,1.7-3.48c-0.18-1.81-1.23-3.18-2.35-3.06
					C32.74,70.34,31.98,71.89,32.15,73.7z"/>
			</g>
		</g>
	</g>
</g>
</svg>
