<?xml version="1.0" encoding="utf-8"?>
<!-- Generator: Adobe Illustrator 24.1.1, SVG Export Plug-In . SVG Version: 6.00 Build 0)  -->
<svg version="1.1" id="Layer_1" xmlns="http://www.w3.org/2000/svg" xmlns:xlink="http://www.w3.org/1999/xlink" x="0px" y="0px"
	 viewBox="0 0 105.13 98.21" style="enable-background:new 0 0 105.13 98.21;" xml:space="preserve">
<style type="text/css">
	.st0{fill:#496D31;}
	.st1{fill:#84A14F;}
	.st2{fill:#A50E32;}
	.st3{fill:#AF1E3B;}
	.st4{clip-path:url(#SVGID_2_);}
	.st5{fill:#990E35;}
	.st6{fill:#AD1742;}
	.st7{opacity:0.21;clip-path:url(#SVGID_2_);fill:#AF1E3B;}
	.st8{clip-path:url(#SVGID_4_);}
	.st9{fill:#9B1334;}
	.st10{fill:#B52D4E;}
	.st11{opacity:0.21;clip-path:url(#SVGID_4_);fill:#AF1E3B;}
	.st12{opacity:0.15;clip-path:url(#SVGID_4_);fill:#AF1E3B;}
	.st13{opacity:0.07;}
	.st14{fill:#FFFFFF;}
	.st15{opacity:0.13;fill:#FFFFFF;}
	.st16{opacity:0.1;fill:#FFFFFF;}
	.st17{clip-path:url(#SVGID_6_);fill:#79963C;}
	.st18{fill:#A04C13;}
	.st19{fill:#BC5B19;}
	.st20{fill:#C66524;}
	.st21{clip-path:url(#SVGID_8_);}
	.st22{fill:#698234;}
	.st23{fill:#92B358;}
	.st24{opacity:0.21;}
</style>
<g>
	<g>
		<path class="st0" d="M39.6,68.76c-0.35-3.1,0.04-6.23,0.47-9.16c0.48-3.29,1.08-6.79,2.19-10.1c1.77-5.22,4.78-9.91,7.7-14.45
			c1.69-2.63,3.43-5.34,5.35-7.89c5.04-6.7,11.67-12.88,20.87-19.46l3.3-2.36l-2.46,3.2c-9.92,12.92-12.84,30.47-7.62,45.81
			c0.56,1.64,1.21,3.28,1.85,4.86c0.97,2.42,1.96,4.91,2.65,7.48L72.73,67c-0.67-2.5-1.65-4.97-2.61-7.35
			c-0.64-1.6-1.3-3.26-1.87-4.92c-4.94-14.53-2.75-31.01,5.65-43.87c-7.56,5.7-13.21,11.16-17.62,17.01
			c-1.89,2.51-3.63,5.21-5.3,7.82c-2.88,4.47-5.85,9.1-7.57,14.19c-1.09,3.22-1.67,6.66-2.15,9.9c-0.42,2.86-0.79,5.9-0.46,8.86
			L39.6,68.76z"/>
	</g>
	<path class="st1" d="M74.58,9.3C67.93,6.42,60.96,3.47,53.7,3.89c-2.46,0.14-4.87,0.67-7.27,1.22c-4.25,0.97-8.58,2.06-12.22,4.41
		c-2.59,1.68-4.74,3.94-6.65,6.34c-4.63,5.83-7.99,12.61-9.81,19.78c-0.71,2.8-1.19,5.67-2.32,8.33c-1.4,3.31-3.79,6.21-6.79,8.26
		c0.79,0.6,2.01,0,3.01,0.04c11.76,0.48,23.64-2.06,34.14-7.3c2.88-1.44,5.67-3.08,8.1-5.16c4.36-3.74,7.39-8.73,10.23-13.68
		c2.05-3.58,4.05-7.19,5.98-10.83C71.22,13.19,72.58,10.65,74.58,9.3z"/>
	<path class="st2" d="M19.65,57.98c-4.91,2.9-7.84,8.37-8.69,13.93c-1.28,8.32,1.81,17.18,8.03,22.98c0.73,0.68,1.52,1.33,2.45,1.72
		c0.86,0.36,1.81,0.48,2.74,0.59c2.27,0.26,4.55,0.5,6.82,0.31c4.66-0.39,9.04-2.6,12.49-5.69c3.45-3.09,6.02-7.03,7.98-11.2
		c1.69-3.58,2.95-7.73,1.54-11.42c-1.4-3.67-5.19-6.01-9.07-6.95c-2.46-0.6-4.72-1.05-6.96-2.28c-1.57-0.86-2.98-1.99-4.61-2.75
		C28.39,55.35,23.41,55.75,19.65,57.98z"/>
	<path class="st3" d="M57.17,70.03c-1.29,2.13-1.28,4.78-0.91,7.23c0.88,5.91,3.72,11.62,8.34,15.5c4.62,3.88,11.08,5.77,17.01,4.42
		c2.34-0.53,4.6-1.57,6.31-3.23c2.05-1.99,4.88-4.63,5.87-7.29c1.9-5.1,1.85-10.56,1.27-15.96c-0.67-6.24-5.09-12.46-11.91-12.85
		c-6.17-0.36-10.45,2.83-15.57,5.47C64.11,65.11,59.29,66.53,57.17,70.03z"/>
	<g>
		<defs>
			<path id="SVGID_1_" d="M19.65,57.98c-4.91,2.9-7.84,8.37-8.69,13.93c-1.28,8.32,1.81,17.18,8.03,22.98
				c0.73,0.68,1.52,1.33,2.45,1.72c0.86,0.36,1.81,0.48,2.74,0.59c2.27,0.26,4.55,0.5,6.82,0.31c4.66-0.39,9.04-2.6,12.49-5.69
				c3.45-3.09,6.02-7.03,7.98-11.2c1.69-3.58,2.95-7.73,1.54-11.42c-1.4-3.67-5.19-6.01-9.07-6.95c-2.46-0.6-4.72-1.05-6.96-2.28
				c-1.57-0.86-2.98-1.99-4.61-2.75C28.39,55.35,23.41,55.75,19.65,57.98z"/>
		</defs>
		<clipPath id="SVGID_2_">
			<use xlink:href="#SVGID_1_"  style="overflow:visible;"/>
		</clipPath>
		<g class="st4">
			<g>
				<path class="st5" d="M39.84,57.56c-2.74-2.26-5.51-3.54-9.11-3.8c-3.18-0.23-6.46,0.56-9.33,1.87
					c-5.41,2.46-9.59,7.55-11.02,13.21c-1.63,6.46,0.11,14.06,2.01,20.32c0.93,3.05,2.27,5.92,4.31,8.41
					c1.84,2.24,5.29,4.15,8.25,3.63c1.67-0.29,2.33-2.43,1.55-3.73c-0.56-0.92-1.35-1.45-2.08-2.23c-0.71-0.76-1.31-1.63-1.95-2.45
					c-1.4-1.79-2.25-3.83-2.88-5.98c-1.34-4.61-2.9-10.28-2.12-15.09c0.62-3.82,3.11-7.25,6.55-9.12c3.88-2.11,9.16-1.9,13.35-0.87
					C39.67,62.3,41.88,59.25,39.84,57.56L39.84,57.56z"/>
			</g>
		</g>
		<g class="st4">
			<g>
				<path class="st6" d="M43.29,64.58c3.02,0.44,4.8,3.09,5.54,5.85c1.02,3.82-0.81,8.06-2.24,11.54
					c-1.43,3.49-2.99,7.17-5.49,10.07c-1.14,1.32-2.44,2.44-3.97,3.29c-1.73,0.97-3.36,0.93-5.2,1.42c-1.84,0.49-3.4,2.27-2.97,4.19
					c0.53,2.41,3.14,3.13,5.31,2.9c4.1-0.44,7.79-2.32,10.84-5.01c2.96-2.62,5.17-6.1,6.85-9.62c1.85-3.88,3.69-8.06,4.46-12.29
					c0.84-4.6,0.53-9.58-2.62-13.33c-2.58-3.07-6.55-4.44-10.5-3.84C40.86,60.13,40.84,64.23,43.29,64.58L43.29,64.58z"/>
			</g>
		</g>
		<path class="st7" d="M56.9,74.13c-0.64-4.55-3.1-5.66-3.74-1.1c-0.09,0.63-3.85,4.09-12.86,3.12c-3.23-0.35-6.59-1.55-8.79-4.01
			C29,69.34,24.59,64,30.3,56.36c0.38-0.51,0.31-1.17,0.25-1.73c0.8-0.7,1.82-1.11,3.11-1.06c2.86,0.11,3.47-4.24,0.68-4.91
			c-3.04-0.73-6.02-0.01-8.51,1.82c-0.07,0.05-0.14,0.11-0.21,0.17c-1.11-0.01-2.18,0.39-2.95,1.35c-0.45,0.47-0.86,0.97-1.23,1.5
			c-2.86,3.44-9.97,4.63-10.97,9.23c-0.72,3.28-2.3,5.86-1.61,9.13c-0.81,0.34,1.17,4.67,0.75,5.46c-2.37,4.44,2.96,7.99,5.01,12.16
			c1.94,3.94,5.02,7.1,8.76,9.46c3.59,2.27,8.39,4.45,12.75,3.94c1.99-0.24,3.79-1.06,5.53-2.01c0.79-0.43,1.57-0.86,2.38-1.25
			c0.76-0.37,1.41-1,2.18-1.32c2-0.82,2.53-2.91,1.45-4.32c1.3-0.74,2.46-1.72,3.4-3.09c0.87-1.26,0.81-2.97,0.13-4.39
			C55.27,83.57,58.38,79.09,56.9,74.13z"/>
		<path class="st7" d="M57.67,81.05c-0.88-4.55-4.31-5.66-5.19-1.1c-0.12,0.63-5.35,4.09-17.86,3.12
			c-4.49-0.35-9.15-1.55-12.21-4.01c-3.48-2.8-11.75-14.66-3.82-22.3c0.53-0.51,6.56-4.56,3.1-2.73c-0.1,0.05-7.37,3.49-7.47,3.54
			c-1.53-0.01-3.02,0.39-4.09,1.35c-0.63,0.47-1.2,0.97-1.71,1.5c-3.97,3.44-13.84,4.63-15.24,9.23c-1,3.28-3.2,5.86-2.23,9.13
			c-1.13,0.34,1.62,4.67,1.04,5.46c-3.28,4.44,4.11,7.99,6.96,12.16c2.69,3.94,6.97,7.1,12.16,9.46c4.98,2.27,11.65,4.45,17.7,3.94
			c2.76-0.24,5.26-1.06,7.68-2.01c1.09-0.43,2.18-0.86,3.3-1.25c1.06-0.37,1.96-1,3.03-1.32c2.78-0.82,3.52-2.91,2.01-4.32
			c1.81-0.74,3.42-1.72,4.73-3.09c1.21-1.26,1.12-2.97,0.19-4.39C55.4,90.5,59.73,86.02,57.67,81.05z"/>
		<path class="st7" d="M55.75,87.58c-0.96-4.96-4.7-6.17-5.66-1.2c-0.13,0.69-5.83,4.46-19.47,3.4c-4.89-0.38-9.98-1.69-13.31-4.37
			c-3.8-3.05-12.81-15.99-4.16-24.32c0.58-0.56,7.15-4.97,3.38-2.97c-0.11,0.06-8.04,3.8-8.15,3.86c-1.67-0.01-3.3,0.42-4.46,1.47
			c-0.69,0.51-1.31,1.06-1.87,1.64c-4.33,3.76-15.09,5.05-16.61,10.07c-1.09,3.58-3.49,6.39-2.43,9.95
			c-1.23,0.37,1.77,5.09,1.13,5.95c-3.58,4.84,4.48,8.71,7.59,13.26c2.94,4.29,7.6,7.74,13.26,10.32c5.43,2.48,12.7,4.85,19.3,4.29
			c3.01-0.26,5.74-1.16,8.37-2.19c1.19-0.47,2.38-0.93,3.6-1.36c1.16-0.41,2.13-1.1,3.3-1.44c3.03-0.89,3.84-3.18,2.19-4.71
			c1.97-0.81,3.72-1.88,5.15-3.37c1.32-1.37,1.22-3.24,0.2-4.79C53.28,97.88,57.99,92.99,55.75,87.58z"/>
	</g>
	<g>
		<defs>
			<path id="SVGID_3_" d="M57.17,70.03c-1.29,2.13-1.28,4.78-0.91,7.23c0.88,5.91,3.72,11.62,8.34,15.5
				c4.62,3.88,11.08,5.77,17.01,4.42c2.34-0.53,4.6-1.57,6.31-3.23c2.05-1.99,4.88-4.63,5.87-7.29c1.9-5.1,1.85-10.56,1.27-15.96
				c-0.67-6.24-5.09-12.46-11.91-12.85c-6.17-0.36-10.45,2.83-15.57,5.47C64.11,65.11,59.29,66.53,57.17,70.03z"/>
		</defs>
		<clipPath id="SVGID_4_">
			<use xlink:href="#SVGID_3_"  style="overflow:visible;"/>
		</clipPath>
		<g class="st8">
			<g>
				<path class="st9" d="M69.35,60.17c-6.35-1.08-12.03,2.61-14.11,8.55c-2.26,6.46-0.22,13.9,3.18,19.62
					c3.11,5.22,7.84,9.48,13.7,11.48c5.87,2.01,13.66,1.69,18.14-2.93c1.95-2.02,0.04-6.09-2.97-5c-4.07,1.47-7.96,2.51-12.24,1.23
					c-3.95-1.18-7.18-4.1-9.35-7.48c-2.31-3.6-4.06-8.18-3.44-12.49c0.53-3.66,3.28-7.37,7.09-8.15
					C71.74,64.5,71.83,60.59,69.35,60.17L69.35,60.17z"/>
			</g>
		</g>
		<g class="st8">
			<g>
				<path class="st10" d="M75.03,62.82c2.94-1.16,7.04-1.59,10.07-0.54c3.28,1.14,5.3,4.15,6.44,7.24
					c1.36,3.71,2.25,7.84,2.44,11.78c0.1,2.12-0.01,4.23-0.72,6.25c-0.72,2.06-2.14,3.61-2.65,5.76c-0.49,2.09,1.34,3.96,3.5,3.44
					c5.91-1.44,7.38-9.57,7.28-14.67c-0.11-5.47-1.3-11.36-3.5-16.4c-2.09-4.8-5.68-8.73-10.83-10.41
					c-5.32-1.74-10.68-0.66-14.52,3.37C70.97,60.31,72.52,63.82,75.03,62.82L75.03,62.82z"/>
			</g>
		</g>
		<path class="st11" d="M100.46,68.79c-0.82-2.26,0.39-4.32-2.14-3.95c-2.26,0.33-3.42,1.57-6.21,4.51
			c-1.2,1.26-5.35,4.79-6.93,5.63c-2.92,1.55-4.88,1.97-8.16,2.45c-3.86,0.56-7.32,0.15-10.59-1.99c-3.85-2.52-2.37-8.33-1.97-11.8
			c0.57-4.97-6.94-6.36-9.23-2.45c-1.8,3.06-2.27,6.58-2.09,10.06c0.16,3.08,0.35,6.42,1.12,9.41c0.66,2.58,1.92,4.84,3.6,6.75
			c0,0.03,0.01,0.05,0.01,0.08c0.76,5.36,5.46,10.1,10.88,11.06c2.74,0.49,5.42,0.69,8.07,0.08c1.7-0.06,3.77,0.08,5.46-0.42
			c0.98-0.29,4.7-2.68,5.82-2.95c1.97-0.48,2.78-1.93,2.72-3.4c0.7-0.67,1.38-1.37,2.02-2.11c3.09-3.57,6.42-7.07,6.91-11.91
			c0.07-0.64-0.04-1.2-0.26-1.7C100.82,73.91,101.42,71.43,100.46,68.79z"/>
		<path class="st12" d="M110.26,73.56c-1.27-2.21,0.39-4.34-3.22-3.82c-3.21,0.46-4.83,1.77-8.69,4.86
			c-1.66,1.33-7.46,5.09-9.68,6.01c-4.12,1.72-7.51,2.56-12.18,3.22c-5.49,0.78-8.5,0.91-13.27-1.05c-5.61-2.3-5.07-8.85-4.65-12.34
			c0.61-5-10.18-5.96-13.3-1.93c-2.45,3.16-2.97,6.7-2.58,10.17c0.35,3.07,0.77,6.39,1.99,9.34c1.05,2.54,2.94,4.73,5.42,6.54
			c0.01,0.03,0.01,0.05,0.02,0.08c1.3,5.31,8.22,9.79,16.01,10.44c3.94,0.33,7.77,0.38,11.55-0.37c2.42-0.16,5.4-0.13,7.79-0.73
			c1.4-0.35,6.61-2.94,8.2-3.27c2.8-0.59,3.9-2.08,3.75-3.55c0.98-0.71,1.91-1.45,2.8-2.23c4.27-3.75,8.88-7.43,9.39-12.29
			c0.07-0.64-0.11-1.2-0.44-1.68C110.99,78.65,111.74,76.15,110.26,73.56z"/>
		<path class="st12" d="M108.03,77.74c-1.51-2.06-0.1-4.35-3.62-3.45c-3.14,0.8-4.61,2.27-8.1,5.76c-1.5,1.5-5.84,6.62-7.94,7.78
			c-3.9,2.15-7.1,3.77-11.66,4.93c-5.37,1.36-9.91,0.59-14.87-0.84c-5.83-1.68-5.56-8.21-5.52-11.73
			c0.05-5.03-10.78-4.83-13.44-0.49c-2.08,3.41-2.21,6.98-1.43,10.39c0.69,3.01,1.48,6.27,3.02,9.07c1.33,2.41,3.45,4.39,6.12,5.92
			c0.01,0.02,0.01,0.05,0.02,0.07c1.89,5.14,9.26,8.85,17.08,8.66c3.95-0.09,7.77-0.45,11.44-1.61c2.39-0.42,5.35-0.71,7.66-1.56
			c1.35-0.5,6.24-3.63,7.78-4.13c2.72-0.89,3.64-2.49,3.33-3.93c0.89-0.81,1.74-1.64,2.53-2.51c3.83-4.18,8-8.34,7.97-13.22
			c0-0.64-0.24-1.18-0.63-1.62C109.32,82.72,109.79,80.15,108.03,77.74z"/>
	</g>
	<g class="st13">
		<path class="st14" d="M36.38,67.98c0.05-0.73-0.07,0.77-0.08,0.94c-0.03,0.46-0.07,0.98-0.06,1.44c0.02,1.11,0.2,2.2,0.2,3.31
			c-0.01,1.83-0.36,3.52-1.3,5.14c-2.17,3.74-6.55,4.6-9.12,7.84c-1.8,2.27-1.27,5.32,1.7,6.31c7.89,2.62,15.66-6.46,17.87-12.85
			c1.27-3.66,1.55-8.34-0.53-11.77C43.48,65.73,36.7,62.98,36.38,67.98L36.38,67.98z"/>
	</g>
	<g class="st13">
		<path class="st14" d="M77.51,68.64c-1.22-0.13-0.57-0.01,0.02,0.34c0.36,0.22,0.78,0.36,1.12,0.62c0.61,0.46,1.22,1.13,1.68,1.72
			c0.89,1.14,1.5,2.48,1.75,3.89c0.64,3.65-2.03,7.07-0.46,10.71c0.36,0.83,1.65,1.54,2.56,1.44c7.46-0.85,7.56-11.61,5.32-16.73
			c-1.27-2.9-3.58-5.56-6.72-6.56c-2.53-0.81-6.08-0.5-6.96,2.38C75.46,67.63,76.42,68.53,77.51,68.64L77.51,68.64z"/>
	</g>
	<path class="st15" d="M86.39,60.61c-2.68-1.58-6.21-1.37-8.83,0.22c-1.23,0.75-2.11,1.84-2.61,3.06c-1.13,1.13-1.81,2.66-1.88,4.29
		c-0.26,6.37,7.37,8.92,12.45,6.36C90.94,71.8,91.9,63.85,86.39,60.61z"/>
	<path class="st16" d="M49.19,69.49c-1.76-3.49-5.96-5.66-9.89-5.51c-3.91,0.15-8.82,2.06-10.15,5.96c-0.58,1.69-0.47,3.39,0.14,4.9
		c0.18,2.05,1.27,3.99,3.32,5.26c3.22,2,7.74,1.78,11.2,0.5C48.31,78.94,51.53,74.12,49.19,69.49z"/>
	<g>
		<path class="st14" d="M80.92,65.08c1,0.97,2.26,1.41,3.39,2.21c1.22,0.87,1.96,1.89,2.62,3.2c0.49,0.97,1.42,3.83,2.87,2.05
			c1.53-1.88,0.08-4.84-1.24-6.37c-1.65-1.91-4.54-3.66-7.15-2.91C80.61,63.48,80.32,64.49,80.92,65.08L80.92,65.08z"/>
	</g>
	<g>
		<path class="st14" d="M44.87,69.51c0.09,0.63-0.17,1.46-0.29,2.09c-0.15,0.79-0.42,1.54-0.51,2.35c-0.1,0.89,0.73,1.77,1.55,2
			c0.95,0.25,1.85-0.19,2.38-0.95c0.76-1.08,0.8-2.94,0.25-4.12c-0.51-1.09-1.19-1.65-2.22-2.24
			C45.37,68.28,44.77,68.88,44.87,69.51L44.87,69.51z"/>
	</g>
	<g>
		<path class="st14" d="M43.21,66.77c1.7,0,1.71-2.6,0-2.6C41.51,64.17,41.5,66.77,43.21,66.77L43.21,66.77z"/>
	</g>
	<g>
		<defs>
			<path id="SVGID_5_" d="M74.58,9.3C67.93,6.42,60.96,3.47,53.7,3.89c-2.46,0.14-4.87,0.67-7.27,1.22
				c-4.25,0.97-8.58,2.06-12.22,4.41c-2.59,1.68-4.74,3.94-6.65,6.34c-4.63,5.83-7.99,12.61-9.81,19.78
				c-0.71,2.8-1.19,5.67-2.32,8.33c-1.4,3.31-3.79,6.21-6.79,8.26c0.79,0.6,2.01,0,3.01,0.04c11.76,0.48,23.64-2.06,34.14-7.3
				c2.88-1.44,5.67-3.08,8.1-5.16c4.36-3.74,7.39-8.73,10.23-13.68c2.05-3.58,4.05-7.19,5.98-10.83
				C71.22,13.19,72.58,10.65,74.58,9.3z"/>
		</defs>
		<clipPath id="SVGID_6_">
			<use xlink:href="#SVGID_5_"  style="overflow:visible;"/>
		</clipPath>
		<path class="st17" d="M74.18,3.19c-4.12-0.99-8.37-1.4-12.6-1.26c-2.44-7.8-12.11-2.77-16.84-0.25
			C39.5,4.45,34.62,7.95,30.26,11.91c-8.8,7.97-15.39,18.05-19.28,29.14c-0.5,1.43-0.03,3.01,0.95,4.13
			c-2.14,1.7-4.53,3.01-6.97,4.34c-1.79,0.98-0.95,3.68,1.02,3.7c14.74,0.18,21.56-15.3,30.25-24.45
			c4.72-4.97,10.4-7.99,16.53-11.01c6.33-3.12,12.93-6,20.17-5.54C78.23,12.57,79.29,4.41,74.18,3.19z"/>
	</g>
	<path class="st18" d="M73.77,8.27c2.13-2.64,4.3-5.33,7.08-7.29c0.18-0.13,0.38-0.26,0.6-0.26c0.23,0,0.43,0.13,0.62,0.26
		c0.97,0.7,1.82,1.56,2.5,2.54c-0.21-0.3-5.92,4.66-6.41,5.15c-0.72,0.72-1.72,2.33-2.91,2.21C74.03,10.75,72.97,9.27,73.77,8.27z"
		/>
	<path class="st19" d="M74.95,9.43c2.13-2.64,4.3-5.33,7.08-7.29c0.18-0.13,0.38-0.26,0.6-0.26c0.23,0,0.43,0.13,0.62,0.26
		c0.97,0.7,1.82,1.56,2.5,2.54c-0.21-0.3-5.92,4.66-6.41,5.15c-0.72,0.72-1.72,2.33-2.91,2.21C75.21,11.91,74.15,10.42,74.95,9.43z"
		/>
	<path class="st20" d="M78.25,6.73c1.38-1.23,2.78-2.48,4.28-3.24c0.1-0.05,0.2-0.1,0.29-0.07c0.09,0.03,0.14,0.13,0.19,0.23
		c0.24,0.53,0.39,1.14,0.46,1.8c-0.02-0.2-3.28,1.88-3.57,2.1c-0.43,0.32-1.15,1.11-1.59,0.88C77.84,8.2,77.73,7.2,78.25,6.73z"/>
	<g>
		<defs>
			<path id="SVGID_7_" d="M74.58,9.3C67.93,6.42,60.96,3.47,53.7,3.89c-2.46,0.14-4.87,0.67-7.27,1.22
				c-4.25,0.97-8.58,2.06-12.22,4.41c-2.59,1.68-4.74,3.94-6.65,6.34c-4.63,5.83-7.99,12.61-9.81,19.78
				c-0.71,2.8-1.19,5.67-2.32,8.33c-1.4,3.31-3.79,6.21-6.79,8.26c0.79,0.6,2.01,0,3.01,0.04c11.76,0.48,23.64-2.06,34.14-7.3
				c2.88-1.44,5.67-3.08,8.1-5.16c4.36-3.74,7.39-8.73,10.23-13.68c2.05-3.58,4.05-7.19,5.98-10.83
				C71.22,13.19,72.58,10.65,74.58,9.3z"/>
		</defs>
		<clipPath id="SVGID_8_">
			<use xlink:href="#SVGID_7_"  style="overflow:visible;"/>
		</clipPath>
		<g class="st21">
			<path class="st22" d="M5.58,52.35c4.87,2.59,10.01-1.93,12.85-5.51c3.74-4.72,4.68-9.89,5.51-15.67
				c0.77-5.37,2.19-10.76,4.97-15.48c2.7-4.59,6.69-8.18,11.27-10.93c2.13-1.28,4.38-2.38,6.62-3.47c2.14-1.03,5.08-2.06,6.2-4.36
				c0.81-1.68-0.61-2.45-2.11-2.7c-3.02-0.51-5.95,0.9-8.65,2.06C31.97,0.68,23.94,8.54,20.11,18.89
				c-2.23,6.03-2.3,12.31-3.81,18.47c-1.39,5.65-5.64,10.26-10.72,13.09C4.86,50.85,4.83,51.95,5.58,52.35L5.58,52.35z"/>
		</g>
		<g class="st21">
			<g>
				<path class="st23" d="M11.14,54.7c1.39,2.12,13.26,1.02,15.46,0.84c3.51-0.29,7.04-1.03,10.39-2.12
					c6.42-2.09,12.66-5.16,18.08-9.15c5.95-4.38,10.67-9.78,15.26-15.49c2.45-3.05,4.79-6.08,6.31-9.7c0.6-1.43,1.17-2.88,1.73-4.32
					c0.31-0.8,0.64-1.6,0.85-2.43c0.2-0.78,0.19-1.65,0.46-2.41c0.52-1.48-1.26-2.44-2.48-1.87c-1.63,0.77-2.88,1.26-4.1,2.68
					c-1.12,1.3-1.95,2.8-2.77,4.29c-1.66,2.98-3.23,5.79-5.38,8.47c-4.34,5.42-8.81,10.86-14.54,14.95
					C45.05,42.26,37,46.29,30.83,48.54c-1.55,0.57-21.38,4.42-19.97,6.58L11.14,54.7z"/>
			</g>
		</g>
	</g>
	<g class="st24">
		<path class="st23" d="M19.38,48.19c4.82-2.54,6.72-7.5,10.39-11.4c3.8-4.05,6.44-7.58,10.49-11.47c3.93-3.79,11.7-7.28,15.91-9.23
			c2.7-1.26,3.45-1.27,6.28-2.24c1.49-0.51,6.63-1.54,9.49-1.61c0.17,0,2-2.3,1.85-2.31c-1.61-0.08-4.8-0.51-6.4-0.69
			c-1.59-0.17-3.06,0.03-4.64,0.25c-2.96,0.4-5.92,0.92-8.81,1.68c-5.74,1.51-10.72,4.14-15.12,8.06
			c-4.19,3.74-7.73,8.31-10.72,13.01c-1.55,2.44-2.52,5.22-3.89,7.77c-1.46,2.71-3.04,5.53-5.04,7.9
			C19.03,48.06,19.19,48.29,19.38,48.19L19.38,48.19z"/>
	</g>
	<g>
		<path class="st23" d="M20.9,47.05c4.53-2.18,7.15-6.94,10.13-10.78c3.23-4.16,6.92-7.93,11.12-11.16
			c4.05-3.12,8.53-5.72,13.23-7.78c2.33-1.02,4.73-1.9,7.17-2.64c1.19-0.36,2.39-0.67,3.61-0.96c1.33-0.31,2.56-0.95,3.86-1.26
			c0.22-0.05,0.18-0.44-0.06-0.41c-1.21,0.15-2.27-0.01-3.49,0.27c-1.21,0.28-2.41,0.63-3.6,0.98c-2.33,0.69-4.62,1.5-6.87,2.43
			c-4.69,1.95-9.16,4.42-13.25,7.4c-3.95,2.88-7.52,6.2-10.59,9.96c-1.72,2.1-3.29,4.31-4.9,6.49c-1.85,2.49-3.79,5.57-6.41,7.38
			C20.82,47.01,20.85,47.07,20.9,47.05L20.9,47.05z"/>
	</g>
</g>
</svg>
