<?xml version="1.0" encoding="utf-8"?>
<!-- Generator: Adobe Illustrator 24.1.1, SVG Export Plug-In . SVG Version: 6.00 Build 0)  -->
<svg version="1.1" id="Layer_1" xmlns="http://www.w3.org/2000/svg" xmlns:xlink="http://www.w3.org/1999/xlink" x="0px" y="0px"
	 viewBox="0 0 105.13 98.21" style="enable-background:new 0 0 105.13 98.21;" xml:space="preserve">
<style type="text/css">
	.st0{fill:#676A23;}
	.st1{opacity:0.14;clip-path:url(#SVGID_2_);}
	.st2{fill:#FAB93B;}
	.st3{opacity:0.2;clip-path:url(#SVGID_2_);}
	.st4{fill:#EB7013;}
	.st5{opacity:0.25;clip-path:url(#SVGID_4_);fill:#EB7013;}
	.st6{opacity:0.14;clip-path:url(#SVGID_4_);fill:#EB7013;}
	.st7{opacity:0.11;fill:#FFFFFF;}
	.st8{opacity:0.11;}
	.st9{fill:#FFFFFF;}
	.st10{clip-path:url(#SVGID_6_);fill:#FF6300;}
	.st11{clip-path:url(#SVGID_6_);fill:#FF991A;}
	.st12{opacity:0.36;fill:#FF6A0B;}
	.st13{fill:#FF8F27;}
	.st14{fill:#FC9D1A;}
	.st15{fill:#FFF5F2;}
	.st16{clip-path:url(#SVGID_8_);}
	.st17{clip-path:url(#SVGID_10_);}
	.st18{clip-path:url(#SVGID_12_);}
	.st19{clip-path:url(#SVGID_14_);}
	.st20{clip-path:url(#SVGID_16_);}
	.st21{clip-path:url(#SVGID_18_);}
	.st22{clip-path:url(#SVGID_20_);}
	.st23{clip-path:url(#SVGID_22_);}
	.st24{opacity:0.41;}
	.st25{opacity:0.32;}
	.st26{opacity:0.34;}
	.st27{opacity:0.43;}
</style>
<g>
	<g>
		<path class="st0" d="M20.41,20.48c-1.2-1.92-2.36-3.58-4.12-5c-1.41-1.13-3.4-3.01-5.32-2.48c-0.4,0.11-0.51,0.55-0.35,0.9
			c0.69,1.58,2.78,2.23,4.11,3.14c1.74,1.19,3.59,2.45,5.18,3.85C20.17,21.12,20.63,20.82,20.41,20.48L20.41,20.48z"/>
	</g>
	<g>
		<defs>
			<path id="SVGID_1_" d="M12.75,67.62c7.93,9.25,21.03,12.07,32.87,10.51c4.6-0.61,9.23-1.83,13.1-4.49
				c2.53-1.74,4.66-4.03,6.76-6.3c2.96-3.2,5.98-6.48,7.8-10.5c1.62-3.57,2.21-7.56,2.33-11.5c0.32-10.63-2.81-21.48-9.31-29.69
				C59.78,7.42,49.83,2.05,39.58,2C27.01,1.94,15.19,9.83,8.05,20.57C3.38,27.58,0.41,36.08,1.1,44.58
				c0.51,6.34,3.04,12.4,6.67,17.53C9.61,64.71,10.69,65.21,12.75,67.62z"/>
		</defs>
		<use xlink:href="#SVGID_1_"  style="overflow:visible;fill:#EB7013;"/>
		<clipPath id="SVGID_2_">
			<use xlink:href="#SVGID_1_"  style="overflow:visible;"/>
		</clipPath>
		<g class="st1">
			<path class="st2" d="M25.43,3.87c1.18,0.82,2.82,0.89,4.18,1.22c1.82,0.43,3.61,0.45,5.43,1.02c3.18,1,6.32,2.67,9.52,4.42
				c1.65,0.9,3.2,1.94,4.74,3.02c0.28,0.2,1.12,0.98-0.03-0.05c0.25,0.22,0.5,0.42,0.75,0.65c0.73,0.67,1.41,1.4,2.07,2.14
				c1.04,1.17,1.99,2.42,3.01,3.61c1.15,1.36-0.19-0.12-0.19-0.3c-0.01,0.13,0.64,0.9,0.77,1.09c0.5,0.74,0.98,1.49,1.43,2.26
				c0.86,1.46,1.57,2.98,2.29,4.52c0.58,1.23-0.65-1.82-0.22-0.54c0.11,0.32,0.23,0.63,0.34,0.95c0.33,0.96,0.66,1.92,0.95,2.89
				c0.22,0.76,0.43,1.53,0.6,2.3c0.18,0.78,0.19,2.17,0.55,2.86c-0.01-0.02-0.21-2.19-0.13-0.99c0.03,0.49,0.1,0.98,0.13,1.47
				c0.08,1.11,0.11,2.22,0.1,3.33c-0.01,0.87-0.05,1.73-0.11,2.59c-0.03,0.37-0.06,0.74-0.09,1.11c-0.18,2.17,0.04-0.73,0.1-0.72
				c0.07,0.01-1.08,5.3-1.2,5.79c-0.21,0.84-0.44,1.67-0.7,2.49c-0.15,0.47-0.3,0.94-0.47,1.4c-0.14,0.39-0.74,1.91-0.12,0.4
				c0.59-1.44,0.09-0.25-0.04,0.03c-0.49,1.11-0.9,2.21-1.34,3.32c0.11-0.27,1.04-2.28,0.19-0.59c-0.22,0.44-0.42,0.89-0.64,1.33
				c-1.93,3.8-4.08,7.68-6.52,11.15c-0.52,0.75,0.06-0.08,0.15-0.19c-0.63,0.83-1.28,1.65-1.84,2.53c-0.58,0.89-1.12,1.82-1.7,2.71
				c-1.15,1.77-2.12,3.61-3.13,5.46c-1.81,3.3,1.16,6.81,4.52,6.1c4.5-0.95,8.92-2.31,12.89-4.8c3.94-2.47,8-5.09,10.95-8.82
				c3.68-4.65,6.31-9.42,8.13-15.17c1.47-4.65,2.04-9.75,1.91-14.64c-0.25-9.64-3.02-19.21-8.6-26.97
				C68.33,6.27,61.05,0.79,52.03-2.58c-5.02-1.88-10.55-2.84-15.89-2.55c-2.53,0.14-5.7,0.37-7.89,1.84
				c-1.79,1.2-3.68,3.03-3.83,5.31C24.37,2.8,24.86,3.47,25.43,3.87L25.43,3.87z"/>
		</g>
		<g class="st3">
			<path class="st4" d="M24.92,0.7c-2.81-3.35-8.16-0.15-11,1.62c-3.1,1.93-5.96,4.63-8.35,7.44C0.25,16.05-3.79,23.99-5.35,32.24
				C-8.86,50.76,0.58,70.38,14.6,81.62c4,3.21,8.62,5.71,13.53,7.05c2.5,0.68,5.16,1.11,7.74,0.96c1.6-0.09,3.2-0.33,4.61-1.17
				c0.55-0.33,1.17-0.79,1.63-1.25c0.1-0.11,0.19-0.21,0.29-0.32c1-1.29,1.08-1.44,0.26-0.44c1.83-1.21,2.28-3.88,0.69-5.53
				c0.06,0.13,0.13,0.26,0.19,0.38c0.38,0.8,0.27,0.5-0.33-0.9c-0.11-0.23-0.2-0.45-0.33-0.67c-0.77-1.26-1.71-2.24-2.91-3.08
				c-1.39-0.98-2.84-1.86-4.26-2.78c-1.35-0.88-2.66-1.84-3.97-2.79c-1.07-0.79,0.99,0.95,0.05,0.02c-0.26-0.26-0.56-0.49-0.83-0.73
				c-0.73-0.67-1.44-1.36-2.17-2.04c-2.59-2.42-4.77-5.11-6.98-7.89c-0.62-0.78-1.43-1.58-0.28-0.3c-0.58-0.64-1.03-1.46-1.51-2.18
				c-0.98-1.48-1.9-2.99-2.76-4.55c-0.88-1.58-1.68-3.21-2.49-4.83c-0.35-0.69-0.65-1.42-1-2.11c-0.65-1.27,0.53,1.59,0.08,0.22
				c-0.16-0.5-0.36-0.98-0.52-1.48c-0.57-1.73-1.02-3.51-1.35-5.31c-0.05-0.3-0.25-0.86-0.19-1.15c-0.01,0.05,0.15,1.71,0.08,0.56
				c-0.05-0.81-0.16-1.61-0.26-2.42c-0.18-1.39-0.22-1.65-0.1-0.79c0.07,0.58,0.08,0.6,0.03,0.06c-0.05-1.7-0.21-3.38-0.16-5.09
				c0.03-0.9,0.12-1.8,0.18-2.7c0.06-0.93,0,0.01-0.03,0.18c0.11-0.65,0.22-1.29,0.35-1.94c0.31-1.53,0.79-3.01,1.33-4.47
				c-0.42,1.11,0.39-0.85,0.52-1.14c0.39-0.82,0.81-1.63,1.25-2.42c1.77-3.15,3.31-4.9,5.79-7.61C23.17,8.35,28.25,4.66,24.92,0.7
				L24.92,0.7z"/>
		</g>
	</g>
	<g>
		<defs>
			<path id="SVGID_3_" d="M12.75,67.62c7.93,9.25,21.03,12.07,32.87,10.51c4.6-0.61,9.23-1.83,13.1-4.49
				c2.53-1.74,4.66-4.03,6.76-6.3c2.96-3.2,5.98-6.48,7.8-10.5c1.62-3.57,2.21-7.56,2.33-11.5c0.32-10.63-2.81-21.48-9.31-29.69
				C59.78,7.42,49.83,2.05,39.58,2C27.01,1.94,15.19,9.83,8.05,20.57C3.38,27.58,0.41,36.08,1.1,44.58
				c0.51,6.34,3.04,12.4,6.67,17.53C9.61,64.71,10.69,65.21,12.75,67.62z"/>
		</defs>
		<clipPath id="SVGID_4_">
			<use xlink:href="#SVGID_3_"  style="overflow:visible;"/>
		</clipPath>
		<path class="st5" d="M82.19,39.68c-0.2-0.72-0.55-1.43-0.87-2.11c-0.3-0.63-0.21-1.11-0.24-0.34c-0.14-1.1-0.48-2.15-1.03-3.02
			c0.05-1.59-0.6-3.17-1.9-4.17c-2.08-1.61-4.5-1.26-6.44,0.4c-3.24,2.76-6.61,5.33-10.11,7.72c-2.99,2.04-6.11,4.31-9.6,5.34
			c-6.52,1.92-14.15,0.89-20.42-1.58c-6.08-2.4-11.34-6.85-14.3-12.9c-0.64-1.3-1.2-2.72-1.65-4.17c-0.23-1.96-0.52-3.89-0.99-5.81
			c-0.09-0.37-0.19-0.73-0.28-1.08c-0.05-1.07-0.04-2.16,0.09-3.19c0.07-0.56,0.57-4.34,0.87-4.43c2.45-0.72,2.08-4.97-0.62-4.76
			c-1.77,0.14-3.01,1.2-3.95,2.6c-2.65-0.68-4.89,1.03-5.8,3.53c-0.11,0.32-0.21,0.63-0.29,0.94c-0.65,2.16-1.17,4.38-1.54,6.62
			c-2.36-0.09-4.56,1.4-5.22,3.87c-2.54,9.57-2.08,20.18,0.99,29.56c1.58,4.84,3.79,9.73,6.77,13.96c0.09,1.03,0.51,2.04,1.22,2.86
			c4.73,5.48,9.61,12.34,16.9,14.06c6.75,1.6,14.53,0.48,21.2-1.03c13.08-2.97,25.35-10.82,31.77-23.31
			c1.87-3.64,3.26-7.6,3.99-11.67c0.63-1.04,1.16-2.12,1.48-3.24C82.65,42.82,82.61,41.17,82.19,39.68z"/>
		<path class="st6" d="M87.07,55.84c-0.25-0.76-0.67-1.51-1.06-2.22c-0.36-0.66-0.26-1.17-0.29-0.36c-0.17-1.16-0.59-2.26-1.25-3.18
			c0.06-1.68-0.72-3.34-2.29-4.4c-2.52-1.7-5.44-1.33-7.79,0.42c-3.92,2.91-8,5.62-12.23,8.14c-3.62,2.16-7.39,4.55-11.6,5.63
			c-7.88,2.03-17.11,0.94-24.69-1.66c-7.35-2.53-13.71-7.22-17.3-13.6c-0.77-1.37-1.45-2.87-1.99-4.4c-0.28-2.07-0.62-4.1-1.19-6.13
			c-0.11-0.39-0.23-0.77-0.34-1.14c-0.07-1.13-0.04-2.27,0.11-3.37c0.09-0.6,0.69-4.58,1.05-4.67c2.96-0.76,2.52-5.23-0.75-5.01
			c-2.14,0.14-3.64,1.27-4.77,2.74c-3.21-0.72-5.92,1.09-7.01,3.72c-0.14,0.33-0.25,0.66-0.35,1c-0.78,2.28-1.41,4.61-1.87,6.97
			c-2.85-0.1-5.52,1.48-6.31,4.08c-3.08,10.09-2.52,21.27,1.19,31.15c1.92,5.1,4.59,10.26,8.18,14.71c0.11,1.08,0.62,2.15,1.47,3.01
			c5.72,5.78,11.62,13,20.44,14.82c8.16,1.68,17.57,0.51,25.64-1.09c15.81-3.13,30.65-11.4,38.42-24.57
			c2.26-3.83,3.94-8.01,4.82-12.3c0.77-1.1,1.4-2.24,1.78-3.42C87.62,59.15,87.57,57.42,87.07,55.84z"/>
		<path class="st6" d="M91.57,59.94c-0.33-0.73-0.83-1.42-1.29-2.08c-0.43-0.62-0.38-1.13-0.33-0.32c-0.29-1.14-0.83-2.18-1.59-3.01
			c-0.13-1.67-1.08-3.23-2.76-4.1c-2.69-1.39-5.55-0.67-7.7,1.34c-3.57,3.35-7.33,6.53-11.25,9.54c-3.36,2.57-6.85,5.39-10.91,6.97
			c-7.61,2.95-16.9,2.97-24.71,1.28c-7.58-1.64-17.26-6.58-21.53-12.49C8.59,55.79-3.74,34.22-4.24,36.9
			c-1.95,10.39-7.51,39.24-2.74,48.62c2.46,4.84,5.68,9.64,9.75,13.65c0.23,1.06,0.85,2.06,1.79,2.82
			c6.31,5.06,12.97,11.54,21.93,12.3c8.3,0.7,17.51-1.57,25.35-4.12c15.36-4.98,29.2-14.96,35.46-28.96
			c1.83-4.08,3.04-8.42,3.44-12.8c0.64-1.18,1.15-2.39,1.4-3.61C92.48,63.17,92.25,61.45,91.57,59.94z"/>
	</g>
	<path class="st7" d="M71.09,42.13c-0.57-13.52-6.75-27.41-18.9-33.62c-2.03-1.04-4.52-2.01-7.02-2.49
		c-1.37-0.48-2.84-0.67-4.42-0.46c-1.16,0.15-2.19,0.54-3.08,1.11c-1.72,0.89-3.11,2.46-3.89,4.99c-1.13,3.65,0.14,7.37,2.39,10.21
		c0.98,1.23,2.16,2.26,3.33,3.3c1.79,2.93,3.47,5.95,4.98,9.05c1.4,2.86,1.69,5.31,1.52,8.5c-0.19,3.6-0.51,7.35,0.65,10.83
		c2.52,7.58,10.37,10.74,17.25,7.03C70.47,57.03,71.38,49.04,71.09,42.13z"/>
	<g class="st8">
		<path class="st9" d="M53.58,23.5c0.06-0.05,0.12-0.1,0.18-0.16c0.31-0.3,0.52-0.65,0.65-1.05c0.2-0.39,0.29-0.81,0.27-1.26
			c-0.04-0.82-0.29-1.75-0.92-2.31c-0.06-0.05-0.12-0.1-0.18-0.16c-0.23-0.18-0.45-0.36-0.68-0.54c-0.27-0.12-0.53-0.23-0.8-0.35
			c-0.45-0.15-0.89-0.17-1.34-0.06c-0.3,0-0.59,0.08-0.85,0.24c-0.28,0.08-0.53,0.23-0.74,0.45c-0.25,0.15-0.45,0.36-0.6,0.62
			c-0.21,0.22-0.35,0.47-0.43,0.77c-0.21,0.42-0.31,0.86-0.29,1.34c0.04,0.31,0.08,0.62,0.12,0.93c0.11,0.28,0.23,0.55,0.34,0.83
			c0.17,0.23,0.35,0.47,0.52,0.71c0.23,0.18,0.45,0.36,0.68,0.54c0.27,0.12,0.53,0.23,0.8,0.35c0.45,0.15,0.89,0.17,1.34,0.06
			c0.3,0,0.59-0.08,0.85-0.24C52.91,24.08,53.27,23.84,53.58,23.5L53.58,23.5z"/>
	</g>
	<g class="st8">
		<path class="st9" d="M57.75,29.67c0.84,0,1.73-0.38,2.33-1c0.32-0.31,0.55-0.68,0.68-1.1c0.21-0.41,0.3-0.85,0.28-1.32
			c-0.04-0.88-0.32-1.8-0.97-2.42c-0.64-0.61-1.44-1-2.33-1c-0.84,0-1.73,0.38-2.33,1c-0.32,0.31-0.55,0.68-0.68,1.1
			c-0.21,0.41-0.3,0.85-0.28,1.32c0.04,0.88,0.32,1.8,0.97,2.42C56.07,29.28,56.86,29.67,57.75,29.67L57.75,29.67z"/>
	</g>
	<g class="st8">
		<path class="st9" d="M55.56,22.85c0.17,0.03,0.32,0.06,0.51,0.09c0.34,0.08,0.67,0.06,1.01-0.05c0.03-0.01,0.07-0.02,0.1-0.02
			c-0.22,0.03-0.44,0.06-0.66,0.09c0.05,0,0.1,0,0.15,0c0.72,0.08,1.45-0.41,1.86-0.97c0.43-0.58,0.68-1.42,0.42-2.15
			c-0.19-0.54-0.39-0.92-0.77-1.34c-0.3-0.34-0.75-0.56-1.17-0.68c-0.46-0.14-1-0.13-1.46,0.03c-0.53,0.18-0.96,0.47-1.3,0.93
			c-0.33,0.44-0.56,1-0.54,1.57c0.02,0.46,0.13,0.9,0.34,1.31c0.16,0.3,0.37,0.54,0.64,0.73C54.95,22.61,55.24,22.76,55.56,22.85
			L55.56,22.85z"/>
	</g>
	<g class="st8">
		<path class="st9" d="M49.86,26.84c-0.25,0.47-0.33,0.86-0.37,1.4c-0.04,0.56,0.28,1.31,0.67,1.68c0.38,0.36,0.8,0.58,1.32,0.65
			c0.49,0.07,1.03,0,1.46-0.28c0.51-0.34,0.88-0.81,1.05-1.42c0-0.02,0.01-0.03,0.01-0.05c-0.08,0.19-0.15,0.38-0.23,0.57
			c0.01-0.03,0.03-0.06,0.05-0.09c-0.12,0.16-0.24,0.32-0.36,0.48c0.01-0.01,0.02-0.03,0.03-0.04c0.42-0.5,0.65-1.04,0.68-1.7
			c0.03-0.75-0.36-1.44-0.91-1.89c-0.51-0.41-1.07-0.56-1.71-0.47C50.84,25.79,50.21,26.19,49.86,26.84L49.86,26.84z"/>
	</g>
	<g class="st8">
		<path class="st9" d="M54.43,32.18c-0.13,0.66-0.17,1.34,0.05,1.99c0.1,0.29,0.22,0.61,0.39,0.87c0.34,0.51,0.78,0.96,1.38,1.1
			c0.23,0.05,0.47,0.07,0.7,0.09c-0.19-0.03-0.39-0.05-0.58-0.08c0.02,0.01,0.04,0.01,0.06,0.02c0.74,0.21,1.56-0.01,2.1-0.58
			c0.56-0.59,0.73-1.39,0.56-2.18c0-0.02-0.01-0.04-0.01-0.06c0.03,0.2,0.05,0.4,0.08,0.61c0-0.02,0-0.04,0.01-0.06
			c-0.03,0.21-0.05,0.41-0.08,0.62c0.27-0.75-0.02-1.43-0.32-2.09c0.08,0.19,0.16,0.38,0.23,0.57c-0.05-0.12-0.08-0.23-0.1-0.36
			c0.03,0.21,0.06,0.43,0.08,0.64c-0.01-0.1-0.01-0.2,0-0.3c-0.03,0.21-0.06,0.43-0.08,0.64c0.01-0.05,0.02-0.1,0.03-0.15
			c0.15-0.62,0.08-1.31-0.24-1.87c-0.28-0.5-0.84-0.98-1.39-1.11c-0.6-0.14-1.27-0.11-1.8,0.24C55.01,31.06,54.55,31.56,54.43,32.18
			L54.43,32.18z"/>
	</g>
	<g class="st8">
		<path class="st9" d="M62.49,36.46c0.01,0.01,0.02,0.01,0.03,0.02c0.59,0.44,1.67,0.44,2.25,0c0.01-0.01,0.02-0.01,0.03-0.02
			c0.43-0.32,0.73-0.63,0.94-1.14c0.2-0.49,0.25-1.03,0.12-1.55c-0.13-0.5-0.43-0.92-0.82-1.24c-0.39-0.31-0.89-0.53-1.39-0.51
			c-0.92,0.04-1.73,0.57-2.09,1.46c-0.2,0.49-0.25,1.03-0.12,1.55c0.08,0.19,0.15,0.38,0.23,0.57
			C61.87,35.96,62.15,36.25,62.49,36.46L62.49,36.46z"/>
	</g>
	<g class="st8">
		<path class="st9" d="M61.68,29.38c3.32,0,3.32-5.35,0-5.35C58.36,24.02,58.36,29.38,61.68,29.38L61.68,29.38z"/>
	</g>
	<g class="st8">
		<path class="st9" d="M55.82,25.14c-0.29,0.29-0.62,0.57-0.8,0.95c-0.22,0.45-0.32,0.9-0.25,1.4c0.06,0.46,0.24,0.94,0.58,1.26
			c0.27,0.26,0.59,0.45,0.94,0.57c0.53,0.18,1.15,0.04,1.63-0.22c0.37-0.2,0.63-0.53,0.91-0.84c0.38-0.43,0.62-0.97,0.62-1.56
			c0-0.54-0.23-1.19-0.62-1.56c-0.41-0.39-0.94-0.67-1.5-0.65C56.75,24.52,56.24,24.73,55.82,25.14L55.82,25.14z"/>
	</g>
	<g class="st8">
		<path class="st9" d="M51.1,25.94c0.07-0.01,0.14-0.03,0.21-0.04c0.67-0.15,1.22-0.78,1.4-1.45c0.2-0.76-0.04-1.45-0.51-2.02
			c-0.05-0.06-0.1-0.12-0.16-0.18c-0.51-0.57-1.36-0.77-2.07-0.57c-0.72,0.2-1.29,0.8-1.49,1.54c-0.2,0.76,0.01,1.59,0.55,2.15
			c0.27,0.27,0.58,0.46,0.94,0.57C50.35,26.04,50.72,26.04,51.1,25.94L51.1,25.94z"/>
	</g>
	<g class="st8">
		<path class="st9" d="M51.42,22.76c2.98,0,2.98-4.8,0-4.8C48.45,17.95,48.44,22.76,51.42,22.76L51.42,22.76z"/>
	</g>
	<g class="st8">
		<path class="st9" d="M52.52,18.53c1.95,0,1.95-3.14,0-3.14C50.57,15.38,50.56,18.53,52.52,18.53L52.52,18.53z"/>
	</g>
	<g class="st8">
		<path class="st9" d="M55.34,17.03c0.08,0.03,0.15,0.05,0.23,0.08c0.76,0.25,1.59-0.23,1.89-0.96c0.13-0.33,0.19-0.73,0.08-1.08
			c-0.13-0.43-0.38-0.73-0.74-0.99c-0.07-0.05-0.13-0.1-0.2-0.15c-0.35-0.26-0.85-0.27-1.26-0.17c-0.49,0.12-0.87,0.52-1.06,0.98
			C53.89,15.7,54.41,16.72,55.34,17.03L55.34,17.03z"/>
	</g>
	<g class="st8">
		<path class="st9" d="M61.03,22.93c0.73,0,1.43-0.66,1.39-1.44c-0.03-0.78-0.61-1.44-1.39-1.44c-0.73,0-1.43,0.66-1.39,1.44
			C59.67,22.27,60.25,22.93,61.03,22.93L61.03,22.93z"/>
	</g>
	<g class="st8">
		<path class="st9" d="M56.01,25.34c0.5,0,1.03-0.23,1.39-0.6c0.34-0.35,0.6-0.93,0.58-1.44c-0.02-0.53-0.19-1.07-0.58-1.44
			c-0.38-0.37-0.86-0.6-1.39-0.6c-0.5,0-1.03,0.23-1.39,0.6c-0.34,0.35-0.6,0.93-0.58,1.44c0.02,0.53,0.19,1.07,0.58,1.44
			C55,25.11,55.48,25.34,56.01,25.34L56.01,25.34z"/>
	</g>
	<g class="st8">
		<path class="st9" d="M53.11,30.26c0.18-0.23,0.36-0.45,0.54-0.68c0.18-0.23,0.31-0.47,0.31-0.78c0-0.27-0.12-0.59-0.31-0.78
			c-0.46-0.44-1.04-0.39-1.5,0c-0.22,0.19-0.44,0.37-0.65,0.56c-0.46,0.4-0.43,1.28,0,1.68C51.91,30.66,52.7,30.77,53.11,30.26
			L53.11,30.26z"/>
	</g>
	<g class="st8">
		<path class="st9" d="M47.06,31.01c0.8,0,1.57-0.73,1.53-1.59c-0.04-0.86-0.67-1.59-1.53-1.59c-0.8,0-1.57,0.73-1.53,1.59
			C45.56,30.28,46.2,31.01,47.06,31.01L47.06,31.01z"/>
	</g>
	<g class="st8">
		<path class="st9" d="M44,18.21c-0.05,0.01-0.1,0.01-0.15,0.02c-0.56,0.06-1.04,0.2-1.45,0.62c-0.36,0.37-0.62,0.98-0.6,1.51
			c0.02,0.55,0.2,1.12,0.6,1.51c0.14,0.11,0.28,0.22,0.42,0.33c0.32,0.19,0.67,0.29,1.04,0.29c0.05,0.01,0.1,0.01,0.15,0.02
			c0.49,0.05,1.12-0.28,1.46-0.63c0.36-0.37,0.63-0.98,0.61-1.52c-0.02-0.56-0.2-1.13-0.61-1.52C45.08,18.48,44.54,18.15,44,18.21
			L44,18.21z"/>
	</g>
	<g class="st8">
		<path class="st9" d="M40.83,16.16c-0.09-0.04-0.18-0.09-0.27-0.13c-0.49-0.24-0.96,0.25-0.73,0.76c0.04,0.09,0.09,0.19,0.13,0.28
			c0.18,0.39,0.73,0.41,1,0.13C41.23,16.91,41.2,16.35,40.83,16.16L40.83,16.16z"/>
	</g>
	<g class="st8">
		<path class="st9" d="M54.48,35.89c0.54,0,1.1-0.24,1.48-0.63c0.36-0.38,0.63-0.99,0.61-1.53c-0.05-1.17-0.92-2.17-2.09-2.17
			c-0.54,0-1.1,0.24-1.48,0.63c-0.36,0.38-0.63,0.99-0.61,1.53C52.44,34.9,53.31,35.89,54.48,35.89L54.48,35.89z"/>
	</g>
	<g class="st8">
		<path class="st9" d="M59.1,34.37c0.07-0.14,0.14-0.27,0.21-0.41c0.33-0.63-0.33-1.3-0.93-0.97c-0.13,0.07-0.26,0.14-0.4,0.22
			c-0.47,0.26-0.53,0.96-0.17,1.33C58.18,34.91,58.85,34.85,59.1,34.37L59.1,34.37z"/>
	</g>
	<g class="st8">
		<path class="st9" d="M59.45,32.42c0.1,0.06,0.19,0.13,0.28,0.2c-0.12-0.1-0.25-0.2-0.37-0.3c0.1,0.08,0.19,0.17,0.28,0.25
			c0.3,0.29,0.62,0.43,1,0.59c-0.14-0.06-0.28-0.12-0.42-0.18c0.04,0.02,0.08,0.04,0.12,0.05c0.27,0.13,0.55,0.24,0.86,0.24
			c0.38,0,0.73-0.14,1.03-0.38c0.55-0.44,0.78-1.16,0.61-1.86c-0.11-0.47-0.33-0.94-0.7-1.26c-0.27-0.23-0.54-0.46-0.85-0.63
			c-0.43-0.24-0.93-0.33-1.4-0.19c-0.42,0.12-0.88,0.46-1.09,0.87C58.33,30.74,58.58,31.87,59.45,32.42L59.45,32.42z"/>
	</g>
	<g class="st8">
		<path class="st9" d="M61.02,41.67c-0.07,0.48-0.1,0.78,0,1.25c0.1,0.5,0.4,0.98,0.84,1.22c0.88,0.48,1.94,0.07,2.23-0.94
			c0.11-0.38,0.04-0.74-0.02-1.12c0.02,0.15,0.04,0.29,0.06,0.44c-0.01-0.09-0.01-0.18,0-0.27c-0.02,0.15-0.04,0.29-0.06,0.44
			c0.01-0.05,0.01-0.09,0.02-0.13c0.09-0.43,0.06-0.89-0.16-1.28c-0.19-0.34-0.57-0.67-0.95-0.76c-0.41-0.1-0.87-0.08-1.23,0.17
			C61.43,40.9,61.08,41.25,61.02,41.67L61.02,41.67z"/>
	</g>
	<g class="st8">
		<path class="st9" d="M55.75,49.56c-0.07,0.03-0.14,0.06-0.21,0.09c-0.28,0.17-0.51,0.41-0.68,0.7c-0.17,0.31-0.26,0.64-0.26,0.99
			c0.02,0.52,0.19,1.01,0.55,1.39c0.34,0.36,0.85,0.57,1.34,0.57c0.34,0,0.66-0.09,0.95-0.27c0.28-0.17,0.51-0.41,0.68-0.7
			c0.03-0.07,0.06-0.14,0.09-0.22c0.06-0.15,0.12-0.3,0.18-0.45c0.08-0.25,0.09-0.5,0.03-0.75c-0.05-0.39-0.21-0.8-0.5-1.07
			c-0.23-0.22-0.5-0.38-0.79-0.48C56.65,49.21,56.2,49.36,55.75,49.56L55.75,49.56z"/>
	</g>
	<g class="st8">
		<path class="st9" d="M61.57,56.01c0.04,0.18,0.07,0.31,0.14,0.49c0.18,0.44,0.44,0.68,0.8,0.96c0.47,0.35,1.35,0.35,1.82,0
			c0.37-0.28,0.62-0.52,0.8-0.96c0.07-0.18,0.11-0.31,0.14-0.49c0.13-0.69,0.03-1.44-0.49-1.94c-0.38-0.36-0.84-0.58-1.36-0.58
			c-0.49,0-1.01,0.22-1.36,0.58C61.56,54.6,61.44,55.3,61.57,56.01L61.57,56.01z"/>
	</g>
	<g>
		<g>
			<defs>
				<path id="SVGID_5_" d="M41.83,39.1c0,0-6.86,10.84-6.72,21.37c0.1,7.85,5.73,21.98,13.36,26.92
					c7.63,4.94,16.81,10.16,28.21,7.28c11.39-2.88,29.48-21.13,26.61-26.49C100.41,62.81,41.83,39.1,41.83,39.1z"/>
			</defs>
			<use xlink:href="#SVGID_5_"  style="overflow:visible;fill:#FF7917;"/>
			<clipPath id="SVGID_6_">
				<use xlink:href="#SVGID_5_"  style="overflow:visible;"/>
			</clipPath>
			<path class="st10" d="M57.57,61.66c-0.9,1.14-7.01,10.76-8.44,16.38c-1.43,5.62,2.5,17.82,2.5,17.82S17.38,77.2,16.82,76.34
				c-0.56-0.87,3.2-24.48,4.31-26.9c1.1-2.42,14.62-18.67,14.62-18.67l9.86,0.91L57.57,61.66z"/>
			<path class="st11" d="M86.05,77.08c0,0-10.83,11.95-15.96,16.93c-5.13,4.98-10.25,5.94-10.25,5.94s16.36,11.08,20.19,6.85
				c3.84-4.23,20.26-25.08,20.26-25.08l4.34-9.91L86.05,77.08z"/>
		</g>
		<path class="st12" d="M95.92,76.79c-0.98,0.9-1.78,7.22-12.95,9.61c-11.17,2.39-29.97-7.65-34.43-11.63
			c-4.46-3.97-14.89-18.19-10.21-26.35C43,40.27,95.92,76.79,95.92,76.79z"/>
		<path class="st13" d="M103.73,70.26c-1.57,8.53-8.84,13.44-18.44,15.29c-3.16,0.61-6.39,0.52-9.93-0.25
			c-4.69-1.03-10.18-3.07-14.58-5.44c-4.89-2.63-9.73-5.78-14.45-10.29c-9.77-9.32-9.13-19.63-6.9-26.14
			c1.67-4.88,5.34-11.68,20.02-12c8.05-0.17,15.58,1.47,24.03,6.13c7.95,4.39,14.68,10.76,17.7,17.32
			C103.26,59.44,104.48,66.17,103.73,70.26z"/>
		<path class="st14" d="M102.04,68.99c-0.37,5.79-2.21,9.36-9.7,12.76c-2.43,1.1-5.83,2.05-8.9,2.18c-2.79,0.12-5.18-0.05-8.14-0.49
			c-8.67-1.3-17.18-6.24-24.27-11.95c-4.12-3.32-6.37-7.01-7.75-9.53c-1.86-3.38-2.57-6.81-2.98-10.14
			c-0.27-2.17-0.41-4.32-0.16-6.36c0.97-7.97,10.98-12.23,21.06-12.58c8.59-0.3,16.68,2.86,24.6,7.99
			c2.59,1.68,11.12,8.56,13.67,15.33C101.07,60.42,102.3,64.98,102.04,68.99z"/>
		<path class="st15" d="M100.87,68.67c-0.31,5.47-2.05,8.84-9.2,11.99c-2.32,1.02-5.56,1.89-8.51,2c-2.67,0.1-4.96-0.08-7.8-0.53
			c-8.31-1.3-16.49-6.03-23.32-11.49c-3.97-3.17-6.15-6.68-7.49-9.07c-1.8-3.21-2.51-6.46-2.92-9.61c-0.27-2.05-0.43-4.09-0.2-6.02
			c0.88-7.52,10.42-11.48,20.08-11.73c8.23-0.22,15.99,2.83,23.62,7.75c2.49,1.61,10.71,8.18,13.2,14.6
			C99.88,60.56,101.09,64.88,100.87,68.67z"/>
		<path class="st14" d="M75.4,50.45c1.52-2.95,3.05-5.9,4.57-8.86c0.09-0.17,0.17-0.36,0.06-0.56c-0.1-0.17-0.31-0.3-0.52-0.42
			c-5.29-3.01-11.84-4.37-17.13-3.54c-0.74,0.12-1.54,0.34-1.65,0.91c-0.07,0.36,0.17,0.78,0.41,1.17
			c2.19,3.56,5.33,6.96,7.08,10.58c0.57,1.19,2.14,5.11,4.67,4.92C74.24,54.55,74.98,51.24,75.4,50.45z"/>
		<path class="st14" d="M66.49,49.51c-2.58-3.61-5.17-7.22-7.75-10.83c-0.15-0.21-0.32-0.43-0.58-0.54
			c-0.22-0.09-0.44-0.08-0.64-0.06c-5.24,0.5-9.18,3.28-10.3,7.27c-0.16,0.56-0.22,1.25,0.35,1.83c0.36,0.37,0.9,0.61,1.41,0.82
			c4.65,1.89,9.49,3.06,14.02,5.27c1.49,0.73,6.29,3.33,7.05,1.61C70.45,53.94,67.19,50.48,66.49,49.51z"/>
		<path class="st14" d="M60.76,53.91c-4.54-1.84-9.08-3.68-13.62-5.53c-0.26-0.1-0.55-0.21-0.75-0.15c-0.18,0.05-0.25,0.2-0.31,0.35
			c-1.51,3.84-0.27,9.06,3.23,13.64c0.49,0.64,1.14,1.35,1.93,1.55c0.51,0.13,0.94,0.01,1.34-0.11c3.63-1.15,6.63-3.12,10.53-3.88
			c1.28-0.25,5.67-0.81,4.27-2.96C66.63,55.67,61.98,54.41,60.76,53.91z"/>
		<path class="st14" d="M83.34,62.77c4.36,1.92,8.71,3.84,13.07,5.76c0.25,0.11,0.52,0.22,0.71,0.16c0.16-0.05,0.22-0.22,0.26-0.38
			c1.17-4.13,0.17-9.91-3.39-14.77c-0.5-0.68-1.09-1.59-1.84-1.8c-0.48-0.13-1.86,0.35-2.22,0.49c-3.32,1.27-5.56,3.43-9.16,4.3
			c-1.18,0.28-5.25,0.93-3.81,3.21C77.74,60.96,82.16,62.25,83.34,62.77z"/>
		<path class="st14" d="M78.1,67.01c2.51,3.63,5.02,7.26,7.53,10.88c0.14,0.21,0.31,0.43,0.57,0.55c0.22,0.1,0.44,0.09,0.65,0.07
			c5.29-0.41,9.32-3.11,10.54-7.06c0.17-0.55,0.25-1.23-0.3-1.82c-0.36-0.38-0.89-0.62-1.4-0.83c-4.63-1.95-9.47-3.19-13.98-5.45
			c-1.48-0.75-6.24-3.4-7.05-1.71C74.23,62.55,77.42,66.03,78.1,67.01z"/>
		<path class="st14" d="M68.97,66.27c-1.78,2.89-3.55,5.78-5.33,8.66c-0.1,0.16-0.2,0.35-0.1,0.54c0.09,0.16,0.3,0.29,0.5,0.4
			c5.24,2.86,11.89,4.1,17.4,3.23c0.77-0.12,1.61-0.35,1.76-0.9c0.1-0.35-0.12-0.76-0.34-1.13c-2.01-3.43-5-6.7-6.55-10.19
			c-0.51-1.15-1.85-4.94-4.46-4.73C70.45,62.27,69.45,65.49,68.97,66.27z"/>
		<path class="st9" d="M75.5,59.75c0.62-0.64-1.38-3.78-3.76-4.28c-2.38-0.5-3.2,0.85-2.5,2.61C69.94,59.84,73.41,61.89,75.5,59.75z
			"/>
		<path class="st14" d="M90.81,49.89c0.01-1.28-8.19-8.08-8.84-7.71c-0.65,0.37-8.02,12.14-7.47,12.61
			c0.55,0.47,0.17,2.55,3.04,1.89C80.4,56.02,90.8,51.33,90.81,49.89z"/>
		<path class="st14" d="M61.95,74.77c0.86,0.09,8.51-12.59,8.04-13.22c-0.47-0.63-1.25-2.89-3.34-1.64
			c-2.09,1.24-4.47,1.25-7.37,2.39c-2.9,1.14-7.17,2.59-6.84,3.74C52.76,67.19,60.25,74.6,61.95,74.77z"/>
		<g>
			<defs>
				<path id="SVGID_7_" d="M75.4,50.45c1.52-2.95,3.05-5.9,4.57-8.86c0.09-0.17,0.17-0.36,0.06-0.56c-0.1-0.17-0.31-0.3-0.52-0.42
					c-5.29-3.01-11.84-4.37-17.13-3.54c-0.74,0.12-1.54,0.34-1.65,0.91c-0.07,0.36,0.17,0.78,0.41,1.17
					c2.19,3.56,5.33,6.96,7.08,10.58c0.57,1.19,2.14,5.11,4.67,4.92C74.24,54.55,74.98,51.24,75.4,50.45z"/>
			</defs>
			<clipPath id="SVGID_8_">
				<use xlink:href="#SVGID_7_"  style="overflow:visible;"/>
			</clipPath>
			<g class="st16">
				<path class="st13" d="M70.55,53.8c2.04-0.51,2.34-2.71,2.99-4.51c0.59-1.64,1.21-3.27,1.84-4.9c0.32-0.83,1.06-2.01,1.15-2.92
					c0.66-0.52,0.59-0.79-0.2-0.83c-0.49-0.17-0.99-0.33-1.49-0.46c-1.56-0.44-3.15-0.77-4.75-1c-1.75-0.25-3.53-0.39-5.3-0.34
					c-0.6,0.02-2.12-0.24-2.15,0.77c-0.01,0.29,1.2,1.55,1.4,1.77c1.89,2.06,6.1,9.33,6.27,12.19c0.03,0.58-3.59-5.18-3.92-5.63
					c-1.72-2.39-3.52-4.05-5.58-6.12c-1.23-1.24-1.92-2.86-0.87-4.51c1.36-2.13,4.21-1.89,6.34-1.81c2.94,0.11,5.85,0.54,8.69,1.32
					c1.65,0.45,4.38,0.81,5.01,2.76c0.71,2.2-1.59,5.71-2.4,7.63c-0.69,1.65-4.07,11.59-7.29,7.44
					C70.08,54.39,70.23,53.89,70.55,53.8L70.55,53.8z"/>
			</g>
		</g>
		<g>
			<defs>
				<path id="SVGID_9_" d="M66.49,49.51c-2.58-3.61-5.17-7.22-7.75-10.83c-0.15-0.21-0.32-0.43-0.58-0.54
					c-0.22-0.09-0.44-0.08-0.64-0.06c-5.24,0.5-9.18,3.28-10.3,7.27c-0.16,0.56-0.22,1.25,0.35,1.83c0.36,0.37,0.9,0.61,1.41,0.82
					c4.65,1.89,9.49,3.06,14.02,5.27c1.49,0.73,6.29,3.33,7.05,1.61C70.45,53.94,67.19,50.48,66.49,49.51z"/>
			</defs>
			<clipPath id="SVGID_10_">
				<use xlink:href="#SVGID_9_"  style="overflow:visible;"/>
			</clipPath>
			<g class="st17">
				<path class="st13" d="M69.14,54.63c-2.5-1.84-5.07-4.53-7.07-6.95c-1.16-1.4-2.08-2.97-3.11-4.47c-0.4-0.59-1.39-2.29-1.96-2.56
					c-0.9-0.41-1.64,0.2-2.43,0.72c-1.11,0.73-3.26,2.27-3.79,3.62c-0.5,1.28,0.16,1.22,1.33,1.71c0.88,0.37,2.33,1.07,3.24,1.35
					c3.2,0.98,12.15,4.59,14.61,7.05c0.79,0.79-0.69,0.48-1.69,0.43c-3.01-0.17-10.56-3.67-13.42-4.56
					c-2.02-0.64-5.06-0.81-6.69-2.34c-3.26-3.05,1.29-7.42,3.63-9.2c1.36-1.03,3.41-2.37,5.18-2.15c1.98,0.25,3.35,2.74,4.34,4.27
					c1.59,2.46,3.09,4.79,5.11,6.91c1.58,1.65,3.3,3.26,3.79,5.6C70.35,54.7,69.54,54.92,69.14,54.63L69.14,54.63z"/>
			</g>
		</g>
		<g>
			<defs>
				<path id="SVGID_11_" d="M60.76,53.91c-4.54-1.84-9.08-3.68-13.62-5.53c-0.26-0.1-0.55-0.21-0.75-0.15
					c-0.18,0.05-0.25,0.2-0.31,0.35c-1.51,3.84-0.27,9.06,3.23,13.64c0.49,0.64,1.14,1.35,1.93,1.55c0.51,0.13,0.94,0.01,1.34-0.11
					c3.63-1.15,6.63-3.12,10.53-3.88c1.28-0.25,5.67-0.81,4.27-2.96C66.63,55.67,61.98,54.41,60.76,53.91z"/>
			</defs>
			<clipPath id="SVGID_12_">
				<use xlink:href="#SVGID_11_"  style="overflow:visible;"/>
			</clipPath>
			<g class="st18">
				<path class="st13" d="M65.16,55.68c0.03-0.1,0.06-0.19,0.09-0.29c0.1-0.3,0.46-0.42,0.73-0.39c2.43,0.27,1.79,3.05,0.39,4.24
					c-1.47,1.24-3.45,2.03-5.14,2.92c-1.97,1.04-3.96,2.33-6.04,3.12c-3.22,1.22-6.25-0.92-8.14-3.53
					c-1.79-2.46-3.88-7.52-2.97-10.61c0.33-1.12,1.45-4.5,2.18-3.48c1.32,1.82,1.38,7.35,2.19,9.45c0.49,1.28,1.13,2.48,2.07,3.46
					c1.43,1.49,2.64,1.83,4.52,1.08c2.34-0.94,4.58-2.23,6.88-3.28c1.03-0.47,3.26-1.03,3.32-2.35
					C65.25,55.88,65.11,55.85,65.16,55.68L65.16,55.68z"/>
			</g>
		</g>
		<g>
			<defs>
				<path id="SVGID_13_" d="M83.34,62.77c4.36,1.92,8.71,3.84,13.07,5.76c0.25,0.11,0.52,0.22,0.71,0.16
					c0.16-0.05,0.22-0.22,0.26-0.38c1.17-4.13,0.17-9.91-3.39-14.77c-0.5-0.68-1.09-1.59-1.84-1.8c-0.48-0.13-1.86,0.35-2.22,0.49
					c-3.32,1.27-5.56,3.43-9.16,4.3c-1.18,0.28-5.25,0.93-3.81,3.21C77.74,60.96,82.16,62.25,83.34,62.77z"/>
			</defs>
			<clipPath id="SVGID_14_">
				<use xlink:href="#SVGID_13_"  style="overflow:visible;"/>
			</clipPath>
			<g class="st19">
				<path class="st13" d="M92.52,51.72c3.36,0.81,4.93,5.54,5.5,8.64c0.42,2.31,1.26,8.82-2.29,8.84c-2.17,0.01-4.64-1.56-6.53-2.49
					c-2.65-1.32-5.37-2.02-8.19-2.81c-1.83-0.52-3.92-1.11-4.89-2.99c-0.79-1.53-0.6-3.2,0.85-4.14c0.78-0.5,1.92-0.05,1.98,0.97
					c0.18,3.33,5.4,3.95,7.79,4.8c1.5,0.53,2.82,1.24,4.22,2c0.66,0.35,3.46,1.83,4.23,1.57c1.67-0.55,0.32-6.19-0.1-7.49
					c-0.74-2.31-2.42-4.22-2.91-6.6C92.15,51.85,92.36,51.68,92.52,51.72L92.52,51.72z"/>
			</g>
		</g>
		<g>
			<defs>
				<path id="SVGID_15_" d="M78.1,67.01c2.51,3.63,5.02,7.26,7.53,10.88c0.14,0.21,0.31,0.43,0.57,0.55
					c0.22,0.1,0.44,0.09,0.65,0.07c5.29-0.41,9.32-3.11,10.54-7.06c0.17-0.55,0.25-1.23-0.3-1.82c-0.36-0.38-0.89-0.62-1.4-0.83
					c-4.63-1.95-9.47-3.19-13.98-5.45c-1.48-0.75-6.24-3.4-7.05-1.71C74.23,62.55,77.42,66.03,78.1,67.01z"/>
			</defs>
			<clipPath id="SVGID_16_">
				<use xlink:href="#SVGID_15_"  style="overflow:visible;"/>
			</clipPath>
			<g class="st20">
				<path class="st13" d="M95.47,68.38c1.21,0.55,2.71,0.29,3.29,1.82c0.55,1.46-0.72,3.17-1.49,4.27
					c-1.92,2.75-6.16,6.72-9.77,5.37c-2.03-0.76-3.61-2.66-4.98-4.29c-1.79-2.11-3.49-4.3-5.23-6.46c-1.29-1.6-3-3.32-3-5.58
					c0-1.66,0.78-2.79,2.33-3.06c0.59-0.1,0.63,0.32,0.45,0.95c-0.86,2.96,2.37,5.31,4.06,7.37c1.94,2.36,3.76,5.05,6.08,7.02
					c2.53,2.15,5.58-0.49,7.48-2.48c0.44-0.47,1.1-1.07,1.38-1.68c0.41-0.92,0.4-0.92,0.09-1.58c-0.29-0.61-1.79-1.26-2-2.02
					C94.05,67.73,95.18,68.25,95.47,68.38L95.47,68.38z"/>
			</g>
		</g>
		<g>
			<defs>
				<path id="SVGID_17_" d="M68.97,66.27c-1.78,2.89-3.55,5.78-5.33,8.66c-0.1,0.16-0.2,0.35-0.1,0.54c0.09,0.16,0.3,0.29,0.5,0.4
					c5.24,2.86,11.89,4.1,17.4,3.23c0.77-0.12,1.61-0.35,1.76-0.9c0.1-0.35-0.12-0.76-0.34-1.13c-2.01-3.43-5-6.7-6.55-10.19
					c-0.51-1.15-1.85-4.94-4.46-4.73C70.45,62.27,69.45,65.49,68.97,66.27z"/>
			</defs>
			<clipPath id="SVGID_18_">
				<use xlink:href="#SVGID_17_"  style="overflow:visible;"/>
			</clipPath>
			<g class="st21">
				<path class="st13" d="M73.27,63.49c-1.48-0.8-4.08,6.16-4.54,7.11c-0.41,0.84-1.09,1.88-1.38,2.77
					c-0.65,0.68-0.62,1.35,0.08,2.04c0.64,0.14,1.28,0.21,1.93,0.22c1.94,0.1,3.62,0.28,5.51,0.78c1.1,0.29,2.18,0.61,3.31,0.69
					c1.21,0.09,3.08-0.31,3.66-0.51c0.04-0.01,0.09-0.03,0.13-0.04c0.8-0.27,1.61,0.14,1.92,0.95c0.03,0.07,0.06,0.15,0.09,0.22
					c0.31,0.77-0.16,1.9-0.97,2.12c-1.78,0.47-3.55,0.71-5.39,0.54c-2.06-0.19-3.97-1.04-6.01-1.32c-2.48-0.34-7.47,0.28-8.35-3.22
					c-0.4-1.6,1.02-3.44,1.72-4.78c1.28-2.42,2.55-4.9,3.98-7.23c1.17-1.91,3.42-3.78,5.18-1.43C74.6,62.98,73.89,63.82,73.27,63.49
					L73.27,63.49z"/>
			</g>
		</g>
		<g>
			<defs>
				<path id="SVGID_19_" d="M90.81,49.89c0.01-1.28-8.19-8.08-8.84-7.71c-0.65,0.37-7.57,11.88-7.47,12.61
					c0.15,1.13,0.17,2.55,3.04,1.89C80.4,56.02,90.8,51.33,90.81,49.89z"/>
			</defs>
			<clipPath id="SVGID_20_">
				<use xlink:href="#SVGID_19_"  style="overflow:visible;"/>
			</clipPath>
			<g class="st22">
				<path class="st13" d="M88.42,46.36c-1.3-0.11-2.27-0.85-3.43-1.42c-0.74-0.36-2.22-1.26-3.07-0.7c-0.41,0.27-0.63,1.5-0.83,1.96
					c-0.69,1.55-1.74,2.77-2.57,4.23c-1.12,1.96-3.1,3.22-1.88,5.67c0.51,1.01,0.46,2.52-0.6,2.13c-1.87-0.69-2.51-2.88-1.97-4.76
					c0.5-1.73,1.83-3.32,2.69-4.88c0.89-1.63,1.6-3.36,2.46-5c0.83-1.59,1.91-2.69,3.74-2.19c2.07,0.57,5.1,2.51,5.6,4.79
					C88.58,46.28,88.52,46.37,88.42,46.36L88.42,46.36z"/>
			</g>
		</g>
		<g>
			<defs>
				<path id="SVGID_21_" d="M61.95,74.77c0.86,0.09,8.51-12.59,8.04-13.22c-0.47-0.63-1.25-2.89-3.34-1.64
					c-2.09,1.24-4.47,1.25-7.37,2.39c-2.9,1.14-7.17,2.59-6.84,3.74C52.76,67.19,60.25,74.6,61.95,74.77z"/>
			</defs>
			<clipPath id="SVGID_22_">
				<use xlink:href="#SVGID_21_"  style="overflow:visible;"/>
			</clipPath>
			<g class="st23">
				<path class="st13" d="M68.35,59.68c1.88-1.67,2.7,1.24,2.43,2.75c-0.66,3.66-2.54,7.44-4.85,10.28
					c-1.66,2.05-3.71,3.14-6.12,1.7c-2.36-1.41-7.1-5.5-7-8.55c0.02-0.6,0.47-1.28,1.15-1.1c1.62,0.43,2.25,1.58,3.35,2.85
					c0.86,0.99,3.59,4.61,5.19,4.12c1.58-0.48,7.45-10.78,5.89-11.4C68.12,60.21,68.16,59.84,68.35,59.68L68.35,59.68z"/>
			</g>
		</g>
		<g class="st24">
			<g>
				<path class="st9" d="M65.25,44.4c5.17-6.43,15.72-1.83,20.3,3.01c5.5,5.81,9.41,16.68,3.56,23.69c-1.43,1.71-3.69,3.32-5.99,2.9
					c-2.09-0.38-3.69-2.19-3.87-4.39c-0.14-1.74,0.8-3.37,1.19-5.01c0.36-1.51,0.38-2.97,0.04-4.48c-0.73-3.22-2.8-6.07-5.22-8.13
					c-2.74-2.33-6.4-2.76-9.4-4.61C64.83,46.74,64.43,45.43,65.25,44.4L65.25,44.4z"/>
			</g>
		</g>
		<g class="st25">
			<path class="st9" d="M80.73,77.52c-1.69-1.47-3.03-3.68-3.76-5.83c-0.08-0.25,0.24-0.41,0.39-0.2c1.3,1.83,2.61,3.84,3.6,5.88
				C81.01,77.5,80.82,77.61,80.73,77.52L80.73,77.52z"/>
		</g>
		<g class="st26">
			<path class="st9" d="M78,77.95c-0.56-0.82-0.94-1.75-1.26-2.69c-0.32-0.94-0.67-1.94-0.67-2.95c0-0.19,0.25-0.33,0.36-0.13
				c0.48,0.87,0.7,1.88,0.97,2.84c0.28,0.96,0.56,1.91,0.69,2.91C78.1,77.97,78.03,77.99,78,77.95L78,77.95z"/>
		</g>
		<g class="st27">
			<path class="st9" d="M72.27,68.58c-0.34,1.94-0.58,3.94-1.6,5.65c-0.13,0.21-0.5,0.14-0.44-0.15c0.43-1.91,1.34-3.66,1.88-5.53
				C72.14,68.44,72.29,68.47,72.27,68.58L72.27,68.58z"/>
		</g>
		<g>
			<path class="st9" d="M63.55,65.1c-1.25,1.38-2.62,2.99-4.36,3.67c-0.18,0.07-0.36-0.18-0.22-0.33c1.33-1.34,3.05-2.23,4.46-3.48
				C63.51,64.89,63.61,65.02,63.55,65.1L63.55,65.1z"/>
		</g>
		<g class="st25">
			<path class="st9" d="M62.16,64.06c-1.22,0.89-2.57,1.83-4.04,2.19c-0.1,0.03-0.2-0.12-0.09-0.19c1.3-0.8,2.74-1.34,4.06-2.11
				C62.16,63.92,62.23,64.02,62.16,64.06L62.16,64.06z"/>
		</g>
		<g class="st26">
			<path class="st9" d="M58.23,57.55c-1.81,0.59-3.73,1.45-5.64,1.56c-0.22,0.01-0.26-0.28-0.08-0.37c1.72-0.87,3.8-1.1,5.66-1.51
				C58.34,57.19,58.4,57.5,58.23,57.55L58.23,57.55z"/>
		</g>
		<g class="st25">
			<path class="st9" d="M56.61,55.56c-1.62,0.33-3.6,0.33-5.17-0.26c-0.17-0.06-0.12-0.37,0.06-0.36c1.68,0.02,3.44,0.3,5.11,0.5
				C56.69,55.44,56.67,55.55,56.61,55.56L56.61,55.56z"/>
		</g>
		<g>
			<path class="st9" d="M54.5,53.9c-0.92-0.15-1.82-0.29-2.72-0.53c-0.1-0.03-0.08-0.17,0.03-0.17c0.93,0.04,1.84,0.2,2.76,0.34
				C54.79,53.58,54.73,53.94,54.5,53.9L54.5,53.9z"/>
		</g>
		<g>
			<path class="st9" d="M60.8,46.75c-0.42-1.22-1.73-2.3-2.59-3.22c-0.72-0.77-1.47-1.52-2.08-2.38c-0.08-0.11,0.05-0.29,0.17-0.21
				c1.08,0.72,1.96,1.74,2.79,2.75c0.74,0.89,1.64,1.84,1.72,3.06C60.81,46.76,60.8,46.76,60.8,46.75L60.8,46.75z"/>
		</g>
		<g class="st25">
			<path class="st9" d="M58.61,46.61c-0.86-0.71-1.97-1.3-2.66-2.18c-0.11-0.14,0.07-0.29,0.2-0.24c1.07,0.37,1.9,1.42,2.63,2.27
				C58.86,46.56,58.7,46.69,58.61,46.61L58.61,46.61z"/>
		</g>
		<g>
			<path class="st9" d="M71.28,48.26c0-0.79-0.08-1.59-0.2-2.38c-0.12-0.77-0.36-1.56-0.33-2.35c0.01-0.2,0.23-0.31,0.36-0.13
				c0.94,1.31,0.75,3.35,0.58,4.88C71.66,48.52,71.28,48.5,71.28,48.26L71.28,48.26z"/>
		</g>
		<g class="st25">
			<path class="st9" d="M86.86,48.15c-0.35,0.75-0.94,1.19-1.61,1.64c-0.76,0.51-1.47,1.12-2.28,1.54c-0.33,0.17-0.52-0.3-0.36-0.54
				c0.48-0.72,1.18-1.18,1.91-1.59c0.73-0.4,1.59-0.59,2.24-1.13C86.82,48.03,86.89,48.09,86.86,48.15L86.86,48.15z"/>
		</g>
		<g>
			<path class="st9" d="M91.47,56.15c-1.68,0.78-3.76,1.47-5.61,1.58c-0.17,0.01-0.2-0.22-0.06-0.29c1.65-0.84,3.81-1.3,5.64-1.47
				C91.54,55.96,91.56,56.11,91.47,56.15L91.47,56.15z"/>
		</g>
		<g class="st26">
			<path class="st9" d="M89,58.33c-1.8,0.72-3.99,1.49-5.94,1.1c-0.13-0.03-0.17-0.25-0.02-0.29c1.91-0.55,4-0.5,5.95-0.87
				C89.02,58.26,89.02,58.31,89,58.33L89,58.33z"/>
		</g>
		<g class="st26">
			<path class="st9" d="M91.43,73.08c-2.07-0.81-4.45-2.37-5.82-4.2c-0.14-0.18,0.09-0.46,0.28-0.34c0.97,0.56,1.82,1.31,2.7,2
				c0.99,0.77,2.04,1.47,2.99,2.3C91.72,72.95,91.58,73.14,91.43,73.08L91.43,73.08z"/>
		</g>
		<g>
			<path class="st9" d="M90.07,74.61c-1.16-0.7-2.67-1.53-3.4-2.73c-0.09-0.14,0.06-0.35,0.21-0.26c0.58,0.33,1.06,0.86,1.57,1.3
				c0.58,0.5,1.17,0.97,1.79,1.42C90.38,74.44,90.22,74.7,90.07,74.61L90.07,74.61z"/>
		</g>
	</g>
</g>
</svg>
