<?xml version="1.0" encoding="utf-8"?>
<!-- Generator: Adobe Illustrator 24.1.2, SVG Export Plug-In . SVG Version: 6.00 Build 0)  -->
<svg version="1.1" id="Layer_1" xmlns="http://www.w3.org/2000/svg" xmlns:xlink="http://www.w3.org/1999/xlink" x="0px" y="0px"
	 viewBox="0 0 206.2 300.1" style="enable-background:new 0 0 206.2 300.1;" xml:space="preserve">
<style type="text/css">
	.st0{fill-rule:evenodd;clip-rule:evenodd;fill:url(#Rectangle-Copy-7_1_);}
	.st1{fill-rule:evenodd;clip-rule:evenodd;fill:#006CC9;}
	.st2{fill-rule:evenodd;clip-rule:evenodd;fill:url(#Path-2-Copy-3_1_);}
	.st3{fill:#FFFFFF;}
	.st4{fill:#006CC9;}
</style>
<g id="poker_bg">
	<g>
		<g id="Group-20-Copy">
			
				<linearGradient id="Rectangle-Copy-7_1_" gradientUnits="userSpaceOnUse" x1="-119.7604" y1="374.2479" x2="-119.3167" y2="375.0581" gradientTransform="matrix(217.3199 0 0 -313.4959 26081.0332 117602.7344)">
				<stop  offset="0" style="stop-color:#E6E7F0"/>
				<stop  offset="1" style="stop-color:#F5F6F7"/>
			</linearGradient>
			<path id="Rectangle-Copy-7" class="st0" d="M-2-6.6h210.2c2,0,3.6,1.6,3.6,3.6v306.3c0,2-1.6,3.6-3.6,3.6H-2
				c-2,0-3.6-1.6-3.6-3.6V-3C-5.6-5-4-6.6-2-6.6z"/>
			<path id="Rectangle-Copy-21" class="st1" d="M3.6,0h199c2,0,3.6,1.6,3.6,3.6v292.9c0,2-1.6,3.6-3.6,3.6H3.6c-2,0-3.6-1.6-3.6-3.6
				V3.6C0,1.6,1.6,0,3.6,0z"/>
		</g>
		
			<linearGradient id="Path-2-Copy-3_1_" gradientUnits="userSpaceOnUse" x1="-119.8585" y1="375.1725" x2="-119.1149" y2="373.8464" gradientTransform="matrix(211.7529 0 0 -230.0786 25409.8418 86290.2734)">
			<stop  offset="0" style="stop-color:#EEEEEE;stop-opacity:0.1389"/>
			<stop  offset="1" style="stop-color:#FFFFFF;stop-opacity:7.124126e-02"/>
		</linearGradient>
		<polygon id="Path-2-Copy-3" class="st2" points="206.2,50.4 -5.6,223.4 -5.6,-6.6 206.2,-6.6 		"/>
	</g>
</g>
<path class="st3" d="M68.3,137.5c0-0.5,2.3-9.5,6.5-9.5c3.1,0,5.4,5,5.4,6c0,1.4-1.2,2.7-2.6,2.7c-0.7,0-2-0.6-3-1.3
	C71.4,141.7,68.3,139.5,68.3,137.5z"/>
<path class="st3" d="M54.4,144.8c0,0.8,0.4,1.6,1.2,3c2,3.8,6.1,11.6,6.3,27.8c-1.6,2.6-0.4,5.5,2.2,5.5c0.5,0,1.2-0.2,2.6-0.6
	c32.8-9.3,63.9-2,75-2c1.7,0,2.9-1.6,2.9-3.1c0-1.4,0-3.2-17.5-5.1c-19.9-2.2-38.6-2.4-58.2,2.3c0.4-7.2-1-14.6-3.6-21.3
	c6,3,9.2,6.1,11.2,8.1c1.5,1.5,2.5,2.4,3.7,2.4c1.9,0,3.8-1.9,4-3.9c1.1-14.1,19.9-36.3,22.8-36.6c4.1,0,22.6,24.5,23.8,37.6
	c0.1,1.6,1.3,2.7,2.9,2.7c1.5,0,2.7-1.1,4.5-2.9c2.4-2.3,6-5.7,12.5-8.6c-3.7,9-5,18.5-3.7,27.2c0.4,3,5.6,3.7,5.6-2.2
	c-0.2-15.8,4.4-24,6.5-28c0.8-1.4,1.2-2.2,1.2-3c0-1.7-1.3-3-2.9-3c-0.9,0-10.9,2.3-20.8,10.5c-4.7-17-22.6-38.1-28.7-38.1
	c-3.7,0-22.6,16.3-29.2,37.6c-9.6-8-19.4-10.2-20.3-10.2C56.3,140.7,54.4,142.6,54.4,144.8z"/>
<path class="st3" d="M140.1,136.7c0.4,0.8,1.1,2,2.3,3.6c1.4,1.8,4.2,0.6,4.2-1.6c0-0.1-1.6-9.1-5.5-9.1c-3,0-6.4,4.3-6.4,6.5
	C134.9,137.7,136.4,139.7,140.1,136.7z"/>
<path class="st3" d="M117.1,147.5c0-1.8-5.1-4.6-8.4-12.9c-0.2-1.5-2.2-1.3-2.5,0c-2,7.7-8.6,11.2-8.6,13.8c0,2,2.7,1.9,6.3,7.4
	c1,1.5,2.2,5.1,3.9,5.1c2.5,0,1.2-3.8,8.6-11.8"/>
<path class="st4" d="M108,154.7c-1.1-2-2.9-4-5.5-6.3c1.8-2.1,3.6-4.5,4.7-7.2c1.2,3,3.1,5.6,5,7.8C110.4,151,108.9,152.9,108,154.7
	z"/>
<circle class="st3" cx="12.4" cy="11.3" r="4.5"/>
<circle class="st3" cx="193.8" cy="11.3" r="4.5"/>
<circle class="st3" cx="12.4" cy="288.9" r="4.5"/>
<circle class="st3" cx="193.8" cy="288.9" r="4.5"/>
</svg>
