<?xml version="1.0" encoding="utf-8"?>
<!-- Generator: Adobe Illustrator 24.1.1, SVG Export Plug-In . SVG Version: 6.00 Build 0)  -->
<svg version="1.1" id="Capa_1" xmlns="http://www.w3.org/2000/svg" xmlns:xlink="http://www.w3.org/1999/xlink" x="0px" y="0px"
	 viewBox="0 0 2122 2122" style="enable-background:new 0 0 2122 2122;" xml:space="preserve">
<style type="text/css">
	.st0{fill:url(#SVGID_1_);}
</style>
<linearGradient id="SVGID_1_" gradientUnits="userSpaceOnUse" x1="1090.2247" y1="-264.9926" x2="1090.2247" y2="2433.363">
	<stop  offset="0" style="stop-color:#9B1C22"/>
	<stop  offset="0.4729" style="stop-color:#E41E28"/>
	<stop  offset="1" style="stop-color:#6E1312"/>
</linearGradient>
<path class="st0" d="M343.38,109.94v771.01h202.79c0,0,67.65-254.11,263.15-254.11c195.5,0,211,111.42,452.24,63.01
	c-230.65,259.2-522.79,744.65-522.79,1331.15c155.96,0,683.14,0,683.14,0s-114.22-250.41-28.55-514.01
	c85.67-263.59,413.03-654.17,429.76-907.18c14.32-216.64,13.96-448.12,13.96-448.12s-92.26-46.13-250.41,13.18
	c-129.1,48.41-285.56,70.29-384.41,13.18C1103.4,120.92,833.22,17.68,585,285.67c0-96.65,0-175.73,0-175.73H343.38z"/>
</svg>
