<?xml version="1.0" encoding="utf-8"?>
<!-- Generator: Adobe Illustrator 24.1.1, SVG Export Plug-In . SVG Version: 6.00 Build 0)  -->
<svg version="1.1" id="Layer_1" xmlns="http://www.w3.org/2000/svg" xmlns:xlink="http://www.w3.org/1999/xlink" x="0px" y="0px"
	 viewBox="0 0 105.13 98.21" style="enable-background:new 0 0 105.13 98.21;" xml:space="preserve">
<style type="text/css">
	.st0{clip-path:url(#SVGID_2_);}
	.st1{fill:#458750;}
	.st2{fill:#47654D;}
	.st3{fill:#1C652E;}
	.st4{fill:#1D5B27;}
	.st5{clip-path:url(#SVGID_4_);}
	.st6{fill:#97B723;}
	.st7{opacity:0.32;clip-path:url(#SVGID_6_);fill:#47654D;}
	.st8{opacity:0.64;clip-path:url(#SVGID_6_);fill:#91C19D;}
	.st9{opacity:0.29;clip-path:url(#SVGID_8_);fill:#334A04;}
	.st10{opacity:0.35;}
	.st11{fill:#FFFFFF;}
	.st12{clip-path:url(#SVGID_10_);}
	.st13{fill:#EFFFE9;}
	.st14{fill:#387746;}
	.st15{opacity:0.65;clip-path:url(#SVGID_10_);fill:#F44D4D;}
	.st16{opacity:0.3;clip-path:url(#SVGID_12_);fill:#EFFFE9;}
	.st17{opacity:0.34;clip-path:url(#SVGID_14_);fill:#D8A8A7;}
	.st18{fill:#DB1616;}
	.st19{fill:#4C0000;}
	.st20{opacity:0.16;}
	.st21{opacity:0.39;}
	.st22{opacity:0.38;}
	.st23{opacity:0.51;}
</style>
<g>
	<g>
		<defs>
			<path id="SVGID_1_" d="M46.75,6.69C63.43,1.82,83.3,5.23,94.41,19.22c5.4,6.8,8.04,11.35,9,20.16
				c1.19,10.97,1.19,18.17-4.46,27.88c-1.87,3.21-8.3,8.4-11.33,10.39c-5.44,3.58-12.13,4.24-18.55,4.32
				c-7.29,0.09-14.6-0.44-21.81-1.59c-6.01-0.96-12.08-2.39-17.36-5.57C19.27,68.42,9.85,50.54,13.79,37.52
				C18.54,21.81,32.15,10.94,46.75,6.69z"/>
		</defs>
		<use xlink:href="#SVGID_1_"  style="overflow:visible;fill:#88AE1A;"/>
		<clipPath id="SVGID_2_">
			<use xlink:href="#SVGID_1_"  style="overflow:visible;"/>
		</clipPath>
		<g class="st0">
			<g>
				<path class="st1" d="M11.3,45.32c1.02-1.83,2.25-3.47,3.16-5.37c0.98-2.06,2.07-4.09,3.25-6.05c2.34-3.87,5.15-7.02,8.6-9.95
					c6.52-5.55,14.09-10.16,22.37-12.5c4.34-1.23,8.77-1.79,13.28-1.64c4.66,0.16,9.06,1.42,13.43,2.98
					c7.56,2.71,15.49,5.43,20.42,12.17c2.75,3.76,5.08,7.77,8.11,11.32c1.4,1.65,2.9,3.29,4.56,4.68c2.09,1.76,6.08,2.2,7.03-1.06
					c0.85-2.88-1.21-4.52-3.02-6.31c-1.58-1.56-3.09-3.23-4.4-5.03c-2.73-3.73-4.98-7.78-8.07-11.24
					c-5.96-6.68-14.88-9.7-23.08-12.6c-9.35-3.31-18.94-3.96-28.59-1.45C38.28,5.9,29.28,11.52,21.54,18.35
					c-3.74,3.29-7.27,7.07-9.37,11.65c-1.08,2.36-1.89,4.78-2.53,7.3c-0.29,1.16-0.45,2.26-0.62,3.43c-0.19,1.32-0.14,2.57-0.28,3.9
					C8.6,46.02,10.67,46.44,11.3,45.32L11.3,45.32z"/>
			</g>
			<g>
				<path class="st2" d="M9.76,52.28c1.85-0.5-0.55-1.07,1.08-2.01c1.96-1.12,4.73-2.98,6.48-4.43c3.1-2.58,6.75-6.84,9.89-9.37
					c5.49-4.43,11.91-7.02,18.41-9.89c6.84-3.02,15.73-4.25,22.76-2.26c29.56,8.39,40.18,21.74,44.56,22.03
					c3.37,0.22,2.05-3.42,0.21-5.6c-1.41-1.67-3.41-2.48-5.27-3.59c-1.73-1.04-3.42-2.14-5.09-3.27c-3.18-2.17-6.26-4.47-9.37-6.74
					c-3.26-2.39-4.58-3.16-8.09-5.16c-3.84-2.19-9.76-5.07-14.14-5.55c-8.06-0.88-16.66-1.23-24.4,1.53
					c-7.42,2.64-13.96,7.19-19.95,12.23c-3.51,2.95-6.9,6.03-10.19,9.23c-1.73,1.68-3.64,3.35-4.98,5.36
					c-1.29,1.93-2.75,3.74-3.41,5.99C7.98,51.68,8.87,52.52,9.76,52.28L9.76,52.28z"/>
			</g>
			<g>
				<path class="st3" d="M11.21,55.83c1.82,0.43,2-1.06,3.72-1.63c1.8-0.6,4.7-1.89,6.48-2.56c3.6-1.36,7.73-3.72,11.25-5.28
					c6.79-3.01,13.1-3.91,20.47-5.18C59.92,40,66.5,40.93,73,42.98c6.44,2.02,14.83,3.47,21.36,5.25c3.77,1.03,10.4,1.97,14.32,2.05
					c1.87,0.03-1.17,0.96,0.7,0.99c2.02,0.03,3.89,0.73,5.9,0.66c2.41-0.09,4.69-3,3.02-5.27c-1.36-1.85-2.96-2.82-5.22-3.2
					c-2.02-0.34-4.04-0.37-6.08-0.31c-3.38,0.1-6.63-0.04-9.94-0.76c-6.88-1.51-13.35-4.39-20-6.62
					c-6.97-2.34-14.21-3.76-21.58-3.02c-8.01,0.81-15.55,3.39-22.85,6.7c-4.08,1.85-8.06,4.07-11.88,6.41
					c-1.83,1.12-3.58,2.39-5.35,3.59c-1.77,1.2-4.03,2.28-5.04,4.24C9.93,54.49,10.26,55.6,11.21,55.83L11.21,55.83z"/>
			</g>
			<g>
				<path class="st4" d="M13.52,58.22c2.43,2.13,4.25,0.79,7.38,0.92c3.49,0.14,8.5,1.42,11.93,0.77c6.58-1.25,13.08-3.14,19.79-3.5
					c13.83-0.73,29.28,1.11,43.1,0.85c3.74-0.07,10.82-1.81,14.49-2.56c1.74-0.36-1.74,2.62-0.06,2.04c2-0.69,4.24-1.37,5.6-3.05
					c1.89-2.33,0.81-6.2-2.56-6.19c-1.81,0-3.25,0.73-4.92,1.32c-1.49,0.53-3.01,0.95-4.55,1.3c-2.86,0.64-5.75,0.94-8.68,1.05
					c-6.51,0.23-12.99-0.5-19.44-1.31c-6.86-0.86-13.75-1.79-20.69-1.68c-6.88,0.11-13.55,1.54-20.2,3.21
					c-3.63,0.91-7.25,1.88-10.91,2.64c-3.35,0.7-6.99,0.99-10.08,2.53C13.15,56.85,13.03,57.79,13.52,58.22L13.52,58.22z"/>
			</g>
			<g>
				<path class="st2" d="M16.47,62.92c1.42,2.03,4.49,2.95,6.69,3.91c2.99,1.31,6.22,2.1,9.4,2.76c6.35,1.32,12.95,1.71,19.42,1.82
					c12.25,0.2,24.87,0.12,36.71-3.38c3.51-1.03,6.92-2.41,10.19-4.03c1.68-0.83,3.08-1.89,4.52-3.08c0.75-0.62,1.58-1.16,2.18-1.93
					c0.57-0.72,0.76-1.6,1.31-2.32c1.07-1.42,1.05-1.98-0.27-1.8c-0.71,0.1-1.82-0.28-2.56-0.17c-0.78,0.11,0.56,0.93-0.17,1.19
					c-1.64,0.59-4.22,1.79-5.79,2.56c-2.61,1.26-21.34,4.03-26.94,4.47c-5.95,0.47-11.92,0.48-17.89,0.42
					c-6.16-0.07-12.34-0.21-18.48-0.76c-3.51-0.32-6.98-0.83-10.48-1.22c-2.42-0.27-6.23-0.95-7.86,1.37
					C16.43,62.78,16.43,62.87,16.47,62.92L16.47,62.92z"/>
			</g>
			<g>
				<path class="st2" d="M16.83,68.71c1.21,2.92,5.2,4.42,7.91,5.63c3.38,1.51,6.84,2.78,10.35,3.96c7,2.37,14.4,4.71,21.79,5.38
					c3.68,0.33,7.39,0.06,11.07-0.26c3.65-0.31,7.3-0.65,10.92-1.19c6.7-1,13-3.31,18.81-6.8c3.28-1.97,6.35-4.24,9.36-6.59
					c2.75-2.15,6.67-4.94,6.78-8.76c0.03-0.96-0.78-2.23-1.81-2.37c-3.45-0.47-6.33,1.89-8.89,3.95c-2.29,1.85-4.65,3.61-7.1,5.24
					c-5.1,3.37-10.47,5.85-16.49,7.04c-3.18,0.63-6.4,0.93-9.62,1.22c-3.44,0.31-6.89,0.64-10.34,0.57
					c-6.92-0.13-13.79-1.24-20.42-2.95c-3.82-0.99-6.9-0.81-10.74-1.7c-1.84-0.43-4.13-3.45-5.99-3.72
					c-1.75-0.25-3.53-0.57-5.15,0.31C16.94,67.83,16.68,68.34,16.83,68.71L16.83,68.71z"/>
			</g>
		</g>
	</g>
	<g>
		<defs>
			<path id="SVGID_3_" d="M46.75,6.69C63.43,1.82,83.3,5.23,94.41,19.22c5.4,6.8,8.04,11.35,9,20.16
				c1.19,10.97,1.19,18.17-4.46,27.88c-1.87,3.21-8.3,8.4-11.33,10.39c-5.44,3.58-12.13,4.24-18.55,4.32
				c-7.29,0.09-14.6-0.44-21.81-1.59c-6.01-0.96-12.08-2.39-17.36-5.57C19.27,68.42,9.85,50.54,13.79,37.52
				C18.54,21.81,32.15,10.94,46.75,6.69z"/>
		</defs>
		<clipPath id="SVGID_4_">
			<use xlink:href="#SVGID_3_"  style="overflow:visible;"/>
		</clipPath>
		<g class="st5">
			<path class="st6" d="M13.42,40.55c-1.19,0.02-2.2,0.73-2.38,1.96c-0.11,0.73,0.79,1.52,1.4,0.82
				c4.46-5.13,10.94-7.97,14.72-13.81c0.97-1.49,1.8-3.06,3.08-4.32c1.43-1.41,3.22-2.43,4.96-3.4c3.47-1.94,7.03-3.54,10.85-4.69
				c4.04-1.22,8.23-2.35,12.44-2.65c4.15-0.29,8.26,0.31,12.27,1.36c3.69,0.97,7.55,2.11,10.96,3.85c3.2,1.63,5.7,4.28,9.04,5.66
				c1.82,0.75,3.86,1.19,5.5,2.32c1.57,1.09,2.53,2.84,3.58,4.39c2.19,3.22,5.11,6.82,9.1,7.65c1.71,0.36,2.59-1.47,1.6-2.75
				c-1.16-1.49-2.56-2.58-3.92-3.87c-1.47-1.38-2.67-2.94-3.81-4.59c-0.9-1.3-1.81-2.62-3.01-3.66c-1.54-1.35-3.38-2.11-5.28-2.79
				c-1.76-0.63-3.39-1.27-4.94-2.35c-1.55-1.07-2.97-2.3-4.61-3.24c-3.63-2.08-7.82-3.35-11.85-4.4c-4.03-1.04-8.22-1.74-12.4-1.64
				c-4.29,0.1-8.52,1.08-12.64,2.21c-4.16,1.14-8.24,2.56-12.08,4.56c-3.33,1.74-6.89,4.02-9.23,7.01
				c-1.25,1.61-2.12,3.47-3.35,5.09c-1.27,1.68-2.86,3.12-4.45,4.49c-3.03,2.6-5.87,5.03-7.86,8.56c0.52,0.14,1.04,0.28,1.56,0.42
				c-0.1-0.73,0.17-1.37,0.8-1.91C13.61,40.74,13.58,40.54,13.42,40.55L13.42,40.55z"/>
		</g>
		<g class="st5">
			<path class="st6" d="M8.37,54.45c3.66-1.72,6.93-3.94,10.31-6.16c3-1.97,6.12-3.82,8.98-5.99c2.82-2.13,5.23-4.83,8.43-6.44
				c3.13-1.57,6.68-2.56,10.05-3.46c7.01-1.86,14.42-2.46,21.62-1.43c3.7,0.53,7.31,1.5,10.75,2.98c3.34,1.43,6.62,2.79,10.14,3.73
				c4.12,1.1,8.22,2.14,12.25,3.54c4,1.39,7.92,3.29,12.13,3.93c1.42,0.22,2.17-1.44,0.97-2.31c-3.16-2.28-6.91-3.57-10.54-4.93
				c-3.7-1.38-7.47-2.48-11.3-3.44c-3.82-0.96-7.45-2.11-11.07-3.68c-3.5-1.52-7.02-2.71-10.78-3.38
				c-7.37-1.29-14.91-1.06-22.22,0.49c-3.6,0.77-7.08,1.87-10.43,3.38c-3.43,1.54-5.88,3.97-8.55,6.51
				c-6.46,6.14-14.66,10.05-21.19,16.08C7.63,54.18,8.02,54.61,8.37,54.45L8.37,54.45z"/>
		</g>
		<g class="st5">
			<path class="st6" d="M10.75,58.12c3.35-0.6,6.54-1.79,9.76-2.89c2.79-0.95,5.61-1.85,8.3-3.08c1.38-0.63,2.66-1.43,4.02-2.11
				c1.54-0.77,3.2-1.11,4.89-1.39c3.26-0.54,6.53-1.02,9.81-1.39c6.79-0.76,13.63-1.11,20.44-0.54c6.56,0.55,13.1,1.48,19.63,2.26
				c3.66,0.44,7.31,0.9,10.93,1.6c3.56,0.69,7.03,1.65,10.63,2.2c1.04,0.16,1.65-1.1,0.73-1.72c-5.37-3.64-12.29-4.26-18.58-5.08
				c-6.77-0.88-13.56-1.71-20.35-2.45c-6.94-0.75-13.87-0.77-20.8,0.04c-6.47,0.75-13.37,1.29-19.02,4.77
				c-6.49,4-14.17,5.13-20.83,8.69C9.67,57.38,10.13,58.23,10.75,58.12L10.75,58.12z"/>
		</g>
		<g class="st5">
			<path class="st6" d="M14.2,60.58c3.01,0.98,6.32,0.89,9.45,1.04c3.24,0.15,6.47,0.27,9.71,0.31c6.56,0.09,13.09-0.14,19.6-0.94
				c3.15-0.39,6.29-0.78,9.48-0.71c3.23,0.08,6.44,0.46,9.66,0.64c6.24,0.34,12.7,0.32,18.81-1.13c3.46-0.82,6.75-2.05,10.25-2.73
				c3.63-0.7,7.37-1.08,11.06-1.2c0.65-0.02,0.82-0.99,0.16-1.16c-6.22-1.56-12.27,0.46-18.45,1.23c-3.18,0.4-6.33,1.05-9.53,1.33
				c-3.12,0.27-6.25,0.37-9.38,0.32c-6.42-0.1-12.72-0.98-19.13-0.11c-6.5,0.88-12.95,1.68-19.52,1.94
				c-3.79,0.15-7.59,0.19-11.38,0.18c-3.55-0.01-7.33-0.46-10.79,0.4C13.9,60.07,13.93,60.49,14.2,60.58L14.2,60.58z"/>
		</g>
		<g class="st5">
			<path class="st6" d="M17.17,67.29c3.16,0.39,6.39,0.54,9.51,1.17c3,0.6,5.86,1.75,8.79,2.63c5.92,1.78,12.02,3.24,18.17,3.86
				c6.42,0.65,12.5,0.05,18.79-1.25c3.15-0.65,6.26-0.81,9.45-1.12c2.81-0.27,5.36-1.06,7.95-2.18c3.21-1.38,6.4-2.71,9.72-3.83
				c1.64-0.55,3.28-1.09,4.92-1.64c1.53-0.51,3.23-0.97,4.32-2.22c0.39-0.44,0.28-1.24-0.37-1.39c-2.72-0.61-5.94,1.09-8.5,1.92
				c-2.72,0.89-5.43,1.8-8.07,2.91c-2.78,1.17-5.51,2.56-8.51,3.03c-2.93,0.46-5.93,0.32-8.87,0.79c-3.21,0.52-6.35,1.4-9.58,1.75
				c-3.18,0.35-6.39,0.33-9.58,0.09c-6.33-0.49-12.63-1.68-18.74-3.41c-3.16-0.89-6.27-1.97-9.55-2.35
				c-3.38-0.4-6.61,0.04-9.91,0.75C16.79,66.86,16.9,67.26,17.17,67.29L17.17,67.29z"/>
		</g>
	</g>
	<g>
		<defs>
			<path id="SVGID_5_" d="M46.75,6.69C63.43,1.82,83.3,5.23,94.41,19.22c5.4,6.8,8.04,11.35,9,20.16
				c1.19,10.97,1.19,18.17-4.46,27.88c-1.87,3.21-8.3,8.4-11.33,10.39c-5.44,3.58-12.13,4.24-18.55,4.32
				c-7.29,0.09-14.6-0.44-21.81-1.59c-6.01-0.96-12.08-2.39-17.36-5.57C19.27,68.42,9.85,50.54,13.79,37.52
				C18.54,21.81,32.15,10.94,46.75,6.69z"/>
		</defs>
		<clipPath id="SVGID_6_">
			<use xlink:href="#SVGID_5_"  style="overflow:visible;"/>
		</clipPath>
		<path class="st7" d="M118.02,50.68c-0.17-1.68-1.16-3.12-2.94-3.34c-1.53-0.18-3.43,0.75-3.73,2.43
			c-1.62,9.36-11.48,12.88-19.43,15.38c-9.39,2.95-18.88,5.44-28.8,4.4c-7.88-0.83-15.86-3.9-21.83-9.18
			c-3.49-3.09-6.13-6.8-8.33-10.89c-2.36-4.39-4.54-9.1-5.88-13.91c-1.26-4.54-1.24-9.34-0.03-13.9c1.16-4.41,3.5-8.89,6.43-12.38
			c1.51-1.8-0.55-5.2-2.73-3.54c-1.93,1.47-3.75,3.08-5.3,4.95c-1.54,1.86-2.62,4.14-3.55,6.37c0.23-1.66,0.6-3.31,1.12-4.96
			c1.16-3.63-4.19-5.78-6.08-2.56c-1.66,2.83-2.97,5.93-3.91,9.15c-1.16-2.69-5.9-3.12-6.5,0.33c-1.7,9.69-2.11,19.81-0.19,29.5
			c1.8,9.13,7.34,16.13,14.58,21.7c1.73,1.33,3.52,2.57,5.36,3.72c1.08,1.04,2.21,2.04,3.45,2.89c1.63,1.1,3.61,1.88,5.15,3.07
			c0.74,0.57,1.82,0.31,2.5-0.27c9.45,3.85,19.72,5.73,29.9,5.47c4.64-0.12,9.3-0.68,13.83-1.66c3.87-0.84,9.45-1.78,11.81-5.39
			c2.33-0.49,4.63-1.14,6.84-2.02C110.01,72.01,119.22,62.46,118.02,50.68z"/>
		<path class="st8" d="M113.57,15.58c-3.4-6.83-9.37-12.31-16.07-15.82c-7.04-3.7-15.39-5.85-23.37-5.43
			C65.88-5.24,57.17-0.81,55.78,8.08c-0.01,0.04-0.01,0.07-0.02,0.11c-1.06,2.67-1.49,5.56-1.56,8.51
			c-0.2,8.28,2.6,15.72,8.38,21.68c5.79,5.95,13.77,10.06,22,11.11c4.57,0.58,9.08-0.13,13.4-1.67c4.1-1.47,8.43-3.2,11.46-6.44
			c3-3.21,5.44-7.75,6.31-12.06C116.71,24.52,115.72,19.91,113.57,15.58z"/>
	</g>
	<g>
		<defs>
			<path id="SVGID_7_" d="M46.75,6.69C63.43,1.82,83.3,5.23,94.41,19.22c5.4,6.8,8.04,11.35,9,20.16
				c1.19,10.97,1.19,18.17-4.46,27.88c-1.87,3.21-8.3,8.4-11.33,10.39c-5.44,3.58-12.13,4.24-18.55,4.32
				c-7.29,0.09-14.6-0.44-21.81-1.59c-6.01-0.96-12.08-2.39-17.36-5.57C19.27,68.42,9.85,50.54,13.79,37.52
				C18.54,21.81,32.15,10.94,46.75,6.69z"/>
		</defs>
		<clipPath id="SVGID_8_">
			<use xlink:href="#SVGID_7_"  style="overflow:visible;"/>
		</clipPath>
		<path class="st9" d="M117.09,47.1c0.9-1.97,0.56-4.32-1.44-5.49c-0.62-0.36-1.37-0.53-2.12-0.51c0.05-0.67,0.09-1.33,0.09-2
			c0.02-3.28-4.49-4.46-6.14-1.66c-3.37,5.73-9.1,9.63-15.21,12.02c-7.06,2.76-14.95,4.34-22.54,4.04
			c-11.21-0.45-22.56-5.71-30.04-14.22c-1.36-2.35-2.52-4.84-3.54-7.34c-1.44-3.56-2.71-7.21-3.89-10.86
			c-0.24-0.74-0.45-1.47-0.63-2.19c0.24-3.84,1.63-7.54,4.62-10.6c1.26-1.29-0.6-3.06-1.94-1.94c-1.32,1.1-2.46,2.37-3.41,3.75
			C30.71,9.53,30.45,9,30.07,8.49c-1.27-1.7-3.66-2.39-5.32-0.69c-1.17,1.2-1.99,2.55-2.59,4c-0.01,0-0.02,0-0.04,0
			c-1.35,0-2.86,1.14-2.99,2.56c-1.73-0.83-3.98-0.63-4.89,1.39C8.82,27.81,5.92,41.51,11.8,53.97c0.28,0.59,0.58,1.16,0.9,1.72
			c0.98,3.54,2.29,7.03,4.15,10.08c2.87,4.7,7.47,8.52,11.77,11.87c4.83,3.76,10.04,6.14,16.21,6.53c3.48,0.22,7.03-0.11,10.53-0.7
			c1.53,0.34,3.08,0.6,4.68,0.78c5.1,0.57,10.33,0.18,15.31-1.02c5.18-1.25,10.05-3.6,14.81-5.93c8.99-4.4,18.43-10.02,22.79-19.48
			c0.61-1.31,0.67-2.78-0.03-3.95c0.56-0.74,1.09-1.5,1.6-2.27C115.5,50.17,116.37,48.68,117.09,47.1z"/>
	</g>
	<g class="st10">
		<path class="st11" d="M66.14,17.33c0.47,0.32,1.09,0.49,1.62,0.69c0.55,0.21,1.07,0.44,1.6,0.69c1.08,0.5,2.38,0.3,3.02-0.79
			c0.56-0.95,0.29-2.51-0.79-3.02c-1.36-0.63-2.89-0.92-4.36-0.46C66.07,14.81,64.69,16.32,66.14,17.33L66.14,17.33z"/>
	</g>
	<g>
		<path class="st11" d="M80.9,23.58c0.71,1.37,2.31,2.29,3.41,3.36c1.2,1.17,2.38,2.37,3.35,3.74c2.34,3.32,7.05-0.21,4.46-3.44
			c-1.33-1.66-2.94-3.16-4.85-4.13c-1.59-0.81-3.88-1.86-5.68-1.23C80.87,22.14,80.54,22.88,80.9,23.58L80.9,23.58z"/>
	</g>
	<g>
		<defs>
			<path id="SVGID_9_" d="M85.9,54.02c1.57,16.11-10.4,31.77-25.78,36.84c-15.38,5.07-31.85,3.26-44.74-6.54
				c-4.14-3.15-8.98-9.55-11.39-14.15C1.92,66.23,0.95,61.82,0,57.46C29.03,56.44,56.87,55.04,85.9,54.02z"/>
		</defs>
		<use xlink:href="#SVGID_9_"  style="overflow:visible;fill:#EA2E25;"/>
		<clipPath id="SVGID_10_">
			<use xlink:href="#SVGID_9_"  style="overflow:visible;"/>
		</clipPath>
		<g class="st12">
			<path class="st13" d="M-2.96,54.23c-0.99,4.08,0.13,8,1.66,11.8c1.63,4.05,3.86,7.76,6.58,11.17
				c5.32,6.67,12.31,11.7,20.21,14.88c16.86,6.79,39.61,4.63,52.54-9.04c3.64-3.84,6.87-8.37,8.55-13.42
				c1.63-4.87,2.78-12.26-0.26-16.75c-0.99-1.47-3.02-1.51-4,0c-2.46,3.78-1.62,8.71-2.68,12.95c-0.94,3.79-3.06,7.13-5.56,10.1
				c-5.35,6.35-12.37,9.78-20.44,11.38c-15.07,2.98-30.77-2.04-41.3-13.18C9.62,71.22,3.17,59.14,1.81,51.47
				C1.63,50.47-2.68,53.07-2.96,54.23L-2.96,54.23z"/>
		</g>
		<g class="st12">
			<path class="st14" d="M84,47.71c0.06,2.28-0.33,4.63-0.47,6.91c-0.13,2.26,0.3,4.16-0.08,6.38c-0.71,4.11-2.2,7.09-3.92,10.91
				c-3.33,7.41-10.16,13.71-17.9,16.02c-4.17,1.24-7.95,1.88-12.29,2.07c-4.42,0.19-9.03-0.03-13.45-0.45
				c-10.06-0.94-19.06-7.65-22.33-10.14C6.22,73.81,2.03,61.72,0.62,52.49c-0.31-2-3.52-0.22-5.3,0.27c-2.14,0.59-2.92,2.6-2.61,4.6
				c1.44,9.46,6.54,17.85,13.78,24.01C10.07,84.42,14,87.04,18,89.52c4.27,2.64,8.6,5.42,13.5,6.73c4.93,1.32,10.19,1.38,15.26,1.29
				c5.26-0.09,10.57-0.59,15.66-1.97c9.03-2.45,17.2-7.86,21.72-16.21c2.6-4.8,4.23-10.19,5.19-15.55c0.51-2.82,0.79-5.68,0.63-8.55
				c-0.09-1.5-0.25-3.11-0.71-4.55c-0.43-1.37-1.18-2.64-1.8-3.93C86.65,45.09,83.95,45.95,84,47.71L84,47.71z"/>
		</g>
		<path class="st15" d="M73.33,46.26c-1.91-0.77-3.71-0.03-4.88,1.6c-0.8,1.12-1.87,2.01-3.02,2.78c-1.96-0.22-3.83-0.05-5.75,0.58
			c-1.99,0.66-3.86,1.56-5.9,2.03c-4.05,0.94-8.39,0.78-12.53,0.89c-4.35,0.11-8.72,0.14-13.07-0.19c-1.76-0.14-4.03-0.19-6.09-0.63
			c-0.47-1.08-1.37-1.97-2.56-2.24c-1.09-0.25-2.18-0.51-3.28-0.73c-0.66-0.14-1.29-0.11-1.87,0.03c-0.8-0.56-1.59-1.15-2.35-1.78
			c-2.57-2.13-5.78-0.88-6.54,2.09c-0.18-0.44-0.33-0.89-0.42-1.36c-0.23-1.14-1.89-0.81-1.95,0.26c-0.29,5.89,3.59,9.94,7.53,13.78
			c4.38,4.27,9.32,8.16,15.03,10.44c12.17,4.86,26.03-0.09,36.57-6.67c6.22-3.89,10.81-9.36,13.33-16.26
			C76.25,49.06,75,46.93,73.33,46.26z"/>
	</g>
	<g>
		<defs>
			<path id="SVGID_11_" d="M85.9,54.02c1.57,16.11-10.4,31.77-25.78,36.84c-15.38,5.07-31.85,3.26-44.74-6.54
				c-4.14-3.15-8.98-9.55-11.39-14.15C1.92,66.23,0.95,61.82,0,57.46C29.03,56.44,56.87,55.04,85.9,54.02z"/>
		</defs>
		<clipPath id="SVGID_12_">
			<use xlink:href="#SVGID_11_"  style="overflow:visible;"/>
		</clipPath>
		<path class="st16" d="M54.04,46.97c-10.08,5.43-21.93,7.14-33.12,4.79c-1.45-0.82-3.42-0.42-4.57,1.16
			c-0.07,0.09-0.14,0.19-0.21,0.28c-1.19,1.64-0.19,4.15,1.54,4.96c0.6,0.63,1.26,1.2,1.95,1.72c1.57,1.19,3.39,2.03,5.23,2.73
			c4.24,1.61,9,2.68,13.53,2.76c9.04,0.17,16.43-5.82,20.54-13.51C60.64,48.69,57.23,45.25,54.04,46.97z"/>
	</g>
	<g>
		<defs>
			<path id="SVGID_13_" d="M85.9,54.02c1.57,16.11-10.4,31.77-25.78,36.84c-15.38,5.07-31.85,3.26-44.74-6.54
				c-4.14-3.15-8.98-9.55-11.39-14.15C1.92,66.23,0.95,61.82,0,57.46C29.03,56.44,56.87,55.04,85.9,54.02z"/>
		</defs>
		<clipPath id="SVGID_14_">
			<use xlink:href="#SVGID_13_"  style="overflow:visible;"/>
		</clipPath>
		<path class="st17" d="M75.39,79.83c-10.37,4.41-22.12,5.27-32.05-0.68C34,73.56,28.52,63.22,27.92,52.5
			c-0.07-1.22-1.7-1.82-2.46-1.12c-1.45-2.38-5.58-1.96-6.37,1.11c-0.28-1.3-0.53-2.61-0.73-3.91c-0.61-3.96-6.79-2.88-6.83,0.92
			c-0.02,1.67,0.04,3.34,0.16,5c-0.12-0.18-0.26-0.33-0.41-0.47c-0.64-1.02-1.35-2.03-2.16-2.82c-1.78-1.71-4.62-2.1-6.49-0.3
			c-1.51,0.02-2.98,0.88-3.43,2.66c-0.43,1.71-0.85,3.42-1.28,5.13c-0.1,0.17-0.19,0.34-0.27,0.52c-0.75,1.76-0.23,3.17,0.88,4.62
			c0.35,0.46,0.8,0.77,1.29,0.95c0.06,0.11,0.13,0.22,0.2,0.33c0.05,0.1,0.1,0.21,0.14,0.31c0.44,0.92,0.88,1.85,1.33,2.76
			c0.95,1.92,1.95,3.82,3,5.69c1.23,2.18,2.55,4.31,3.96,6.38c-0.17,0.35-0.31,0.72-0.4,1.12c-0.43,1.92,0.39,3.58,1.52,5.06
			c3.75,4.9,9.1,8.03,14.95,10.14c1.7,1.12,3.46,2.14,5.29,3.03c1.61,0.79,3.24,0.49,4.41-0.38c2.52,0.52,5.01,0.93,7.41,1.3
			c1.58,0.24,3.15-0.11,4.13-1.27c0.71,0.29,1.45,0.54,2.21,0.75c6.63,1.82,13.51,0.63,19.69-2.13c6.26-2.79,12.57-7.66,12.94-15.05
			C80.76,79.91,77.62,78.88,75.39,79.83z"/>
	</g>
	<g>
		<path class="st18" d="M57.38,67.5c-0.05,0.83,0.39,1.68,0.78,2.39c0.52,0.96,1.27,2.03,2.4,2.27c1.55,0.34,2.65-0.92,2.41-2.41
			c-0.18-1.1-1.31-1.93-2.24-2.43c-0.71-0.38-1.63-0.82-2.46-0.71C57.77,66.69,57.41,66.98,57.38,67.5L57.38,67.5z"/>
	</g>
	<g>
		<path class="st18" d="M62.16,64.63c0.25,0.35,0.39,0.68,0.59,1.06c0.23,0.43,0.64,0.75,1.01,1.05c1.03,0.84,2.49,1.48,3.61,0.37
			c0.46-0.46,0.58-1.16,0.41-1.78c-0.23-0.84-0.99-1.28-1.76-1.55c-0.92-0.32-1.79-0.52-2.76-0.36c0.21,0,0.42,0,0.64,0
			c-0.22-0.06-0.44-0.13-0.66-0.2C62.48,62.99,61.67,63.94,62.16,64.63L62.16,64.63z"/>
	</g>
	<g>
		<path class="st18" d="M65.58,61.04c0.2,0.79,0.87,1.27,1.57,1.61c0.99,0.48,1.95,0.56,2.97,0.09c0.78-0.36,1.09-1.61,0.61-2.31
			c-0.72-1.03-1.8-1.42-3.02-1.33C66.7,59.16,65.26,59.77,65.58,61.04L65.58,61.04z"/>
	</g>
	<g>
		<path class="st18" d="M52.29,70.64C52.19,71.3,52,72,52,72.66c0,0.38,0.03,0.81,0.14,1.17c0.17,0.6,0.52,0.93,1,1.29
			c0.72,0.55,1.87,0.1,2.29-0.6c0.86-1.46-0.2-2.93-0.96-4.16C53.97,69.57,52.47,69.58,52.29,70.64L52.29,70.64z"/>
	</g>
	<g>
		<path class="st18" d="M46.19,72.17c-0.45,0.7-0.79,1.27-0.9,2.12c-0.13,1.01-0.18,1.92,0.33,2.84c0.46,0.82,1.5,1.22,2.4,0.98
			c0.95-0.26,1.49-1.11,1.56-2.05c0.11-1.37-0.8-2.73-1.32-3.89C47.87,71.29,46.62,71.49,46.19,72.17L46.19,72.17z"/>
	</g>
	<g>
		<path class="st18" d="M39.91,72.14c-1.37,1.57-2.35,4.35-0.74,6.08c0.71,0.76,2.15,0.8,2.86,0c1.26-1.43,0.89-3.64,0.56-5.38
			C42.37,71.69,40.68,71.26,39.91,72.14L39.91,72.14z"/>
	</g>
	<g>
		<path class="st18" d="M33.29,72.85c-0.87,0.59-1.65,1.22-2.15,2.16c-0.65,1.2-1.22,2.6-0.4,3.87c0.65,1.01,1.99,1.45,3.07,0.8
			c1.76-1.06,1.69-3.64,1.86-5.47C35.78,73.05,34.23,72.21,33.29,72.85L33.29,72.85z"/>
	</g>
	<g>
		<path class="st18" d="M26.86,72.6c-1.22,0.78-3.11,1.44-3.61,3.02c-0.43,1.36,0.95,2.59,2.25,2.25c1.71-0.44,2.39-2.62,2.97-4.03
			C28.86,72.94,27.62,72.12,26.86,72.6L26.86,72.6z"/>
	</g>
	<g>
		<path class="st18" d="M21.04,69.28c-0.28,0.18-0.67,0.32-0.98,0.47c0.26-0.07,0.53-0.14,0.79-0.21c-0.2,0.02-0.39,0.04-0.58,0.07
			c-0.43,0.18-0.54,0.23-0.32,0.13c-0.26,0.11-0.53,0.21-0.78,0.33c-0.55,0.26,0.35-0.12-0.19,0.09c-0.35,0.13-0.72,0.24-1.03,0.46
			c-0.94,0.67-1.48,1.96-0.79,3.02c0.66,1.02,1.94,1.4,3.02,0.79c0.65-0.37,1.1-0.97,1.54-1.56c0.4-0.54,0.64-1.1,0.71-1.77
			c-0.07,0.26-0.14,0.53-0.21,0.79c0.2-0.46,0.32-0.89,0.48-1.35C23.01,69.62,21.83,68.77,21.04,69.28L21.04,69.28z"/>
	</g>
	<g>
		<path class="st18" d="M16.65,66.65c-0.51,0.11-0.99,0.1-1.51,0.22c-0.17,0.04-0.53,0.05-0.66,0.15c0.1-0.02,0.19-0.03,0.28-0.05
			c-0.11-0.01-0.23,0-0.34,0.03c-0.27,0.04-0.51,0.12-0.74,0.25c-0.91,0.52-1.27,2.07-0.36,2.8c0.02,0.01,0.03,0.03,0.05,0.04
			c0.47,0.38,1.15,0.73,1.78,0.47c0.8-0.33,1.13-0.76,1.62-1.43c0.33-0.45,0.48-0.84,0.79-1.28C18.02,67.22,17.28,66.51,16.65,66.65
			L16.65,66.65z"/>
	</g>
	<g>
		<path class="st18" d="M14.9,62.72c-1.72-1.04-4.08-0.35-5.65,0.69c-0.97,0.64-1.38,1.9-0.77,2.94c0.58,0.98,1.95,1.38,2.94,0.77
			c1.37-0.85,2.97-1.78,3.8-3.2C15.46,63.51,15.31,62.97,14.9,62.72L14.9,62.72z"/>
	</g>
	<g>
		<path class="st18" d="M65.35,70.37c0,0.06,0.01,0.12,0.01,0.18c0.06-0.22,0.12-0.44,0.18-0.65c-0.4,0.92-0.11,1.74,0.25,2.62
			c0.46,1.12,1.23,2.2,2.45,2.54c1.39,0.38,3.01-1,2.47-2.47c-0.38-1.04-1.13-1.7-2.03-2.3c-0.64-0.43-1.16-0.99-2.03-1.03
			c0.22,0.06,0.44,0.12,0.65,0.18c-0.05-0.03-0.1-0.06-0.16-0.09C66.4,68.88,65.31,69.46,65.35,70.37L65.35,70.37z"/>
	</g>
	<g>
		<path class="st18" d="M68.66,68.21c0.14,0.26,0.34,0.48,0.55,0.68c0.14,0.17,0.31,0.31,0.5,0.42c0.19,0.14,0.2,0.14,0.04,0.02
			c0.74,0.6,1.24,0.95,2.23,1.05c1.57,0.17,2.45-1.82,1.74-3.04c-0.81-1.38-3.11-2-4.51-1.19C68.48,66.57,68.28,67.49,68.66,68.21
			L68.66,68.21z"/>
	</g>
	<g>
		<path class="st18" d="M71.8,63.15c0.46,0.45,1.08,0.97,1.81,1.25c0.89,0.34,1.75,0.43,2.61-0.06c1.08-0.6,1.17-2.06,0.38-2.91
			c-1.11-1.2-2.94-0.84-4.19-0.58C71.39,61.07,71.1,62.46,71.8,63.15L71.8,63.15z"/>
	</g>
	<g>
		<path class="st18" d="M51.74,65.12c0.02,0.34,0.04,0.67,0.14,0.99c0.09,0.26,0.2,0.52,0.31,0.78c0.15,0.38,0.31,0.69,0.56,1.01
			c0.39,0.5,0.89,0.65,1.49,0.73c0.65,0.08,1.2-0.51,1.39-1.06c0.31-0.89-0.16-1.71-0.74-2.35c-0.41-0.46-0.78-0.85-1.32-1.15
			C52.8,63.64,51.69,64.17,51.74,65.12L51.74,65.12z"/>
	</g>
	<g>
		<path class="st18" d="M58.1,76.95c-0.15-0.37-0.19-0.42-0.11-0.16c0.03,0.13,0.05,0.26,0.07,0.39c0.05,0.28,0.12,0.54,0.21,0.81
			c0.24,0.73,0.44,1.49,1.07,1.98c0.58,0.45,1.23,0.69,1.95,0.37c0.69-0.3,1.04-0.9,1.1-1.63c0.08-0.95-0.49-1.91-1.02-2.67
			c-0.46-0.67-1.01-1.36-1.84-1.55C58.17,74.17,56.96,75.91,58.1,76.95L58.1,76.95z"/>
	</g>
	<g>
		<path class="st18" d="M42.59,80.08c-0.54,0.52-0.79,1.39-0.86,2.12c-0.1,1,0.11,1.91,1.03,2.47c0.65,0.39,1.59,0.28,2.12-0.27
			c0.74-0.78,0.67-1.64,0.45-2.6c-0.14-0.62-0.39-1.22-0.77-1.72C44.09,79.48,43.08,79.61,42.59,80.08L42.59,80.08z"/>
	</g>
	<g>
		<g>
			<path class="st19" d="M13.29,62.58c-0.64,0-1.25,0.04-1.82,0.34c-0.74,0.38-1.5,0.89-1.53,1.8c-0.02,0.73,0.5,1.41,1.26,1.46
				c1.25,0.07,2.1-1.24,2.81-2.1C14.47,63.53,13.98,62.58,13.29,62.58L13.29,62.58z"/>
		</g>
		<g class="st20">
			<path class="st11" d="M12.33,64.1c-0.17,0-0.33,0.01-0.48,0.09c-0.2,0.1-0.4,0.24-0.41,0.48c-0.01,0.19,0.13,0.38,0.34,0.39
				c0.33,0.02,0.56-0.33,0.75-0.56C12.65,64.35,12.52,64.1,12.33,64.1L12.33,64.1z"/>
		</g>
	</g>
	<g>
		<g>
			<path class="st19" d="M16.7,67.07c-0.64,0-1.25,0.04-1.82,0.34c-0.74,0.38-1.5,0.88-1.53,1.8c-0.02,0.73,0.5,1.41,1.26,1.46
				c1.25,0.07,2.1-1.24,2.81-2.1C17.88,68.02,17.39,67.07,16.7,67.07L16.7,67.07z"/>
		</g>
	</g>
	<g>
		<g>
			<path class="st19" d="M21.15,69.75c-0.7,0.11-1.37,0.26-1.95,0.69c-0.75,0.55-1.5,1.24-1.37,2.26c0.1,0.81,0.8,1.47,1.65,1.39
				c1.39-0.14,2.1-1.74,2.74-2.81C22.62,70.6,21.92,69.63,21.15,69.75L21.15,69.75z"/>
		</g>
		<g class="st21">
			<path class="st11" d="M20.36,71.59c-0.19,0.03-0.36,0.07-0.52,0.18c-0.2,0.15-0.4,0.33-0.36,0.6c0.03,0.21,0.21,0.39,0.44,0.37
				c0.37-0.04,0.56-0.46,0.73-0.75C20.75,71.82,20.57,71.56,20.36,71.59L20.36,71.59z"/>
		</g>
	</g>
	<g>
		<g>
			<path class="st19" d="M27.27,73c-0.69,0.17-1.34,0.38-1.88,0.86c-0.7,0.61-1.39,1.37-1.17,2.37c0.17,0.8,0.92,1.4,1.76,1.24
				c1.37-0.26,1.94-1.92,2.48-3.04C28.81,73.72,28.03,72.82,27.27,73L27.27,73z"/>
		</g>
		<g class="st22">
			<path class="st11" d="M26.65,74.91c-0.18,0.04-0.36,0.1-0.5,0.23c-0.19,0.16-0.37,0.36-0.31,0.63c0.05,0.21,0.25,0.37,0.47,0.33
				c0.36-0.07,0.51-0.51,0.66-0.81C27.06,75.1,26.85,74.86,26.65,74.91L26.65,74.91z"/>
		</g>
	</g>
	<g>
		<g>
			<path class="st19" d="M33.59,73.72c-0.62,0.35-1.18,0.74-1.57,1.35c-0.5,0.78-0.96,1.7-0.47,2.6c0.39,0.72,1.27,1.09,2.04,0.71
				c1.25-0.63,1.34-2.37,1.55-3.6C35.26,73.98,34.26,73.34,33.59,73.72L33.59,73.72z"/>
		</g>
		<g class="st21">
			<path class="st11" d="M33.51,75.73c-0.16,0.09-0.31,0.2-0.42,0.36c-0.13,0.21-0.25,0.45-0.13,0.69c0.1,0.19,0.34,0.29,0.54,0.19
				c0.33-0.17,0.35-0.63,0.41-0.96C33.96,75.8,33.69,75.62,33.51,75.73L33.51,75.73z"/>
		</g>
	</g>
	<g>
		<g>
			<path class="st19" d="M40.24,72.93c-0.4,0.59-0.74,1.18-0.82,1.9c-0.11,0.92-0.11,1.94,0.72,2.54c0.66,0.47,1.62,0.42,2.14-0.26
				c0.85-1.11,0.15-2.72-0.2-3.91C41.86,72.43,40.68,72.29,40.24,72.93L40.24,72.93z"/>
		</g>
	</g>
	<g>
		<g>
			<path class="st19" d="M43.42,79.75c-0.4,0.59-0.74,1.18-0.82,1.9c-0.11,0.92-0.11,1.94,0.72,2.54c0.66,0.47,1.62,0.42,2.14-0.26
				c0.85-1.11,0.15-2.72-0.2-3.91C45.04,79.25,43.86,79.11,43.42,79.75L43.42,79.75z"/>
		</g>
		<g class="st22">
			<path class="st11" d="M44.24,81.58c-0.11,0.16-0.2,0.31-0.22,0.5c-0.03,0.24-0.03,0.52,0.19,0.67c0.18,0.13,0.43,0.11,0.57-0.07
				c0.22-0.3,0.04-0.72-0.05-1.04C44.67,81.45,44.36,81.41,44.24,81.58L44.24,81.58z"/>
		</g>
	</g>
	<g>
		<g>
			<path class="st19" d="M45.86,73.19c-0.27,0.66-0.47,1.31-0.39,2.03c0.09,0.92,0.3,1.92,1.24,2.33c0.75,0.32,1.67,0.06,2.03-0.71
				c0.59-1.27-0.43-2.69-1.03-3.78C47.33,72.35,46.15,72.47,45.86,73.19L45.86,73.19z"/>
		</g>
		<g class="st20">
			<path class="st11" d="M47.04,74.81c-0.07,0.18-0.12,0.35-0.1,0.54c0.02,0.25,0.08,0.51,0.33,0.62c0.2,0.09,0.44,0.02,0.54-0.19
				c0.16-0.34-0.11-0.71-0.27-1C47.44,74.58,47.12,74.61,47.04,74.81L47.04,74.81z"/>
		</g>
	</g>
	<g>
		<g>
			<path class="st19" d="M52.85,70.97c-0.27,0.66-0.47,1.31-0.39,2.03c0.09,0.92,0.3,1.92,1.24,2.33c0.75,0.32,1.67,0.06,2.03-0.71
				c0.59-1.27-0.43-2.69-1.03-3.78C54.32,70.14,53.14,70.25,52.85,70.97L52.85,70.97z"/>
		</g>
		<g class="st20">
			<path class="st11" d="M54.03,72.59c-0.07,0.18-0.12,0.35-0.1,0.54c0.02,0.25,0.08,0.51,0.33,0.62c0.2,0.09,0.44,0.02,0.54-0.19
				c0.16-0.34-0.11-0.71-0.27-1C54.42,72.37,54.11,72.4,54.03,72.59L54.03,72.59z"/>
		</g>
	</g>
	<g>
		<g>
			<path class="st19" d="M52.38,65.31c-0.06,0.65-0.07,1.29,0.18,1.91c0.32,0.8,0.77,1.63,1.71,1.75c0.75,0.09,1.5-0.38,1.62-1.16
				c0.19-1.28-1.08-2.28-1.89-3.09C53.47,64.19,52.45,64.6,52.38,65.31L52.38,65.31z"/>
		</g>
	</g>
	<g>
		<g>
			<path class="st19" d="M58.74,76.28c-0.06,0.65-0.07,1.29,0.18,1.91c0.32,0.8,0.77,1.63,1.71,1.75c0.75,0.09,1.5-0.38,1.62-1.16
				c0.19-1.28-1.08-2.28-1.89-3.09C59.83,75.15,58.81,75.56,58.74,76.28L58.74,76.28z"/>
		</g>
		<g class="st21">
			<path class="st11" d="M60.21,77.4c-0.02,0.17-0.02,0.34,0.05,0.51c0.09,0.21,0.2,0.43,0.45,0.46c0.2,0.02,0.4-0.1,0.43-0.31
				c0.05-0.34-0.29-0.61-0.5-0.82C60.5,77.11,60.23,77.21,60.21,77.4L60.21,77.4z"/>
		</g>
	</g>
	<g>
		<g>
			<path class="st19" d="M58.44,68.31c0.08,0.65,0.22,1.27,0.6,1.82c0.49,0.7,1.12,1.42,2.06,1.32c0.75-0.08,1.38-0.71,1.32-1.5
				c-0.1-1.29-1.57-1.98-2.54-2.59C59.25,66.97,58.34,67.6,58.44,68.31L58.44,68.31z"/>
		</g>
		<g class="st21">
			<path class="st11" d="M60.13,69.08c0.02,0.17,0.06,0.34,0.16,0.48c0.13,0.19,0.3,0.38,0.55,0.35c0.2-0.02,0.37-0.19,0.35-0.4
				c-0.03-0.34-0.42-0.52-0.68-0.69C60.34,68.72,60.1,68.89,60.13,69.08L60.13,69.08z"/>
		</g>
	</g>
	<g>
		<g>
			<path class="st19" d="M31.45,68.69c-0.47,0.11-0.92,0.26-1.29,0.58c-0.48,0.42-0.96,0.93-0.81,1.62c0.12,0.54,0.63,0.96,1.2,0.85
				c0.94-0.17,1.33-1.3,1.71-2.07C32.5,69.18,31.96,68.56,31.45,68.69L31.45,68.69z"/>
		</g>
		<g>
			<path class="st11" d="M31.01,69.99c-0.13,0.03-0.24,0.07-0.34,0.15c-0.13,0.11-0.25,0.25-0.22,0.43
				c0.03,0.14,0.17,0.25,0.32,0.23c0.25-0.05,0.35-0.35,0.45-0.55C31.29,70.12,31.15,69.95,31.01,69.99L31.01,69.99z"/>
		</g>
	</g>
	<g>
		<g>
			<path class="st19" d="M63.55,63.73c0.08,0.65,0.22,1.27,0.6,1.82c0.49,0.7,1.12,1.42,2.06,1.32c0.75-0.08,1.38-0.71,1.32-1.5
				c-0.1-1.29-1.57-1.98-2.54-2.59C64.36,62.39,63.45,63.02,63.55,63.73L63.55,63.73z"/>
		</g>
		<g class="st23">
			<path class="st11" d="M65.24,64.5c0.02,0.17,0.06,0.34,0.16,0.48c0.13,0.19,0.3,0.38,0.55,0.35c0.2-0.02,0.37-0.19,0.35-0.4
				c-0.03-0.34-0.42-0.52-0.68-0.69C65.45,64.14,65.21,64.31,65.24,64.5L65.24,64.5z"/>
		</g>
	</g>
	<g>
		<g>
			<path class="st19" d="M72.15,62.68c0.44,0.49,0.9,0.92,1.53,1.15c0.81,0.3,1.72,0.53,2.44-0.09c0.57-0.49,0.73-1.37,0.23-1.98
				c-0.82-1-2.41-0.73-3.56-0.68C72.05,61.12,71.67,62.15,72.15,62.68L72.15,62.68z"/>
		</g>
		<g>
			<path class="st11" d="M73.98,62.35c0.12,0.13,0.24,0.24,0.41,0.31c0.21,0.08,0.46,0.14,0.65-0.03c0.15-0.13,0.19-0.36,0.06-0.53
				c-0.22-0.27-0.64-0.19-0.95-0.18C73.95,61.93,73.85,62.21,73.98,62.35L73.98,62.35z"/>
		</g>
	</g>
</g>
</svg>
