<?xml version="1.0" encoding="utf-8"?>
<!-- Generator: Adobe Illustrator 24.1.2, SVG Export Plug-In . SVG Version: 6.00 Build 0)  -->
<svg version="1.1" id="Layer_1" xmlns="http://www.w3.org/2000/svg" xmlns:xlink="http://www.w3.org/1999/xlink" x="0px" y="0px"
	 viewBox="0 0 4000 4000" style="enable-background:new 0 0 4000 4000;" xml:space="preserve">
<style type="text/css">
	.st0{opacity:0.2;}
	.st1{fill:#03036B;}
	.st2{opacity:0.3;}
	.st3{fill:#FF1F5A;}
	.st4{opacity:0.6;}
	.st5{fill:#FFFFFF;}
	.st6{fill:#64D0FF;}
	.st7{fill:#BCBEC0;}
	.st8{fill:#F9A429;}
	.st9{fill:#A97C50;}
	.st10{fill:#939598;}
	.st11{fill:#FF5FAF;}
	.st12{fill:#006838;}
	.st13{fill:#59E200;}
	.st14{fill:#FAC611;}
	.st15{fill:#F7941D;}
	.st16{opacity:0.7;}
	.st17{fill:#FBB040;}
	.st18{fill:#000072;}
	.st19{fill:#B199C5;}
</style>
<g>
	<g>
		<g class="st0">
			<ellipse class="st1" cx="2704.3" cy="3188" rx="620.7" ry="58.3"/>
		</g>
		<g class="st2">
			<ellipse class="st1" cx="975" cy="3193" rx="568.2" ry="58.3"/>
		</g>
		<g>
			<g>
				<g>
					<path class="st3" d="M2008.8,2547c0,0,2.4,19.4-27.9,45.8c-17.6,15.3-46.1,32.9-92.6,50.3c-126.6,47.6-178.9,66.3-225.6,3.8
						l-372.6-62.1l-7.7,34.7c-4,18.2-20.6,30.9-39.2,29.7c-32.8-2-82.2-12.3-108.9-53.3c-1.9-2.9-3.4-6-4.4-9.2
						c-4.3-13.5-0.6-28.8,10.1-39l54-51.5c14-13.3,32.9-20.1,52.1-18.6l357.3,26.5l18.3-157.7c1.8-15.8,10.3-30.1,23.4-38.9
						c29.9-20.4,92.7-55.9,192.8-79.1c20.7-4.8,42.3,3,55.4,19.8l37,47.4c0,0-1.1-65.9,46.4-82.9c47.5-17,107.1,7.4,138.5,172.7
						C2146.7,2550.8,2088.5,2574.6,2008.8,2547z"/>
				</g>
				<g class="st4">
					<path class="st5" d="M1149.9,2572.7l54.1-51.5c14-13.2,32.8-20.1,52-18.6l357.3,26.5l18.3-157.7c1.8-15.8,10.3-30.1,23.4-39
						c29.9-20.4,92.8-55.9,192.8-79.1c20.7-4.8,42.3,3,55.4,19.8l37,47.4c0,0-1.1-65.9,46.4-82.9c34.7-12.4,75.8-2.6,107.7,68
						c-32.9-93.3-79.3-106.7-117.7-93c-47.5,17-46.4,82.9-46.4,82.9l-37-47.4c-13.1-16.8-34.7-24.6-55.4-19.8
						c-100.1,23.2-162.9,58.7-192.8,79.1c-13.2,8.9-21.7,23.2-23.4,39l-18.3,157.7l-357.3-26.5c-19.2-1.5-38.1,5.4-52,18.6
						l-54.1,51.5c-10.7,10.2-14.4,25.5-10.1,39c1,3.2,2.4,6.3,4.4,9.2c1.2,1.9,2.6,3.7,3.9,5.5
						C1137.8,2590.8,1141.9,2580.3,1149.9,2572.7z"/>
				</g>
				<g class="st2">
					<path class="st1" d="M1980.9,2592.8c-17.6,15.3-46.1,32.9-92.6,50.3c-126.6,47.6-178.9,66.3-225.6,3.8l-372.6-62.1l-7.7,34.7
						c-4,18.2-20.6,30.9-39.2,29.7c-32.8-2-82.2-12.3-108.9-53.3c-1.9-2.9-3.4-6-4.4-9.2c0,0,75,60.2,110.4-35.5
						c6.6-17.9,24.5-29,43.4-27.3l375.4,34.7c0,0,44.8,74.1,192.8,22.4c147.9-51.7,75.7-238.8,75.7-238.8
						S1988.3,2442.3,1980.9,2592.8z"/>
				</g>
				<g>
					
						<ellipse transform="matrix(0.935 -0.3547 0.3547 0.935 -711.0972 778.8919)" class="st6" cx="1769.1" cy="2329.2" rx="116.6" ry="40.7"/>
				</g>
				<g>
					<path class="st7" d="M1878.4,2298.1c-15.4-14.8-65.5-11.6-119.6,9c-51.3,19.4-89.6,48.1-94.9,69.2c-1.7-1.7-3-3.5-3.8-5.7
						c-7.9-21,34.4-56.6,94.6-79.4c60.2-22.8,115.5-24.3,123.4-3.3C1879.3,2291,1879.4,2294.4,1878.4,2298.1z"/>
				</g>
			</g>
			<g>
				<g>
					<path class="st8" d="M2516.1,2095.1l-23.1,71.4l-102.3,317.3c-26.9,8.9-51.7,15.3-74.6,19.7c-75.6,14.5-130.6,6.6-170.2-10.4
						c-79.3-34-118.3-125.4-89.2-206.6c28.6-80.1,110.5-82,159.4-75.2c22.7,3.1,38.3,8.1,38.3,8.1c3.1-4.8,6.2-9.5,9.4-14
						c23.4-33.5,49.1-57.5,74.7-74.7c43.2-28.9,86.6-38,119.6-39.9C2492.8,2088.9,2516.1,2095.1,2516.1,2095.1z"/>
				</g>
				<g class="st2">
					<path class="st1" d="M2458,2090.9l-39.7,62.3c-28.8-6.4-55.3-13.9-79.8-22.3C2381.7,2102,2425,2092.8,2458,2090.9z"/>
				</g>
			</g>
			<g>
				<g>
					<path class="st8" d="M3061.8,2767.2c-0.4,108.3-7.9,204.4-16,276.4c-2,17.4-3.9,33.6-5.8,48.1c-6.7,51-50.1,89.1-101.6,89.1
						h-198.2c0,0-70.7-2.1-77.8-75.9c-1.3-12.7,0.3-24.5,3.7-35.4c15.5-49.8,69.9-78.4,73.8-80.4c0.2-0.1,0.3-0.1,0.3-0.1
						c-6.1-62.4-1-130.6-0.2-140.7c0.1-0.8,0.2-1.3,0.2-1.3c-60.7,3.1-118.2-4.9-118.2-4.9c3.4,47.9,2.6,117.6,0.8,181.2
						c-0.8,29.8-2,58.3-3.1,82.6c-1.8,41.7-36.3,74.4-77.9,74.4h-164.9c0,0-87.8,9.7-104.5-66.7c-2.4-11.2-2.6-21.9-1.1-32
						c1.8-11.7,5.8-22.6,11.1-32.6c0-0.1,0-0.1,0-0.1c21.2-39.9,62.9-64.4,62.9-64.4c-42.7-187.4-43.5-351.6-29.2-481.1
						c5.3-47.3,12.5-90,20.6-127.5c25.2-118.1,57.8-185.6,57.8-185.6l15.5-24.3l3-4.7l5.3-8.3l39.7-62.3l23.9-37.4l5.7-8.9
						l448.3,55.1l10.3,1.2c2.1,4.9,4.2,9.9,6.2,14.8c0.4,1.1,0.9,2.3,1.4,3.4c2.3,5.4,4.3,10.9,6.5,16.3c1.5,3.7,2.9,7.5,4.3,11.2
						c5.3,13.9,10.2,27.9,15,42c2.6,7.6,5,15.3,7.4,22.9c18,57.1,32.1,115.3,42.9,173.6c11.8,63.4,19.7,126.8,24.8,188.4
						c1.3,15.9,2.4,31.7,3.3,47.4c1.9,32.6,3.1,64.6,3.6,95.9C3061.8,2733.8,3061.9,2750.6,3061.8,2767.2z"/>
				</g>
				<g>
					<path class="st5" d="M2622,3023.7l0.8-0.2c-0.8,29.8-2,58.3-3.1,82.6c-1.9,41.7-36.2,74.4-77.9,74.4h-164.9
						c0,0-87.8,9.7-104.5-66.8c-2.5-11.2-2.6-21.9-1.1-32c0,0,0,0,0,0s34.4-114.7,167.5-98.9c0,0,83.4,1.9,129.1,76
						C2567.9,3058.8,2619.9,3073.3,2622,3023.7z"/>
				</g>
				<g>
					<path class="st5" d="M3045.8,3043.6c-2,17.5-3.9,33.6-5.9,48.1c-6.7,51-50.1,89.1-101.5,89.1h-198.2c0,0-70.7-2.2-77.7-76
						c-6.9-71.6,72.7-113.4,77.5-115.8l0.2-0.1c0,0,177-30.3,224.6,69.8C2964.7,3058.8,3016.5,3066,3045.8,3043.6z"/>
				</g>
				<g>
					<ellipse class="st5" cx="2654" cy="2403.3" rx="271.1" ry="337.1"/>
				</g>
				<g class="st2">
					<path class="st1" d="M3045.8,3043.6c-2,17.5-3.9,33.6-5.9,48.1c-6.7,51-50.1,89.1-101.5,89.1h-198.2c0,0-70.7-2.2-77.7-76
						c-1.2-12.7,0.3-24.5,3.6-35.3l0,0c0,0,1.3,71.3,137.1,71.3c135.9,0,184.4-2.7,196.4-82.1c0,0,71-467.9-45.8-860.3
						c-11.9-39.9-21.7-69.2-18-98.9l10.3,1.2C3087.9,2432.3,3068.9,2836.4,3045.8,3043.6z"/>
				</g>
				<g class="st2">
					<path class="st1" d="M2719.7,2775.5c10.1-7.2,24.1,0.4,24.1,12.8l0,58.7l-3.8,1.3c0.1-0.8,0.1-1.3,0.1-1.3
						c-60.6,3.1-118.2-4.8-118.2-4.8c3.4,47.9,2.7,117.5,0.8,181.2c-0.8,29.8-2,58.3-3.1,82.6c-1.9,41.7-36.2,74.4-77.9,74.4h-164.9
						c0,0-87.8,9.7-104.5-66.8c-2.5-11.2-2.6-21.9-1.1-32c1.8-11.7,5.8-22.7,11.1-32.6c-0.3,2.6-7.7,83.2,135,86.6
						c144.9,3.5,160.7-29.9,166-76.8v-126.9c0-26.6-13.2-51.2-34.8-66.9c-18.5-13.5-40.3-36.4-54.4-74.8
						c-3.3-8.9,4.7-17.9,13.9-15.4C2554.4,2787.4,2667.5,2812.7,2719.7,2775.5z"/>
				</g>
				<g class="st4">
					<path class="st5" d="M2394.4,2190.5c0,0-99.6,337.4-9.4,793.3c0,0-21.8-11.9-39.8,0.8
						C2345.2,2984.6,2229.3,2592.8,2394.4,2190.5z"/>
				</g>
				<g>
					<path class="st9" d="M2726.5,2847.1l11.1-69.4c0.2-1.4,1.6-2.4,3-2.1c1.1,0.2,2,1.1,2.1,2.1l11.1,69.4
						c1.2,7.5-3.9,14.6-11.5,15.8c-7.5,1.2-14.6-3.9-15.8-11.5C2726.3,2850,2726.3,2848.5,2726.5,2847.1z"/>
				</g>
				<g>
					<path class="st9" d="M2618.5,2855.4l-2.2-0.6c-0.7-0.2-1.4-0.4-2.1-0.6l-4-1.3c-2.7-0.9-5.3-1.8-7.9-2.8
						c-5.3-1.9-10.4-4-15.6-6.2c-2.6-1.1-5.1-2.3-7.7-3.4c-2.6-1.1-5.1-2.4-7.6-3.6c-2.5-1.3-5-2.4-7.5-3.8l-7.4-4
						c-4.9-2.8-9.8-5.5-14.5-8.6c-4.8-2.9-9.4-6.2-14-9.4c-9-6.7-17.7-14-25.3-22.2c-1.1-1.1-1-2.9,0.2-4c0.9-0.9,2.3-1,3.4-0.3
						l0.1,0c9.2,5.6,18.7,10.5,28.4,14.9c4.9,2.1,9.8,4.2,14.8,6.1c2.5,1,4.9,2,7.5,2.8l7.5,2.7c10.1,3.4,20.2,6.6,30.4,9.5
						c5.1,1.5,10.2,2.9,15.3,4.3l7.6,2.1l7.4,2l0.3,0.1c7.3,1.9,11.6,9.4,9.7,16.7c-1.9,7.3-9.4,11.6-16.7,9.7
						C2618.7,2855.5,2618.6,2855.4,2618.5,2855.4z"/>
				</g>
				<g>
					<path class="st10" d="M2355.6,3183.6l-0.3-0.4l-0.2-0.3l-0.3-0.5l-0.5-1c-0.3-0.6-0.7-1.3-0.9-1.9c-0.6-1.2-1.2-2.4-1.7-3.7
						c-1-2.4-2-4.9-2.8-7.3c-1.7-4.9-3-9.8-3.9-14.8c-0.9-5-1.5-10-1.7-15c-0.2-5,0-10,0.6-14.9c0.5-4.9,1.5-9.7,2.8-14.4
						c1.2-4.7,3-9.2,4.9-13.5c4-8.7,9.1-16.6,14.9-23.7c-3.9,8.3-6.8,17-8.4,25.7c-0.7,4.4-1.3,8.7-1.3,13.1
						c-0.1,4.3,0.1,8.6,0.7,12.8c0.6,4.2,1.5,8.3,2.6,12.3c1.2,4,2.7,7.9,4.4,11.6c1.7,3.7,3.7,7.3,5.9,10.7
						c1.1,1.7,2.3,3.3,3.5,4.9c0.6,0.8,1.2,1.5,1.8,2.2c0.3,0.4,0.6,0.7,0.9,1c0.2,0.2,0.3,0.3,0.4,0.4c0.1,0.1,0.1,0.1,0.2,0.2
						l0.1,0.1c0,0,0,0,0,0c4.5,6,3.3,14.6-2.7,19.1C2368.7,3190.8,2360.1,3189.6,2355.6,3183.6z"/>
				</g>
				<g>
					<path class="st10" d="M2457.5,3183.6l-0.3-0.4l-0.2-0.3l-0.3-0.5l-0.5-1c-0.3-0.6-0.7-1.3-0.9-1.9c-0.6-1.2-1.2-2.4-1.7-3.7
						c-1-2.4-2-4.9-2.8-7.3c-1.7-4.9-3-9.8-3.9-14.8c-0.9-5-1.5-10-1.7-15c-0.2-5,0-10,0.6-14.9c0.5-4.9,1.5-9.7,2.8-14.4
						c1.2-4.7,3-9.2,4.9-13.5c4-8.7,9.1-16.6,14.9-23.7c-3.9,8.3-6.8,17-8.4,25.7c-0.7,4.4-1.3,8.7-1.3,13.1
						c-0.1,4.3,0.1,8.6,0.7,12.8c0.6,4.2,1.5,8.3,2.6,12.3c1.2,4,2.7,7.9,4.4,11.6c1.7,3.7,3.7,7.3,5.9,10.7
						c1.1,1.7,2.3,3.3,3.5,4.9c0.6,0.8,1.2,1.5,1.8,2.2c0.3,0.4,0.6,0.7,0.9,1c0.2,0.2,0.3,0.3,0.4,0.4c0.1,0.1,0.1,0.1,0.2,0.2
						l0.1,0.1c0,0,0,0,0,0c4.5,6,3.3,14.6-2.7,19.1C2470.6,3190.8,2462,3189.6,2457.5,3183.6z"/>
				</g>
				<g>
					<path class="st10" d="M2748.7,3183.6l-0.3-0.4l-0.2-0.3l-0.3-0.5l-0.5-1c-0.3-0.6-0.7-1.3-0.9-1.9c-0.6-1.2-1.2-2.4-1.7-3.7
						c-1-2.4-2-4.9-2.8-7.3c-1.7-4.9-3-9.8-3.9-14.8c-0.9-5-1.5-10-1.7-15c-0.2-5,0-10,0.6-14.9c0.5-4.9,1.5-9.7,2.8-14.4
						c1.2-4.7,3-9.2,4.9-13.5c4-8.7,9.1-16.6,14.9-23.7c-3.9,8.3-6.8,17-8.4,25.7c-0.7,4.4-1.3,8.7-1.3,13.1
						c-0.1,4.3,0.1,8.6,0.7,12.8c0.6,4.2,1.5,8.3,2.6,12.3c1.2,4,2.7,7.9,4.4,11.6c1.7,3.7,3.7,7.3,5.9,10.7
						c1.1,1.7,2.3,3.3,3.5,4.9c0.6,0.8,1.2,1.5,1.8,2.2c0.3,0.4,0.6,0.7,0.9,1c0.2,0.2,0.3,0.3,0.4,0.4c0.1,0.1,0.1,0.1,0.2,0.2
						l0.1,0.1c0,0,0,0,0,0c4.5,6,3.3,14.6-2.7,19.1C2761.8,3190.8,2753.2,3189.6,2748.7,3183.6z"/>
				</g>
				<g>
					<path class="st10" d="M2850.6,3183.6l-0.3-0.4l-0.2-0.3l-0.3-0.5l-0.5-1c-0.3-0.6-0.7-1.3-0.9-1.9c-0.6-1.2-1.2-2.4-1.7-3.7
						c-1-2.4-2-4.9-2.8-7.3c-1.7-4.9-3-9.8-3.9-14.8c-0.9-5-1.5-10-1.7-15c-0.2-5,0-10,0.6-14.9c0.5-4.9,1.5-9.7,2.8-14.4
						c1.2-4.7,3-9.2,4.9-13.5c4-8.7,9.1-16.6,14.9-23.7c-3.9,8.3-6.8,17-8.4,25.7c-0.7,4.4-1.3,8.7-1.3,13.1
						c-0.1,4.3,0.1,8.6,0.7,12.8c0.6,4.2,1.5,8.3,2.6,12.3c1.2,4,2.7,7.9,4.4,11.6c1.7,3.7,3.7,7.3,5.9,10.7
						c1.1,1.7,2.3,3.3,3.5,4.9c0.6,0.8,1.2,1.5,1.8,2.2c0.3,0.4,0.6,0.7,0.9,1c0.2,0.2,0.3,0.3,0.4,0.4c0.1,0.1,0.1,0.1,0.2,0.2
						l0.1,0.1c0,0,0,0,0,0c4.5,6,3.3,14.6-2.7,19.1C2863.7,3190.8,2855.1,3189.6,2850.6,3183.6z"/>
				</g>
				<g class="st2">
					<path class="st1" d="M2923.9,2155.9c-69.2,14.3-150.6,22.3-246.2,22.3h-0.4c-68.5,0-129.7-4.1-184.4-11.7
						c-26.4-3.6-51.3-8.1-74.8-13.4l39.7-62.3l23.9-37.4l5.7-8.9l448.3,55.1l10.3,1.2c2.1,4.9,4.2,9.9,6.2,14.8
						c-17.7,4.1-36.7,7.9-56.8,10.7C2895.5,2126.3,2908.3,2133.3,2923.9,2155.9z"/>
				</g>
			</g>
			<g>
				<g>
					<path class="st8" d="M3220,2673c0.1,27.7-6.5,55.7-20.6,81c-0.3,0.5-0.6,1.1-0.9,1.6c-54.3,95.9-134.9,78.7-134.9,78.7
						c7.6-24.2,5.8-67.1,5.8-67.1c-19.9,8.5-39.7,10.5-58.1,7.4c-60.3-10.2-106-74.8-88.3-144.3c3.5-14,8.2-26.3,13.6-37.2
						c34.9-70.1,120-101.7,191.6-69.7C3185.8,2549.5,3219.9,2610.5,3220,2673z"/>
				</g>
				<g>
					<path class="st5" d="M3220,2673c0.1,27.7-6.5,55.7-20.6,81.1c-54.3,97.7-135.8,80.3-135.8,80.3c7.5-24.3,5.8-67.1,5.8-67.1
						c-19.9,8.5-39.7,10.5-58.1,7.4c0,0,44.8-11.9,47.1-107.1C3060.4,2582,3183.1,2537.5,3220,2673z"/>
				</g>
				<g class="st2">
					<path class="st1" d="M3198.4,2755.7c-54.3,95.9-134.9,78.7-134.9,78.7c7.6-24.2,5.8-67.1,5.8-67.1
						c41.3-49.1,16.8-119.1,41.5-143C3110.9,2624.4,3227.1,2631.1,3198.4,2755.7z"/>
				</g>
				<g class="st4">
					<path class="st5" d="M3023.6,2776c-47.2-19.2-79.2-74.1-64.3-132.8c3.4-13.4,7.9-25.2,13.1-35.7c33.6-67.4,115.3-97.7,184.1-67
						c0.2,0.1,0.3,0.2,0.5,0.2c-8.8-6.7-18.4-12.6-28.8-17.2c-71.6-32-156.6-0.4-191.6,69.7c-5.4,10.9-10.1,23.2-13.6,37.2
						c-17.7,69.5,28,134.1,88.3,144.3C3015.3,2775.4,3019.4,2775.8,3023.6,2776z"/>
				</g>
				<g>
					<path class="st9" d="M3065.5,2754.9c-0.3,0.1-0.2,0.1-0.3,0.1c0,0,0,0,0,0L3065.5,2754.9l0.6-0.4c0.5-0.2,0.9-0.5,1.4-0.8
						c1-0.6,2-1.4,3-2.2c2-1.6,3.7-3.6,5.4-5.7c1.7-2.1,3.1-4.5,4.4-7.1c1.3-2.6,2.4-5.3,3.3-8.2c1.8-5.8,2.9-12.2,3.5-18.7
						c0.5-6.6,0.5-13.4,0.1-20.3c-0.5-7.6-0.8-15.3-0.4-23.1c0-1.9,0.2-3.9,0.3-5.9c0.2-2,0.4-4,0.6-6c0.5-4,1.2-8,2.3-12.1l1-3.1
						c0.4-1,0.7-2.1,1.1-3.1c0.9-2,1.9-4.1,3.2-6l1-1.5l1.1-1.4c0.4-0.5,0.7-0.9,1.2-1.4c0.4-0.4,0.9-0.9,1.3-1.3
						c1.8-1.7,4-3.2,6.3-4.3c2.3-1,4.8-1.6,7.2-1.8c2.4-0.2,4.7,0.1,6.8,0.6c4.2,1.1,7.8,2.9,11,5.3c0.5,0.4,0.6,1.1,0.2,1.6
						c-0.2,0.3-0.6,0.4-0.9,0.4h0c-3.8,0-7.4,0.1-10.6,0.8c-1.5,0.4-3,0.8-4.2,1.5c-1.2,0.7-2.2,1.4-3,2.2c-0.8,0.9-1.5,1.8-2.1,2.9
						l-0.4,0.8l-0.2,0.4l-0.2,0.5l-0.4,0.9l-0.3,1c-0.9,2.6-1.5,5.5-1.9,8.6c-0.4,3.1-0.6,6.4-0.6,9.8c0,3.3,0.2,6.8,0.4,10.2
						c0.6,6.9,1.5,13.8,2.7,20.9c1.2,7.7,2,15.7,1.9,23.8c-0.1,8.1-1,16.5-3.2,24.8c-1.1,4.2-2.6,8.3-4.4,12.4
						c-1.9,4.1-4.2,8-6.9,11.8c-2.8,3.7-6,7.2-9.8,10.3c-1.9,1.5-3.9,2.9-6,4.2c-1.1,0.6-2.2,1.3-3.4,1.8c-0.6,0.3-1.2,0.6-1.9,0.8
						c-0.3,0.1-0.7,0.3-1.1,0.4l-0.6,0.2l-0.9,0.3c-6.9,2.1-14.2-1.7-16.3-8.5C3054.8,2764.3,3058.6,2757,3065.5,2754.9z"/>
				</g>
			</g>
			<g>
				<path class="st8" d="M3235.1,1941.8c-76.2,111.6-237,201.5-557.3,201.5h-0.4c-316.2,0-476.9-87.8-554.1-197.5
					c-29.2-41.3-46.4-85.8-55.7-129.9c-31.9-151.1,30.1-297.6,30.1-297.6c-43.4-295.3,18.4-485.5,55.9-568
					c15.2-33.5,52.7-51,87.9-40.5c133.5,39.6,267.4,222.4,267.4,222.4c82.6-25.1,168.9-23.5,168.9-23.5s86.3-1.6,168.9,23.5
					c0,0,133.9-182.7,267.4-222.4c35.2-10.5,72.8,7,87.9,40.5c37.5,82.5,99.3,272.6,55.9,568
					C3257.9,1518.3,3359.8,1759.1,3235.1,1941.8z"/>
			</g>
			<g>
				<path class="st5" d="M3261.6,1879.6c-7.2,22-16.1,42.7-26.6,62.2c-76.2,111.6-237,201.5-557.3,201.5h-0.4
					c-316.2,0-476.9-87.8-554.1-197.5c-11.9-20.7-21.8-42.7-29.4-66.2c0,0-37.1-124.9,29.9-203c67-78.2,159.7-44.9,201.8,15.8
					c42.1,60.6,139.1,49.3,191.5,7.7c52.4-41.6,93.9-63.9,160.7-63.9s108.3,22.3,160.7,63.9c52.4,41.6,149.4,52.9,191.5-7.7
					c42.1-60.6,134.8-93.9,201.8-15.8C3298.7,1754.7,3261.6,1879.6,3261.6,1879.6z"/>
			</g>
			<g class="st2">
				<path class="st1" d="M2822.1,1765.3c0.5-7.9-9.5-11.9-14.6-5.8c-13.7,16.5-28.3,24.8-58.5,23.2c-36.2-2-31.3-55.6-31.3-55.6
					h-39.9h-39.9c0,0,5,53.6-31.3,55.6c-30.3,1.6-44.9-6.7-58.5-23.2c-5.1-6.1-15.1-2.2-14.6,5.8c1.2,20.8,10.1,49.2,47.5,58.9
					c58.3,15,94.9,5,96.7-81.8c1.8,86.8,38.4,96.8,96.7,81.8C2812,1814.6,2820.8,1786.1,2822.1,1765.3z"/>
			</g>
			<g>
				<path class="st1" d="M2759.9,1708c-1.5-20.4-24.9-30.7-46.4-35.9c-23.4-5.6-48-5.6-71.4,0c-21.5,5.1-44.9,15.4-46.4,35.9
					c-1.9,26.6,38.6,45,63.4,53.8c12.1,4.3,25.2,4.3,37.3,0C2721.2,1753,2761.8,1734.6,2759.9,1708z"/>
			</g>
			<g>
				<ellipse class="st5" cx="2678.1" cy="1691.3" rx="44.5" ry="7.7"/>
			</g>
			<g>
				<path class="st1" d="M2746.8,1847.7c-25.8,0-46.4-8.3-61-24.6c-27.3-30.5-22.5-77.7-22.3-79.7c0.9-7.9,8-13.6,15.9-12.8
					c7.9,0.9,13.6,8,12.8,15.8c-0.1,0.8-3.4,36.8,15.2,57.5c9.1,10.1,22,15,39.5,15c20.6,0,36-5.3,45.9-15.8
					c14.5-15.5,13.3-38.1,13.3-38.4c-0.6-7.9,5.4-14.8,13.3-15.4c7.9-0.6,14.8,5.4,15.4,13.3c0.1,1.4,2.3,35-20.8,59.8
					C2798.4,1839.2,2775.8,1847.7,2746.8,1847.7z"/>
			</g>
			<g>
				<path class="st1" d="M2608.7,1847.7c-29,0-51.6-8.5-67.1-25.2c-23.1-24.8-20.9-58.4-20.8-59.8c0.6-7.9,7.5-13.9,15.4-13.3
					c7.9,0.6,13.9,7.5,13.3,15.4c0,0.1-1.2,22.8,13.3,38.3c9.9,10.5,25.3,15.8,45.9,15.8c17.5,0,30.5-4.9,39.6-15.1
					c18.6-20.7,15.2-57,15.1-57.4c-0.9-7.9,4.8-15,12.8-15.9c7.9-0.9,15,4.8,15.9,12.8c0.2,2,5,49.2-22.3,79.7
					C2655.1,1839.4,2634.6,1847.7,2608.7,1847.7z"/>
			</g>
			<g>
				
					<ellipse transform="matrix(0.2574 -0.9663 0.9663 0.2574 492.2491 3461.2717)" class="st5" cx="2498.2" cy="1410.4" rx="39.5" ry="52.2"/>
			</g>
			<g>
				
					<ellipse transform="matrix(0.9663 -0.2574 0.2574 0.9663 -266.7593 783.0727)" class="st5" cx="2857.4" cy="1410.4" rx="52.2" ry="39.5"/>
			</g>
			<g>
				<path class="st11" d="M2219.4,1317.7c33.9-29.1,92.3-75.1,164.2-114.8c8.9-4.9,12.8-15.7,9.1-25.2c-17-44-95.6-145.4-138.4-161
					c-63.6-23.1-70.8,195.3-68.7,285.9C2186,1320,2206.3,1329,2219.4,1317.7z"/>
			</g>
			<g>
				<path class="st11" d="M3136.1,1317.7c-33.9-29.1-92.3-75.1-164.2-114.8c-8.9-4.9-12.8-15.7-9.1-25.2c17-44,95.6-145.4,138.4-161
					c63.6-23.1,70.8,195.3,68.7,285.9C3169.5,1320,3149.2,1329,3136.1,1317.7z"/>
			</g>
			<g class="st2">
				<path class="st1" d="M3285.1,1611.3c4.9,76.2-5.7,166.6-59.8,245.9c-74.8,109.6-232.8,197.9-547.5,197.9h-0.4
					c-310.6,0-468.4-86.2-544.3-194c-28.6-40.6-45.6-84.3-54.8-127.6c-8.9-42.2-10.3-83.9-7.9-122.2
					c-11.4,55.4-18.8,129.4-2.9,204.5c9.3,44.1,26.6,88.5,55.7,129.9c77.3,109.7,237.9,197.4,554.1,197.5h0.4
					c320.3,0,481.1-89.9,557.3-201.5C3310.9,1830.7,3303,1698.2,3285.1,1611.3z"/>
			</g>
			<g class="st4">
				<path class="st5" d="M3114,909.8c-133.5,39.6-267.4,222.4-267.4,222.4c-82.6-25.1-168.9-23.5-168.9-23.5s-86.3-1.6-168.9,23.5
					c0,0-133.9-182.7-267.4-222.4c-32.6-9.7-67.2,4.6-84.2,33.4c15.3-5.5,32.4-6.3,48.9-1.3c115,34.1,230.2,166.4,272.3,218.8
					c9.8,12.2,25.4,17.6,40.6,14.8c3.1,17.3,36.4,26.8,75.1,21.3c37.3-5.4,66-22.8,66.2-39.7c11-0.3,17.3-0.2,17.3-0.2
					s76-1.4,156.4,18.2c15.9,3.9,32.6-1.6,42.9-14.4c42.1-52.4,157.3-184.7,272.3-218.8c16.6-4.9,33.6-4.1,48.9,1.3
					C3181.2,914.4,3146.6,900.1,3114,909.8z"/>
			</g>
			<g>
				<g>
					<path class="st8" d="M3619.1,1922.6c-22.8,37-59.8,100.8-103.8,171.4c-97,155.5-228.3,343.6-315.7,347.9
						c-69.3,3.3-129.5-27.9-169.8-56.9c-33.6-24.2-53.4-46.8-53.4-46.8c-1.4-17.8-3.4-34.2-5.8-49.2
						c-10.7-68.3-30.1-109.3-46.7-133.1c-15.6-22.6-28.5-29.6-28.5-29.6c20.2-2.8,39.2-6.6,56.8-10.7
						c79.7-18.8,130.6-46.9,130.6-46.9l33,17.2l41.6,21.6l124.8-155.3l14.9-18.7c0,0-35.2-110.4-3-155
						c32.1-44.6,74.5,20.5,74.5,20.5c35.3-108.4,107.5-122.1,161-112.4c17.7,3.1,33.4,8.9,45,14.5
						C3621.5,1724.1,3691.8,1804.1,3619.1,1922.6z"/>
				</g>
				<g>
					<path class="st5" d="M3619,1922.6c-22.7,37-59.7,100.8-103.8,171.4c-124.9,1.9-194.9-72.2-233.1-141.7l15-18.6
						c0,0-35.2-110.4-3-155c32.1-44.6,74.5,20.6,74.5,20.6c46.9-144.3,159.1-120.8,206-98C3621.5,1724.1,3691.8,1804.1,3619,1922.6z
						"/>
				</g>
				<g class="st2">
					<path class="st1" d="M3619,1922.6c-22.7,37-59.7,100.8-103.8,171.4c-97.1,155.5-228.3,343.6-315.7,347.9
						c-127,6.2-223.3-103.6-223.3-103.6c-0.4-5.6-0.9-11-1.5-16.4c-1.4-13.4,12.8-22.9,24.7-16.6c68.7,36.7,212.6,100.1,281,31.7
						c75.6-75.6,231.6-332.7,283.9-420.4c20.8-34.9,30.5-75.7,25.2-115.9c-7.3-55.4-38-93.3-60.1-114c17.7,3.1,33.4,8.9,45,14.5
						C3621.5,1724.1,3691.8,1804.1,3619,1922.6z"/>
				</g>
				<g class="st2">
					<path class="st1" d="M3115.8,2085.9c-41.1,24.4-91,45.1-151.3,60.7c-13.1,3.3-26.5,6.5-40.6,9.3
						c-15.6-22.6-28.5-29.6-28.5-29.6c20.2-2.8,39.2-6.6,56.8-10.7c79.7-18.8,130.6-46.9,130.6-46.9L3115.8,2085.9z"/>
				</g>
			</g>
			<g>
				<g>
					
						<ellipse transform="matrix(0.9687 -0.2484 0.2484 0.9687 -519.6794 599.4437)" class="st5" cx="2115.6" cy="2359.1" rx="130.4" ry="164.2"/>
				</g>
				<g class="st2">
					<path class="st1" d="M2241.9,2326.7c-22.5-87.8-97.3-144.6-167.1-126.7c-7.2,1.8-14,4.4-20.5,7.6
						c57.6,5.6,111.9,56.9,130.5,129.4c20.2,78.8-8.5,155.8-65,183.8c12.2,1.2,24.5,0.4,36.6-2.7
						C2226.2,2500.3,2264.5,2414.6,2241.9,2326.7z"/>
				</g>
			</g>
			<g>
				<path class="st12" d="M946.5,3044.4c-6.1,0-12.3-1.8-17.7-5.6c-14.1-9.8-17.6-29.2-7.8-43.3c1.1-1.6,36.9-54.4,55.9-121.8
					c24-85.4,10.8-154.1-39.2-204.1c-39.5-39.5-71.9-84.6-93.7-130.5c-25.4-53.5-36.7-107.4-33.6-160.2c2.6-44.7,15.7-88,38.9-128.8
					c24.7-43.5,61.3-84.4,108.5-121.7c13.5-10.6,33.1-8.3,43.7,5.2c10.6,13.5,8.3,33.1-5.2,43.7c-77.7,61.2-119.4,130.3-123.8,205.2
					c-4.7,80.2,35.1,168.8,109.2,242.9c66.6,66.6,85.5,158.8,54.7,266.7c-22.2,77.7-62.5,136.3-64.2,138.8
					C966,3039.7,956.3,3044.4,946.5,3044.4z"/>
			</g>
			<g>
				<g>
					<path class="st13" d="M887.5,2555.1c0,0-0.4,1.7-1.4,4.6c-7.5,22.6-48.2,117.8-183.1,49.3C577.2,2545.1,595,2375.5,595,2375.5
						s35.1,93.8,159.7,98.1C879.4,2477.9,887.5,2555.1,887.5,2555.1z"/>
					<path class="st12" d="M789.3,2635.9c-25.9,0-55.1-8.2-87.6-24.7c-29.1-14.8-53-36.4-70.9-64.3c-14.3-22.3-24.9-48.5-31.6-78.1
						c-11.2-50.2-6.9-93.2-6.8-93.6l1.1-10.9l3.8,10.2c0.1,0.2,9,23.3,32.7,46.7c21.9,21.5,61.3,47.6,124.7,49.8
						c65.3,2.3,98.5,24.7,114.9,43.2c18,20.2,20.2,39.7,20.3,40.6l0,0.4l-0.1,0.4c0,0.1-0.5,1.9-1.5,4.8
						c-3.9,11.8-19.7,51.5-59.8,68C816.7,2633.5,803.5,2635.9,789.3,2635.9z M597,2385.8c-0.6,15.4-0.5,47,7.4,82.1
						c10.2,45.4,35.7,106.3,99.7,138.8c48.8,24.8,90,30.5,122.6,17.1c38-15.7,53.2-53.6,56.9-64.9c0.7-1.9,1-3.3,1.2-4
						c-0.4-2.9-3.6-20.1-19.2-37.5c-15.8-17.6-47.8-39-111-41.2c-65.2-2.3-105.8-29.2-128.3-51.4
						C611.1,2409.7,601.8,2394.9,597,2385.8z"/>
				</g>
				<g class="st2">
					<path class="st12" d="M886.1,2559.7c-7.5,22.6-48.2,117.8-183.1,49.3C577.2,2545.1,595,2375.5,595,2375.5s-3.1,104,163,168.2
						C802.6,2561,846.2,2564.2,886.1,2559.7z"/>
				</g>
				<g>
					<path class="st12" d="M889.9,2571.6l-1.9,0.2l-1.7,0.2l-3.2,0.3c-2.1,0.2-4.2,0.3-6.3,0.3c-4.2,0.2-8.4,0.2-12.5,0.2
						c-2.1,0-4.2-0.1-6.2-0.1l-6.2-0.3c-4.1-0.2-8.3-0.5-12.4-0.9c-16.5-1.5-32.8-4.3-48.8-8.2c-8-2.1-15.9-4.3-23.7-6.9
						c-7.8-2.7-15.4-5.7-22.8-9.1c-7.4-3.4-14.7-7.1-21.7-11.4c-7-4.1-13.7-8.8-20-13.8c-0.5-0.4-0.6-1.1-0.2-1.6
						c0.3-0.4,0.8-0.5,1.2-0.4l0,0c15.2,5.1,30.2,9.6,45.5,12.9l5.7,1.2l5.7,1.1l2.8,0.6l2.9,0.5c1.9,0.3,3.8,0.7,5.7,1
						c7.6,1.2,15.3,2.2,22.9,3c15.3,1.4,30.6,2,45.9,1.7l5.7-0.1l5.7-0.2c3.8-0.2,7.6-0.4,11.3-0.7c3.8-0.3,7.5-0.6,11.2-1l5.5-0.6
						l2.7-0.3l1.3-0.2l1.1-0.2l0.3-0.1c9.1-1.4,17.6,4.8,19.1,13.9c1.4,9.1-4.8,17.6-13.9,19.1
						C890.4,2571.5,890.2,2571.6,889.9,2571.6z"/>
				</g>
			</g>
			<g>
				<g>
					<path class="st13" d="M1029.6,2805.6c0,0,0.4,1.5,1.3,4.1c6.7,20.2,43.1,105.5,164,44.1c112.6-57.1,96.6-209,96.6-209
						s-31.5,83.9-143,87.8C1036.9,2736.6,1029.6,2805.6,1029.6,2805.6z"/>
					<path class="st12" d="M1117.5,2878.3c-12.7,0-24.5-2.2-35.4-6.7c-36-14.8-50.2-50.5-53.7-61c-0.9-2.7-1.3-4.3-1.3-4.3l-0.1-0.4
						l0-0.4c0.1-0.7,2.1-18.3,18.2-36.5c14.7-16.6,44.6-36.7,103.1-38.8c56.7-2,91.9-25.3,111.4-44.5c21.2-20.8,29.2-41.5,29.2-41.7
						l3.8-10.2l1.1,10.8c0,0.4,3.9,38.9-6.1,83.9c-5.9,26.5-15.4,50-28.3,70c-16.1,25-37.5,44.4-63.6,57.7
						C1166.9,2870.9,1140.7,2878.3,1117.5,2878.3z M1032.2,2805.5c0.2,0.6,0.5,1.8,1.1,3.5c3.3,10.1,16.8,43.9,50.8,57.9
						c29.1,12,66,6.8,109.6-15.3c57.2-29,80.1-83.5,89.2-124c6.9-30.7,7.1-58.3,6.7-72.5c-4.5,8.3-12.6,21.1-25.9,34.1
						c-20.2,19.9-56.6,44.1-115.1,46.1c-44.7,1.5-79,14.3-99.2,36.8C1035.5,2787.5,1032.6,2802.7,1032.2,2805.5z"/>
				</g>
				<g class="st2">
					<path class="st1" d="M1030.9,2809.8c6.7,20.2,43.1,105.5,164,44.1c112.6-57.1,96.6-209,96.6-209s2.8,93.1-145.9,150.6
						C1105.6,2810.9,1066.6,2813.8,1030.9,2809.8z"/>
				</g>
				<g>
					<path class="st12" d="M1031.7,2790.9l1,0.2l1.2,0.2l2.4,0.3l4.9,0.6c3.3,0.3,6.7,0.7,10.1,0.9c6.7,0.5,13.5,0.9,20.4,1
						c13.6,0.3,27.4-0.2,41.1-1.5c6.8-0.7,13.7-1.6,20.5-2.6c1.7-0.3,3.4-0.6,5.1-0.9l2.6-0.4l2.5-0.5c1.7-0.4,3.4-0.6,5.1-1
						l5.1-1.1c13.6-2.9,27.1-7,40.7-11.5l0,0c0.5-0.2,1.1,0.1,1.3,0.6c0.1,0.4,0,0.9-0.3,1.1c-5.7,4.5-11.7,8.7-17.9,12.3
						c-6.2,3.8-12.7,7.1-19.4,10.2c-6.6,3.1-13.5,5.7-20.5,8.1c-7,2.4-14,4.4-21.2,6.2c-14.3,3.5-28.9,6-43.7,7.4
						c-7.4,0.6-14.8,1.1-22.3,1.1c-3.7,0-7.5,0-11.2-0.2c-1.9-0.1-3.8-0.2-5.7-0.3l-2.9-0.2l-1.5-0.1l-1.7-0.2
						c-8.2-0.9-14.1-8.3-13.2-16.5c0.9-8.2,8.3-14.1,16.5-13.2c0.2,0,0.4,0,0.6,0.1L1031.7,2790.9z"/>
				</g>
			</g>
			<g>
				<g>
					<path class="st14" d="M1558.7,3094.7H374.6c-13.8,0-25-11.2-25-25v-31.5c0-13.8,11.2-25,25-25h1184.2c13.8,0,25,11.2,25,25
						v31.5C1583.7,3083.5,1572.5,3094.7,1558.7,3094.7z"/>
				</g>
				<g class="st2">
					<path class="st1" d="M1558.7,3063.5H374.6c-13.8,0-25-11.2-25-25v31.1c0,13.8,11.2,25,25,25h1184.2c13.8,0,25-11.2,25-25v-31.1
						C1583.7,3052.3,1572.5,3063.5,1558.7,3063.5z"/>
				</g>
				<g>
					<g>
						<path class="st15" d="M475.9,3105.1c-5.7,0-10.4-4.6-10.4-10.4v-81.4c0-5.7,4.6-10.4,10.4-10.4c5.7,0,10.4,4.6,10.4,10.4v81.4
							C486.2,3100.4,481.6,3105.1,475.9,3105.1z"/>
					</g>
					<g>
						<path class="st15" d="M516.6,3105.1c-5.7,0-10.4-4.6-10.4-10.4v-81.4c0-5.7,4.6-10.4,10.4-10.4c5.7,0,10.4,4.6,10.4,10.4v81.4
							C526.9,3100.4,522.3,3105.1,516.6,3105.1z"/>
					</g>
					<g>
						<path class="st15" d="M742.5,3105.1c-5.7,0-10.4-4.6-10.4-10.4v-81.4c0-5.7,4.6-10.4,10.4-10.4c5.7,0,10.4,4.6,10.4,10.4v81.4
							C752.8,3100.4,748.2,3105.1,742.5,3105.1z"/>
					</g>
					<g>
						<path class="st15" d="M1216.1,3105.1c-5.7,0-10.4-4.6-10.4-10.4v-81.4c0-5.7,4.6-10.4,10.4-10.4s10.4,4.6,10.4,10.4v81.4
							C1226.5,3100.4,1221.9,3105.1,1216.1,3105.1z"/>
					</g>
					<g>
						<path class="st15" d="M900.3,3105.1c-5.7,0-10.4-4.6-10.4-10.4v-81.4c0-5.7,4.6-10.4,10.4-10.4s10.4,4.6,10.4,10.4v81.4
							C910.7,3100.4,906.1,3105.1,900.3,3105.1z"/>
					</g>
					<g>
						<path class="st15" d="M946.5,3105.1c-5.7,0-10.4-4.6-10.4-10.4v-81.4c0-5.7,4.6-10.4,10.4-10.4s10.4,4.6,10.4,10.4v81.4
							C956.9,3100.4,952.2,3105.1,946.5,3105.1z"/>
					</g>
					<g>
						<path class="st15" d="M1094.7,3105.1c-5.7,0-10.4-4.6-10.4-10.4v-81.4c0-5.7,4.6-10.4,10.4-10.4s10.4,4.6,10.4,10.4v81.4
							C1105.1,3100.4,1100.5,3105.1,1094.7,3105.1z"/>
					</g>
					<g>
						<path class="st15" d="M1140.9,3105.1c-5.7,0-10.4-4.6-10.4-10.4v-81.4c0-5.7,4.6-10.4,10.4-10.4s10.4,4.6,10.4,10.4v81.4
							C1151.3,3100.4,1146.6,3105.1,1140.9,3105.1z"/>
					</g>
					<g>
						<path class="st15" d="M1290.9,3105.1c-5.7,0-10.4-4.6-10.4-10.4v-81.4c0-5.7,4.6-10.4,10.4-10.4s10.4,4.6,10.4,10.4v81.4
							C1301.2,3100.4,1296.6,3105.1,1290.9,3105.1z"/>
					</g>
					<g>
						<path class="st15" d="M1337,3105.1c-5.7,0-10.4-4.6-10.4-10.4v-81.4c0-5.7,4.6-10.4,10.4-10.4s10.4,4.6,10.4,10.4v81.4
							C1347.4,3100.4,1342.7,3105.1,1337,3105.1z"/>
					</g>
					<g>
						<path class="st15" d="M1490.1,3105.1c-5.7,0-10.4-4.6-10.4-10.4v-81.4c0-5.7,4.6-10.4,10.4-10.4s10.4,4.6,10.4,10.4v81.4
							C1500.4,3100.4,1495.8,3105.1,1490.1,3105.1z"/>
					</g>
					<g>
						<path class="st15" d="M1536.2,3105.1c-5.7,0-10.4-4.6-10.4-10.4v-81.4c0-5.7,4.6-10.4,10.4-10.4s10.4,4.6,10.4,10.4v81.4
							C1546.6,3100.4,1542,3105.1,1536.2,3105.1z"/>
					</g>
				</g>
				<g>
					<path class="st15" d="M1558.7,3108.3H374.6c-21.3,0-38.6-17.3-38.6-38.6v-31.5c0-21.3,17.3-38.6,38.6-38.6h1184.2
						c21.3,0,38.6,17.3,38.6,38.6v31.5C1597.3,3091,1580,3108.3,1558.7,3108.3z M374.6,3026.9c-6.3,0-11.4,5.1-11.4,11.4v31.5
						c0,6.3,5.1,11.4,11.4,11.4h1184.2c6.3,0,11.4-5.1,11.4-11.4v-31.5c0-6.3-5.1-11.4-11.4-11.4H374.6z"/>
				</g>
			</g>
			<g>
				<g>
					<path class="st14" d="M1317.7,3013.3H622.3c-10.6,0-19.3-8.6-19.3-19.3v-42.9c0-10.6,8.6-19.3,19.3-19.3h695.4
						c10.6,0,19.3,8.6,19.3,19.3v42.9C1337,3004.6,1328.4,3013.3,1317.7,3013.3z"/>
				</g>
				<g class="st16">
					<path class="st5" d="M1317.7,2931.8H622.3c-10.6,0-19.3,8.6-19.3,19.3v31.1c0-10.6,8.6-19.3,19.3-19.3h695.4
						c10.6,0,19.3,8.6,19.3,19.3v-31.1C1337,2940.5,1328.4,2931.8,1317.7,2931.8z"/>
				</g>
				<g>
					<g>
						<path class="st15" d="M694,3023.6c-5.7,0-10.4-4.6-10.4-10.4v-81.4c0-5.7,4.6-10.4,10.4-10.4c5.7,0,10.4,4.6,10.4,10.4v81.4
							C704.4,3019,699.8,3023.6,694,3023.6z"/>
					</g>
					<g>
						<path class="st15" d="M734.7,3023.6c-5.7,0-10.4-4.6-10.4-10.4v-81.4c0-5.7,4.6-10.4,10.4-10.4s10.4,4.6,10.4,10.4v81.4
							C745.1,3019,740.5,3023.6,734.7,3023.6z"/>
					</g>
					<g>
						<path class="st15" d="M992.5,3023.6c-5.7,0-10.4-4.6-10.4-10.4v-81.4c0-5.7,4.6-10.4,10.4-10.4c5.7,0,10.4,4.6,10.4,10.4v81.4
							C1002.9,3019,998.3,3023.6,992.5,3023.6z"/>
					</g>
					<g>
						<path class="st15" d="M1048.1,3023.6c-5.7,0-10.4-4.6-10.4-10.4v-81.4c0-5.7,4.6-10.4,10.4-10.4s10.4,4.6,10.4,10.4v81.4
							C1058.4,3019,1053.8,3023.6,1048.1,3023.6z"/>
					</g>
					<g>
						<path class="st15" d="M1094.7,3023.6c-5.7,0-10.4-4.6-10.4-10.4v-81.4c0-5.7,4.6-10.4,10.4-10.4s10.4,4.6,10.4,10.4v81.4
							C1105.1,3019,1100.5,3023.6,1094.7,3023.6z"/>
					</g>
					<g>
						<path class="st15" d="M1257.1,3023.6c-5.7,0-10.4-4.6-10.4-10.4v-81.4c0-5.7,4.6-10.4,10.4-10.4s10.4,4.6,10.4,10.4v81.4
							C1267.5,3019,1262.9,3023.6,1257.1,3023.6z"/>
					</g>
				</g>
				<g>
					<path class="st15" d="M1317.7,3026.9H622.3c-18.1,0-32.9-14.8-32.9-32.9v-42.9c0-18.1,14.8-32.9,32.9-32.9h695.4
						c18.1,0,32.9,14.8,32.9,32.9v42.9C1350.6,3012.1,1335.9,3026.9,1317.7,3026.9z M622.3,2945.5c-3.1,0-5.6,2.5-5.6,5.6v42.9
						c0,3.1,2.5,5.6,5.6,5.6h695.4c3.1,0,5.6-2.5,5.6-5.6v-42.9c0-3.1-2.5-5.6-5.6-5.6H622.3z"/>
				</g>
			</g>
			<g>
				<g>
					<path class="st14" d="M1375.4,3176.1H558.5c-11.5,0-20.8-9.3-20.8-20.8v-39.7c0-11.5,9.3-20.8,20.8-20.8h816.9
						c11.5,0,20.8,9.3,20.8,20.8v39.7C1396.2,3166.8,1386.9,3176.1,1375.4,3176.1z"/>
				</g>
				<g class="st2">
					<path class="st1" d="M1375.4,3134.6H558.5c-11.2,0-20.3-8.9-20.7-19.9c0,0.3-0.1,0.6-0.1,0.9v39.7c0,11.5,9.3,20.8,20.8,20.8
						h816.9c11.5,0,20.8-9.3,20.8-20.8v-39.7c0-0.3-0.1-0.6-0.1-0.9C1395.6,3125.7,1386.6,3134.6,1375.4,3134.6z"/>
				</g>
				<g>
					<g>
						<path class="st15" d="M657.3,3186.5c-5.7,0-10.4-4.6-10.4-10.4v-81.4c0-5.7,4.6-10.4,10.4-10.4c5.7,0,10.4,4.6,10.4,10.4v81.4
							C667.7,3181.8,663.1,3186.5,657.3,3186.5z"/>
					</g>
					<g>
						<path class="st15" d="M804.1,3186.5c-5.7,0-10.4-4.6-10.4-10.4v-81.4c0-5.7,4.6-10.4,10.4-10.4c5.7,0,10.4,4.6,10.4,10.4v81.4
							C814.5,3181.8,809.9,3186.5,804.1,3186.5z"/>
					</g>
					<g>
						<path class="st15" d="M851,3186.5c-5.7,0-10.4-4.6-10.4-10.4v-81.4c0-5.7,4.6-10.4,10.4-10.4c5.7,0,10.4,4.6,10.4,10.4v81.4
							C861.4,3181.8,856.7,3186.5,851,3186.5z"/>
					</g>
					<g>
						<path class="st15" d="M1071.3,3186.5c-5.7,0-10.4-4.6-10.4-10.4v-81.4c0-5.7,4.6-10.4,10.4-10.4s10.4,4.6,10.4,10.4v81.4
							C1081.7,3181.8,1077,3186.5,1071.3,3186.5z"/>
					</g>
					<g>
						<path class="st15" d="M1118.2,3186.5c-5.7,0-10.4-4.6-10.4-10.4v-81.4c0-5.7,4.6-10.4,10.4-10.4s10.4,4.6,10.4,10.4v81.4
							C1128.5,3181.8,1123.9,3186.5,1118.2,3186.5z"/>
					</g>
				</g>
				<g>
					<path class="st15" d="M1375.4,3189.7H558.5c-19,0-34.5-15.5-34.5-34.5v-39.7c0-19,15.5-34.5,34.5-34.5h816.9
						c19,0,34.5,15.5,34.5,34.5v39.7C1409.8,3174.3,1394.4,3189.7,1375.4,3189.7z M558.5,3108.3c-4,0-7.2,3.2-7.2,7.2v39.7
						c0,4,3.2,7.2,7.2,7.2h816.9c4,0,7.2-3.2,7.2-7.2v-39.7c0-4-3.2-7.2-7.2-7.2H558.5z"/>
				</g>
			</g>
			<g>
				<g>
					<circle class="st14" cx="930.2" cy="1884" r="365.7"/>
				</g>
				<g>
					<g>
						<path class="st15" d="M940.8,2058.4h-23.1c-9.6,0-17.3-7.8-17.3-17.3v-21.2c-18.7-2.7-36.6-9.1-49-18
							c-6.3-4.5-8.8-12.6-6.2-19.9l8.8-24.6c1.8-5,5.8-8.9,10.9-10.6c5.1-1.7,10.6-0.9,15,2c12.1,8.1,28.3,12.9,43.3,12.9
							c12.2,0,26.4-4.9,26.4-18.7c0-7.4-2.4-16.2-30.7-27.7c-35.2-13.8-71.4-34.1-71.4-79.6c0-34.1,21.8-61.9,55.5-72.8v-23.5
							c0-9.6,7.8-17.3,17.3-17.3H943c9.6,0,17.3,7.8,17.3,17.3v19.9c14.4,2.2,27.4,6.8,39.2,13.7c7.3,4.3,10.4,13.2,7.4,21.1
							l-9.2,24.3c-1.8,4.7-5.6,8.5-10.3,10.2c-4.8,1.7-10,1.3-14.4-1.3c-5.8-3.3-17.9-10.2-37.7-10.2c-13.7,0-21.6,5.2-21.6,14.3
							c0,6.7,2.5,12.5,34.8,25.9c31.5,12.9,67.7,34,67.7,83.3c0,35.7-22.8,64.9-58.1,76.1v24.6
							C958.1,2050.7,950.4,2058.4,940.8,2058.4z"/>
					</g>
				</g>
				<g class="st2">
					<path class="st1" d="M1177.1,1614.3c35.4,56.3,56,122.9,56,194.3c0,201.9-163.7,365.7-365.7,365.7c-95.2,0-181.8-36.4-246.9-96
						c64.7,102.9,179.2,171.4,309.7,171.4c202,0,365.7-163.7,365.7-365.7C1295.8,1777.2,1250,1681.2,1177.1,1614.3z"/>
				</g>
				<g class="st2">
					<path class="st5" d="M677.2,1755.2L941,2168c0,0,27.2,2.5,88.6-18.1L733.8,1679C733.8,1679,698.8,1698.6,677.2,1755.2z"/>
				</g>
				<g class="st2">
					<path class="st5" d="M791.8,1636.1l307.1,476.2c0,0,15-11.9,57-53.9L867,1598.7C867,1598.7,830.2,1606.6,791.8,1636.1z"/>
				</g>
				<g class="st16">
					<path class="st5" d="M930.2,1518.3c-202,0-365.7,163.7-365.7,365.7s163.7,365.7,365.7,365.7s365.7-163.7,365.7-365.7
						S1132.1,1518.3,930.2,1518.3z M946.6,2238.6c-186.8,0-338.2-151.4-338.2-338.2c0-186.8,151.4-338.2,338.2-338.2
						c186.8,0,338.2,151.4,338.2,338.2C1284.8,2087.2,1133.4,2238.6,946.6,2238.6z"/>
				</g>
				<g>
					<path class="st17" d="M930.2,2179c-78.8,0-152.9-30.7-208.6-86.4c-55.7-55.7-86.4-129.8-86.4-208.6s30.7-152.9,86.4-208.6
						c55.7-55.7,129.8-86.4,208.6-86.4c78.8,0,152.9,30.7,208.6,86.4c55.7,55.7,86.4,129.8,86.4,208.6s-30.7,152.9-86.4,208.6
						C1083,2148.3,1008.9,2179,930.2,2179z M930.2,1611.2c-150.4,0-272.7,122.4-272.7,272.7s122.4,272.7,272.7,272.7
						s272.7-122.4,272.7-272.7S1080.5,1611.2,930.2,1611.2z"/>
				</g>
			</g>
			<g>
				<g>
					<g>
						<g>
							<g>
								<path class="st18" d="M2466,1496.2c-46.6-8.9-93.7,32.4-105.1,92.2c-11.4,59.9,17.1,115.6,63.7,124.5
									c46.6,8.9,93.7-32.4,105.1-92.2C2541.1,1560.9,2512.6,1505.1,2466,1496.2z"/>
							</g>
						</g>
					</g>
					<g>
						<g>
							<g>
								<path class="st5" d="M2460.6,1521.2c-15.4,4.1-23.5,24-18.1,44.6c5.4,20.6,22.3,33.9,37.7,29.9c15.4-4.1,23.5-24,18.1-44.6
									C2492.9,1530.5,2476,1517.2,2460.6,1521.2z"/>
							</g>
						</g>
					</g>
					<g>
						<g>
							<g>
								<path class="st19" d="M2399.7,1646.3c-7.5,3.9-9.2,15.2-4,25.2c5.3,10,15.6,14.8,23,10.9c7.5-3.9,9.2-15.2,4-25.2
									C2417.5,1647.2,2407.2,1642.3,2399.7,1646.3z"/>
							</g>
						</g>
					</g>
				</g>
				<g>
					<g>
						<g>
							<g>
								<path class="st18" d="M2889.6,1496.2c46.6-8.9,93.7,32.4,105.1,92.2c11.4,59.9-17.1,115.6-63.7,124.5
									c-46.6,8.9-93.7-32.4-105.1-92.2C2814.4,1560.9,2842.9,1505.1,2889.6,1496.2z"/>
							</g>
						</g>
					</g>
					<g>
						<g>
							<g>
								<path class="st5" d="M2894.9,1521.2c15.4,4.1,23.5,24,18.1,44.6c-5.4,20.6-22.3,33.9-37.7,29.9c-15.4-4.1-23.5-24-18.1-44.6
									C2862.6,1530.5,2879.5,1517.2,2894.9,1521.2z"/>
							</g>
						</g>
					</g>
					<g>
						<g>
							<g>
								<path class="st19" d="M2955.8,1646.3c7.5,3.9,9.2,15.2,4,25.2c-5.3,10-15.6,14.8-23,10.9c-7.5-3.9-9.2-15.2-4-25.2
									C2938.1,1647.2,2948.4,1642.3,2955.8,1646.3z"/>
							</g>
						</g>
					</g>
				</g>
			</g>
			<g class="st2">
				<path class="st1" d="M2391.6,2196.8c0,0-60.4,61.3-75.6,122.5c-6.2,24.9-16,48.8-31.3,69.4c-12.1,16.3-26.4,30.8-39.7,31.3
					l-19.1,43.9l-13.4,33.6l4.1,12.6l53.6,4.3l43.6-16.7l41.4-196.9L2391.6,2196.8z"/>
			</g>
		</g>
	</g>
</g>
</svg>
